<?xml version="1.0" encoding="UTF-8" standalone="no"?>
<!DOCTYPE svg PUBLIC "-//W3C//DTD SVG 1.1//EN"
 "http://www.w3.org/Graphics/SVG/1.1/DTD/svg11.dtd">
<!-- Generated by graphviz version 2.40.1 (20161225.0304)
 -->
<!-- Title: actor_info Pages: 1 -->
<svg width="300pt" height="255pt"
 viewBox="0.00 0.00 300.00 255.00" xmlns="http://www.w3.org/2000/svg" xmlns:xlink="http://www.w3.org/1999/xlink">
<g id="graph0" class="graph" transform="scale(1 1) rotate(0) translate(4 251)">
<title>actor_info</title>
<polygon fill="#ffffff" stroke="transparent" points="-4,4 -4,-251 296,-251 296,4 -4,4"/>
<!-- actor_info -->
<g id="node1" class="node">
<title>actor_info</title>
<polygon fill="#efefef" stroke="transparent" points="46,-165.5 46,-200.5 246,-200.5 246,-165.5 46,-165.5"/>
<polygon fill="none" stroke="#000000" points="46,-165.5 46,-200.5 246,-200.5 246,-165.5 46,-165.5"/>
<text text-anchor="start" x="82.764" y="-178.3" font-family="Arial Bold" font-size="18.00" fill="#000000">actor_info</text>
<text text-anchor="start" x="161.7858" y="-178.3" font-family="Arial" font-size="14.00" fill="#000000"> </text>
<text text-anchor="start" x="165.6764" y="-178.3" font-family="Arial" font-size="14.00" fill="#666666">[VIEW]</text>
<polygon fill="none" stroke="#000000" points="46,-135.5 46,-165.5 246,-165.5 246,-135.5 46,-135.5"/>
<text text-anchor="start" x="52.6536" y="-146.9" font-family="Arial" font-size="14.00" fill="#000000">actor_id </text>
<text text-anchor="start" x="106.3324" y="-146.9" font-family="Arial" font-size="14.00" fill="#666666">[smallint(5) unsigned]</text>
<polygon fill="none" stroke="#000000" points="46,-105.5 46,-135.5 246,-135.5 246,-105.5 46,-105.5"/>
<text text-anchor="start" x="53" y="-116.9" font-family="Arial" font-size="14.00" fill="#000000">first_name </text>
<text text-anchor="start" x="122.23" y="-116.9" font-family="Arial" font-size="14.00" fill="#666666">[varchar(45)]</text>
<polygon fill="none" stroke="#000000" points="46,-75.5 46,-105.5 246,-105.5 246,-75.5 46,-75.5"/>
<text text-anchor="start" x="53" y="-86.9" font-family="Arial" font-size="14.00" fill="#000000">last_name </text>
<text text-anchor="start" x="121.4614" y="-86.9" font-family="Arial" font-size="14.00" fill="#666666">[varchar(45)]</text>
<polygon fill="none" stroke="#000000" points="46,-45.5 46,-75.5 246,-75.5 246,-45.5 46,-45.5"/>
<text text-anchor="start" x="53" y="-56.9" font-family="Arial" font-size="14.00" fill="#000000">film_info </text>
<text text-anchor="start" x="109" y="-56.9" font-family="Arial" font-size="14.00" fill="#666666">[text]</text>
<polygon fill="none" stroke="#000000" stroke-width="3" points="44.5,-44.5 44.5,-202.5 247.5,-202.5 247.5,-44.5 44.5,-44.5"/>
</g>
</g>
</svg>
