<?xml version="1.0" encoding="UTF-8" standalone="no"?>
<!DOCTYPE svg PUBLIC "-//W3C//DTD SVG 1.1//EN"
 "http://www.w3.org/Graphics/SVG/1.1/DTD/svg11.dtd">
<!-- Generated by graphviz version 2.40.1 (20161225.0304)
 -->
<!-- Title: actor Pages: 1 -->
<svg width="522pt" height="502pt"
 viewBox="0.00 0.00 522.00 502.00" xmlns="http://www.w3.org/2000/svg" xmlns:xlink="http://www.w3.org/1999/xlink">
<g id="graph0" class="graph" transform="scale(1 1) rotate(0) translate(4 498)">
<title>actor</title>
<polygon fill="#ffffff" stroke="transparent" points="-4,4 -4,-498 518,-498 518,4 -4,4"/>
<!-- actor -->
<g id="node1" class="node">
<title>actor</title>
<polygon fill="#efefef" stroke="transparent" points="46,-165.5 46,-200.5 246,-200.5 246,-165.5 46,-165.5"/>
<polygon fill="none" stroke="#000000" points="46,-165.5 46,-200.5 246,-200.5 246,-165.5 46,-165.5"/>
<text text-anchor="start" x="77.3697" y="-178.3" font-family="Arial Bold" font-size="18.00" fill="#000000">actor</text>
<text text-anchor="start" x="117.3765" y="-178.3" font-family="Arial" font-size="14.00" fill="#000000"> </text>
<text text-anchor="start" x="121.2671" y="-178.3" font-family="Arial" font-size="14.00" fill="#666666">[BASE TABLE]</text>
<polygon fill="none" stroke="#000000" points="46,-135.5 46,-165.5 246,-165.5 246,-135.5 46,-135.5"/>
<text text-anchor="start" x="52.6536" y="-146.9" font-family="Arial" font-size="14.00" fill="#000000">actor_id </text>
<text text-anchor="start" x="106.3324" y="-146.9" font-family="Arial" font-size="14.00" fill="#666666">[smallint(5) unsigned]</text>
<polygon fill="none" stroke="#000000" points="46,-105.5 46,-135.5 246,-135.5 246,-105.5 46,-105.5"/>
<text text-anchor="start" x="53" y="-116.9" font-family="Arial" font-size="14.00" fill="#000000">first_name </text>
<text text-anchor="start" x="122.23" y="-116.9" font-family="Arial" font-size="14.00" fill="#666666">[varchar(45)]</text>
<polygon fill="none" stroke="#000000" points="46,-75.5 46,-105.5 246,-105.5 246,-75.5 46,-75.5"/>
<text text-anchor="start" x="53" y="-86.9" font-family="Arial" font-size="14.00" fill="#000000">last_name </text>
<text text-anchor="start" x="121.4614" y="-86.9" font-family="Arial" font-size="14.00" fill="#666666">[varchar(45)]</text>
<polygon fill="none" stroke="#000000" points="46,-45.5 46,-75.5 246,-75.5 246,-45.5 46,-45.5"/>
<text text-anchor="start" x="53" y="-56.9" font-family="Arial" font-size="14.00" fill="#000000">last_update </text>
<text text-anchor="start" x="129.2566" y="-56.9" font-family="Arial" font-size="14.00" fill="#666666">[timestamp]</text>
<polygon fill="none" stroke="#000000" stroke-width="3" points="44.5,-44.5 44.5,-202.5 247.5,-202.5 247.5,-44.5 44.5,-44.5"/>
</g>
<!-- film_actor -->
<g id="node2" class="node">
<title>film_actor</title>
<polygon fill="#efefef" stroke="transparent" points="46,-415.5 46,-450.5 246,-450.5 246,-415.5 46,-415.5"/>
<polygon fill="none" stroke="#000000" points="46,-415.5 46,-450.5 246,-450.5 246,-415.5 46,-415.5"/>
<text text-anchor="start" x="58.3752" y="-428.3" font-family="Arial Bold" font-size="18.00" fill="#000000">film_actor</text>
<text text-anchor="start" x="136.371" y="-428.3" font-family="Arial" font-size="14.00" fill="#000000"> </text>
<text text-anchor="start" x="140.2616" y="-428.3" font-family="Arial" font-size="14.00" fill="#666666">[BASE TABLE]</text>
<polygon fill="none" stroke="#000000" points="46,-385.5 46,-415.5 246,-415.5 246,-385.5 46,-385.5"/>
<text text-anchor="start" x="52.6536" y="-396.9" font-family="Arial" font-size="14.00" fill="#000000">actor_id </text>
<text text-anchor="start" x="106.3324" y="-396.9" font-family="Arial" font-size="14.00" fill="#666666">[smallint(5) unsigned]</text>
<polygon fill="none" stroke="#000000" points="46,-355.5 46,-385.5 246,-385.5 246,-355.5 46,-355.5"/>
<text text-anchor="start" x="53" y="-366.9" font-family="Arial" font-size="14.00" fill="#000000">film_id </text>
<text text-anchor="start" x="97.3268" y="-366.9" font-family="Arial" font-size="14.00" fill="#666666">[smallint(5) unsigned]</text>
<polygon fill="none" stroke="#000000" points="46,-325.5 46,-355.5 246,-355.5 246,-325.5 46,-325.5"/>
<text text-anchor="start" x="53" y="-336.9" font-family="Arial" font-size="14.00" fill="#000000">last_update </text>
<text text-anchor="start" x="129.2566" y="-336.9" font-family="Arial" font-size="14.00" fill="#666666">[timestamp]</text>
</g>
<!-- film_actor&#45;&gt;actor -->
<g id="edge1" class="edge">
<title>film_actor:actor_id&#45;&gt;actor:actor_id</title>
<path fill="none" stroke="#000000" d="M255.7656,-397.6924C301.3385,-370.2266 298.0833,-150.5 246,-150.5"/>
<polygon fill="#000000" stroke="#000000" points="255.6107,-397.7369 244.7566,-396.1752 250.8053,-399.1184 246,-400.5 246,-400.5 246,-400.5 250.8053,-399.1184 247.2434,-404.8248 255.6107,-397.7369 255.6107,-397.7369"/>
<text text-anchor="start" x="252.7735" y="-410.5" font-family="Arial" font-size="10.00" fill="#000000">FOREIGN KEY (actor_id) REFERENCES actor (actor_id)</text>
</g>
</g>
</svg>
