<?xml version="1.0" encoding="UTF-8" standalone="no"?>
<!DOCTYPE svg PUBLIC "-//W3C//DTD SVG 1.1//EN"
 "http://www.w3.org/Graphics/SVG/1.1/DTD/svg11.dtd">
<!-- Generated by graphviz version 2.40.1 (20161225.0304)
 -->
<!-- Title: address Pages: 1 -->
<svg width="1051pt" height="1169pt"
 viewBox="0.00 0.00 1051.00 1169.00" xmlns="http://www.w3.org/2000/svg" xmlns:xlink="http://www.w3.org/1999/xlink">
<g id="graph0" class="graph" transform="scale(1 1) rotate(0) translate(4 1165)">
<title>address</title>
<polygon fill="#ffffff" stroke="transparent" points="-4,4 -4,-1165 1047,-1165 1047,4 -4,4"/>
<!-- address -->
<g id="node1" class="node">
<title>address</title>
<polygon fill="#efefef" stroke="transparent" points="412,-592.5 412,-627.5 631,-627.5 631,-592.5 412,-592.5"/>
<polygon fill="none" stroke="#000000" points="412,-592.5 412,-627.5 631,-627.5 631,-592.5 412,-592.5"/>
<text text-anchor="start" x="440.8646" y="-605.3" font-family="Arial Bold" font-size="18.00" fill="#000000">address</text>
<text text-anchor="start" x="504.8816" y="-605.3" font-family="Arial" font-size="14.00" fill="#000000"> </text>
<text text-anchor="start" x="508.7722" y="-605.3" font-family="Arial" font-size="14.00" fill="#666666">[BASE TABLE]</text>
<polygon fill="none" stroke="#000000" points="412,-562.5 412,-592.5 631,-592.5 631,-562.5 412,-562.5"/>
<text text-anchor="start" x="418.8163" y="-573.9" font-family="Arial" font-size="14.00" fill="#000000">address_id </text>
<text text-anchor="start" x="491.1697" y="-573.9" font-family="Arial" font-size="14.00" fill="#666666">[smallint(5) unsigned]</text>
<polygon fill="none" stroke="#000000" points="412,-532.5 412,-562.5 631,-562.5 631,-532.5 412,-532.5"/>
<text text-anchor="start" x="419" y="-543.9" font-family="Arial" font-size="14.00" fill="#000000">address </text>
<text text-anchor="start" x="472.6816" y="-543.9" font-family="Arial" font-size="14.00" fill="#666666">[varchar(50)]</text>
<polygon fill="none" stroke="#000000" points="412,-502.5 412,-532.5 631,-532.5 631,-502.5 412,-502.5"/>
<text text-anchor="start" x="419" y="-513.9" font-family="Arial" font-size="14.00" fill="#000000">address2 </text>
<text text-anchor="start" x="480.4642" y="-513.9" font-family="Arial" font-size="14.00" fill="#666666">[varchar(50)]</text>
<polygon fill="none" stroke="#000000" points="412,-472.5 412,-502.5 631,-502.5 631,-472.5 412,-472.5"/>
<text text-anchor="start" x="419" y="-483.9" font-family="Arial" font-size="14.00" fill="#000000">district </text>
<text text-anchor="start" x="463.3282" y="-483.9" font-family="Arial" font-size="14.00" fill="#666666">[varchar(20)]</text>
<polygon fill="none" stroke="#000000" points="412,-442.5 412,-472.5 631,-472.5 631,-442.5 412,-442.5"/>
<text text-anchor="start" x="419" y="-453.9" font-family="Arial" font-size="14.00" fill="#000000">city_id </text>
<text text-anchor="start" x="462.5596" y="-453.9" font-family="Arial" font-size="14.00" fill="#666666">[smallint(5) unsigned]</text>
<polygon fill="none" stroke="#000000" points="412,-412.5 412,-442.5 631,-442.5 631,-412.5 412,-412.5"/>
<text text-anchor="start" x="419" y="-423.9" font-family="Arial" font-size="14.00" fill="#000000">postal_code </text>
<text text-anchor="start" x="498.366" y="-423.9" font-family="Arial" font-size="14.00" fill="#666666">[varchar(10)]</text>
<polygon fill="none" stroke="#000000" points="412,-382.5 412,-412.5 631,-412.5 631,-382.5 412,-382.5"/>
<text text-anchor="start" x="419" y="-393.9" font-family="Arial" font-size="14.00" fill="#000000">phone </text>
<text text-anchor="start" x="461.8036" y="-393.9" font-family="Arial" font-size="14.00" fill="#666666">[varchar(20)]</text>
<polygon fill="none" stroke="#000000" points="412,-352.5 412,-382.5 631,-382.5 631,-352.5 412,-352.5"/>
<text text-anchor="start" x="419" y="-363.9" font-family="Arial" font-size="14.00" fill="#000000">location </text>
<text text-anchor="start" x="471.1248" y="-363.9" font-family="Arial" font-size="14.00" fill="#666666">[geometry]</text>
<polygon fill="none" stroke="#000000" points="412,-322.5 412,-352.5 631,-352.5 631,-322.5 412,-322.5"/>
<text text-anchor="start" x="419" y="-333.9" font-family="Arial" font-size="14.00" fill="#000000">last_update </text>
<text text-anchor="start" x="495.2566" y="-333.9" font-family="Arial" font-size="14.00" fill="#666666">[timestamp]</text>
<polygon fill="none" stroke="#000000" stroke-width="3" points="410,-321.5 410,-629.5 632,-629.5 632,-321.5 410,-321.5"/>
</g>
<!-- city -->
<g id="node5" class="node">
<title>city</title>
<polygon fill="#efefef" stroke="transparent" points="414,-162.5 414,-197.5 629,-197.5 629,-162.5 414,-162.5"/>
<polygon fill="none" stroke="#000000" points="414,-162.5 414,-197.5 629,-197.5 629,-162.5 414,-162.5"/>
<text text-anchor="start" x="459.3749" y="-175.3" font-family="Arial Bold" font-size="18.00" fill="#000000">city</text>
<text text-anchor="start" x="486.3713" y="-175.3" font-family="Arial" font-size="14.00" fill="#000000"> </text>
<text text-anchor="start" x="490.2619" y="-175.3" font-family="Arial" font-size="14.00" fill="#666666">[BASE TABLE]</text>
<polygon fill="none" stroke="#000000" points="414,-132.5 414,-162.5 629,-162.5 629,-132.5 414,-132.5"/>
<text text-anchor="start" x="421" y="-143.9" font-family="Arial" font-size="14.00" fill="#000000">city_id </text>
<text text-anchor="start" x="464.5596" y="-143.9" font-family="Arial" font-size="14.00" fill="#666666">[smallint(5) unsigned]</text>
<polygon fill="none" stroke="#000000" points="414,-102.5 414,-132.5 629,-132.5 629,-102.5 414,-102.5"/>
<text text-anchor="start" x="421" y="-113.9" font-family="Arial" font-size="14.00" fill="#000000">city </text>
<text text-anchor="start" x="445.8878" y="-113.9" font-family="Arial" font-size="14.00" fill="#666666">[varchar(50)]</text>
<polygon fill="none" stroke="#000000" points="414,-72.5 414,-102.5 629,-102.5 629,-72.5 414,-72.5"/>
<text text-anchor="start" x="420.7623" y="-83.9" font-family="Arial" font-size="14.00" fill="#000000">country_id </text>
<text text-anchor="start" x="489.2237" y="-83.9" font-family="Arial" font-size="14.00" fill="#666666">[smallint(5) unsigned]</text>
<polygon fill="none" stroke="#000000" points="414,-42.5 414,-72.5 629,-72.5 629,-42.5 414,-42.5"/>
<text text-anchor="start" x="421" y="-53.9" font-family="Arial" font-size="14.00" fill="#000000">last_update </text>
<text text-anchor="start" x="497.2566" y="-53.9" font-family="Arial" font-size="14.00" fill="#666666">[timestamp]</text>
</g>
<!-- address&#45;&gt;city -->
<g id="edge4" class="edge">
<title>address:city_id&#45;&gt;city:city_id</title>
<path fill="none" stroke="#000000" d="M401.7753,-456.9106C274.4085,-441.9577 279.7177,-147.5 414,-147.5"/>
<polygon fill="#000000" stroke="#000000" points="402.0166,-456.9244 411.741,-461.9925 407.0083,-457.2122 412,-457.5 412,-457.5 412,-457.5 407.0083,-457.2122 412.259,-453.0075 402.0166,-456.9244 402.0166,-456.9244"/>
<text text-anchor="start" x="172.6155" y="-467.5" font-family="Arial" font-size="10.00" fill="#000000">FOREIGN KEY (city_id) REFERENCES city (city_id)</text>
</g>
<!-- customer -->
<g id="node2" class="node">
<title>customer</title>
<polygon fill="#efefef" stroke="transparent" points="81,-1052.5 81,-1087.5 308,-1087.5 308,-1052.5 81,-1052.5"/>
<polygon fill="none" stroke="#000000" points="81,-1052.5 81,-1087.5 308,-1087.5 308,-1052.5 81,-1052.5"/>
<text text-anchor="start" x="108.8705" y="-1065.3" font-family="Arial Bold" font-size="18.00" fill="#000000">customer</text>
<text text-anchor="start" x="182.8757" y="-1065.3" font-family="Arial" font-size="14.00" fill="#000000"> </text>
<text text-anchor="start" x="186.7663" y="-1065.3" font-family="Arial" font-size="14.00" fill="#666666">[BASE TABLE]</text>
<polygon fill="none" stroke="#000000" points="81,-1022.5 81,-1052.5 308,-1052.5 308,-1022.5 81,-1022.5"/>
<text text-anchor="start" x="87.932" y="-1033.9" font-family="Arial" font-size="14.00" fill="#000000">customer_id </text>
<text text-anchor="start" x="168.054" y="-1033.9" font-family="Arial" font-size="14.00" fill="#666666">[smallint(5) unsigned]</text>
<polygon fill="none" stroke="#000000" points="81,-992.5 81,-1022.5 308,-1022.5 308,-992.5 81,-992.5"/>
<text text-anchor="start" x="88" y="-1003.9" font-family="Arial" font-size="14.00" fill="#000000">store_id </text>
<text text-anchor="start" x="141.6788" y="-1003.9" font-family="Arial" font-size="14.00" fill="#666666">[tinyint(3) unsigned]</text>
<polygon fill="none" stroke="#000000" points="81,-962.5 81,-992.5 308,-992.5 308,-962.5 81,-962.5"/>
<text text-anchor="start" x="88" y="-973.9" font-family="Arial" font-size="14.00" fill="#000000">first_name </text>
<text text-anchor="start" x="157.23" y="-973.9" font-family="Arial" font-size="14.00" fill="#666666">[varchar(45)]</text>
<polygon fill="none" stroke="#000000" points="81,-932.5 81,-962.5 308,-962.5 308,-932.5 81,-932.5"/>
<text text-anchor="start" x="88" y="-943.9" font-family="Arial" font-size="14.00" fill="#000000">last_name </text>
<text text-anchor="start" x="156.4614" y="-943.9" font-family="Arial" font-size="14.00" fill="#666666">[varchar(45)]</text>
<polygon fill="none" stroke="#000000" points="81,-902.5 81,-932.5 308,-932.5 308,-902.5 81,-902.5"/>
<text text-anchor="start" x="88" y="-913.9" font-family="Arial" font-size="14.00" fill="#000000">email </text>
<text text-anchor="start" x="125.3296" y="-913.9" font-family="Arial" font-size="14.00" fill="#666666">[varchar(50)]</text>
<polygon fill="none" stroke="#000000" points="81,-872.5 81,-902.5 308,-902.5 308,-872.5 81,-872.5"/>
<text text-anchor="start" x="88" y="-883.9" font-family="Arial" font-size="14.00" fill="#000000">address_id </text>
<text text-anchor="start" x="160.3534" y="-883.9" font-family="Arial" font-size="14.00" fill="#666666">[smallint(5) unsigned]</text>
<polygon fill="none" stroke="#000000" points="81,-842.5 81,-872.5 308,-872.5 308,-842.5 81,-842.5"/>
<text text-anchor="start" x="88" y="-853.9" font-family="Arial" font-size="14.00" fill="#000000">active </text>
<text text-anchor="start" x="128.453" y="-853.9" font-family="Arial" font-size="14.00" fill="#666666">[tinyint(1)]</text>
<polygon fill="none" stroke="#000000" points="81,-812.5 81,-842.5 308,-842.5 308,-812.5 81,-812.5"/>
<text text-anchor="start" x="88" y="-823.9" font-family="Arial" font-size="14.00" fill="#000000">create_date </text>
<text text-anchor="start" x="165.8106" y="-823.9" font-family="Arial" font-size="14.00" fill="#666666">[datetime]</text>
<polygon fill="none" stroke="#000000" points="81,-782.5 81,-812.5 308,-812.5 308,-782.5 81,-782.5"/>
<text text-anchor="start" x="88" y="-793.9" font-family="Arial" font-size="14.00" fill="#000000">last_update </text>
<text text-anchor="start" x="164.2566" y="-793.9" font-family="Arial" font-size="14.00" fill="#666666">[timestamp]</text>
</g>
<!-- customer&#45;&gt;address -->
<g id="edge1" class="edge">
<title>customer:address_id&#45;&gt;address:address_id</title>
<path fill="none" stroke="#000000" d="M318.2358,-886.9066C385.0677,-878.5737 333.5863,-784.1598 359,-710 379.5613,-650 348.5747,-577.5 412,-577.5"/>
<polygon fill="#000000" stroke="#000000" points="317.9832,-886.9211 307.7395,-883.0075 312.9916,-887.2106 308,-887.5 308,-887.5 308,-887.5 312.9916,-887.2106 308.2605,-891.9925 317.9832,-886.9211 317.9832,-886.9211"/>
<text text-anchor="start" x="6.765" y="-897.5" font-family="Arial" font-size="10.00" fill="#000000">FOREIGN KEY (address_id) REFERENCES address (address_id)</text>
</g>
<!-- staff -->
<g id="node3" class="node">
<title>staff</title>
<polygon fill="#efefef" stroke="transparent" points="412,-1082.5 412,-1117.5 631,-1117.5 631,-1082.5 412,-1082.5"/>
<polygon fill="none" stroke="#000000" points="412,-1082.5 412,-1117.5 631,-1117.5 631,-1082.5 412,-1082.5"/>
<text text-anchor="start" x="455.8667" y="-1095.3" font-family="Arial Bold" font-size="18.00" fill="#000000">staff</text>
<text text-anchor="start" x="489.8795" y="-1095.3" font-family="Arial" font-size="14.00" fill="#000000"> </text>
<text text-anchor="start" x="493.7701" y="-1095.3" font-family="Arial" font-size="14.00" fill="#666666">[BASE TABLE]</text>
<polygon fill="none" stroke="#000000" points="412,-1052.5 412,-1082.5 631,-1082.5 631,-1052.5 412,-1052.5"/>
<text text-anchor="start" x="419" y="-1063.9" font-family="Arial" font-size="14.00" fill="#000000">staff_id </text>
<text text-anchor="start" x="468.0168" y="-1063.9" font-family="Arial" font-size="14.00" fill="#666666">[tinyint(3) unsigned]</text>
<polygon fill="none" stroke="#000000" points="412,-1022.5 412,-1052.5 631,-1052.5 631,-1022.5 412,-1022.5"/>
<text text-anchor="start" x="419" y="-1033.9" font-family="Arial" font-size="14.00" fill="#000000">first_name </text>
<text text-anchor="start" x="488.23" y="-1033.9" font-family="Arial" font-size="14.00" fill="#666666">[varchar(45)]</text>
<polygon fill="none" stroke="#000000" points="412,-992.5 412,-1022.5 631,-1022.5 631,-992.5 412,-992.5"/>
<text text-anchor="start" x="419" y="-1003.9" font-family="Arial" font-size="14.00" fill="#000000">last_name </text>
<text text-anchor="start" x="487.4614" y="-1003.9" font-family="Arial" font-size="14.00" fill="#666666">[varchar(45)]</text>
<polygon fill="none" stroke="#000000" points="412,-962.5 412,-992.5 631,-992.5 631,-962.5 412,-962.5"/>
<text text-anchor="start" x="418.8163" y="-973.9" font-family="Arial" font-size="14.00" fill="#000000">address_id </text>
<text text-anchor="start" x="491.1697" y="-973.9" font-family="Arial" font-size="14.00" fill="#666666">[smallint(5) unsigned]</text>
<polygon fill="none" stroke="#000000" points="412,-932.5 412,-962.5 631,-962.5 631,-932.5 412,-932.5"/>
<text text-anchor="start" x="419" y="-943.9" font-family="Arial" font-size="14.00" fill="#000000">picture </text>
<text text-anchor="start" x="464.8962" y="-943.9" font-family="Arial" font-size="14.00" fill="#666666">[blob]</text>
<polygon fill="none" stroke="#000000" points="412,-902.5 412,-932.5 631,-932.5 631,-902.5 412,-902.5"/>
<text text-anchor="start" x="419" y="-913.9" font-family="Arial" font-size="14.00" fill="#000000">email </text>
<text text-anchor="start" x="456.3296" y="-913.9" font-family="Arial" font-size="14.00" fill="#666666">[varchar(50)]</text>
<polygon fill="none" stroke="#000000" points="412,-872.5 412,-902.5 631,-902.5 631,-872.5 412,-872.5"/>
<text text-anchor="start" x="419" y="-883.9" font-family="Arial" font-size="14.00" fill="#000000">store_id </text>
<text text-anchor="start" x="472.6788" y="-883.9" font-family="Arial" font-size="14.00" fill="#666666">[tinyint(3) unsigned]</text>
<polygon fill="none" stroke="#000000" points="412,-842.5 412,-872.5 631,-872.5 631,-842.5 412,-842.5"/>
<text text-anchor="start" x="419" y="-853.9" font-family="Arial" font-size="14.00" fill="#000000">active </text>
<text text-anchor="start" x="459.453" y="-853.9" font-family="Arial" font-size="14.00" fill="#666666">[tinyint(1)]</text>
<polygon fill="none" stroke="#000000" points="412,-812.5 412,-842.5 631,-842.5 631,-812.5 412,-812.5"/>
<text text-anchor="start" x="419" y="-823.9" font-family="Arial" font-size="14.00" fill="#000000">username </text>
<text text-anchor="start" x="485.1248" y="-823.9" font-family="Arial" font-size="14.00" fill="#666666">[varchar(16)]</text>
<polygon fill="none" stroke="#000000" points="412,-782.5 412,-812.5 631,-812.5 631,-782.5 412,-782.5"/>
<text text-anchor="start" x="419" y="-793.9" font-family="Arial" font-size="14.00" fill="#000000">password </text>
<text text-anchor="start" x="482.7882" y="-793.9" font-family="Arial" font-size="14.00" fill="#666666">[varchar(40)]</text>
<polygon fill="none" stroke="#000000" points="412,-752.5 412,-782.5 631,-782.5 631,-752.5 412,-752.5"/>
<text text-anchor="start" x="419" y="-763.9" font-family="Arial" font-size="14.00" fill="#000000">last_update </text>
<text text-anchor="start" x="495.2566" y="-763.9" font-family="Arial" font-size="14.00" fill="#666666">[timestamp]</text>
</g>
<!-- staff&#45;&gt;address -->
<g id="edge2" class="edge">
<title>staff:address_id&#45;&gt;address:address_id</title>
<path fill="none" stroke="#000000" d="M403.5085,-972.1479C367.7632,-924.6817 370.5938,-577.5 412,-577.5"/>
<polygon fill="#000000" stroke="#000000" points="403.5401,-972.1679 409.6005,-981.3069 407.7701,-974.8339 412,-977.5 412,-977.5 412,-977.5 407.7701,-974.8339 414.3995,-973.6931 403.5401,-972.1679 403.5401,-972.1679"/>
<text text-anchor="start" x="187.765" y="-961.5" font-family="Arial" font-size="10.00" fill="#000000">FOREIGN KEY (address_id) REFERENCES address (address_id)</text>
</g>
<!-- store -->
<g id="node4" class="node">
<title>store</title>
<polygon fill="#efefef" stroke="transparent" points="735,-977.5 735,-1012.5 983,-1012.5 983,-977.5 735,-977.5"/>
<polygon fill="none" stroke="#000000" points="735,-977.5 735,-1012.5 983,-1012.5 983,-977.5 735,-977.5"/>
<text text-anchor="start" x="790.3697" y="-990.3" font-family="Arial Bold" font-size="18.00" fill="#000000">store</text>
<text text-anchor="start" x="830.3765" y="-990.3" font-family="Arial" font-size="14.00" fill="#000000"> </text>
<text text-anchor="start" x="834.2671" y="-990.3" font-family="Arial" font-size="14.00" fill="#666666">[BASE TABLE]</text>
<polygon fill="none" stroke="#000000" points="735,-947.5 735,-977.5 983,-977.5 983,-947.5 735,-947.5"/>
<text text-anchor="start" x="742" y="-958.9" font-family="Arial" font-size="14.00" fill="#000000">store_id </text>
<text text-anchor="start" x="795.6788" y="-958.9" font-family="Arial" font-size="14.00" fill="#666666">[tinyint(3) unsigned]</text>
<polygon fill="none" stroke="#000000" points="735,-917.5 735,-947.5 983,-947.5 983,-917.5 735,-917.5"/>
<text text-anchor="start" x="741.9145" y="-928.9" font-family="Arial" font-size="14.00" fill="#000000">manager_staff_id </text>
<text text-anchor="start" x="853.9481" y="-928.9" font-family="Arial" font-size="14.00" fill="#666666">[tinyint(3) unsigned]</text>
<polygon fill="none" stroke="#000000" points="735,-887.5 735,-917.5 983,-917.5 983,-887.5 735,-887.5"/>
<text text-anchor="start" x="742" y="-898.9" font-family="Arial" font-size="14.00" fill="#000000">address_id </text>
<text text-anchor="start" x="814.3534" y="-898.9" font-family="Arial" font-size="14.00" fill="#666666">[smallint(5) unsigned]</text>
<polygon fill="none" stroke="#000000" points="735,-857.5 735,-887.5 983,-887.5 983,-857.5 735,-857.5"/>
<text text-anchor="start" x="742" y="-868.9" font-family="Arial" font-size="14.00" fill="#000000">last_update </text>
<text text-anchor="start" x="818.2566" y="-868.9" font-family="Arial" font-size="14.00" fill="#666666">[timestamp]</text>
</g>
<!-- store&#45;&gt;address -->
<g id="edge3" class="edge">
<title>store:address_id&#45;&gt;address:address_id</title>
<path fill="none" stroke="#000000" d="M724.8507,-901.9623C651.5063,-893.6529 709.646,-790.702 683,-710 663.1656,-649.9282 694.2616,-577.5 631,-577.5"/>
<polygon fill="#000000" stroke="#000000" points="725.014,-901.9709 734.7619,-906.9937 730.007,-902.2354 735,-902.5 735,-902.5 735,-902.5 730.007,-902.2354 735.2381,-898.0063 725.014,-901.9709 725.014,-901.9709"/>
<text text-anchor="start" x="741.765" y="-912.5" font-family="Arial" font-size="10.00" fill="#000000">FOREIGN KEY (address_id) REFERENCES address (address_id)</text>
</g>
</g>
</svg>
