<?xml version="1.0" encoding="UTF-8" standalone="no"?>
<!DOCTYPE svg PUBLIC "-//W3C//DTD SVG 1.1//EN"
 "http://www.w3.org/Graphics/SVG/1.1/DTD/svg11.dtd">
<!-- Generated by graphviz version 2.40.1 (20161225.0304)
 -->
<!-- Title: category Pages: 1 -->
<svg width="585pt" height="472pt"
 viewBox="0.00 0.00 585.00 472.00" xmlns="http://www.w3.org/2000/svg" xmlns:xlink="http://www.w3.org/1999/xlink">
<g id="graph0" class="graph" transform="scale(1 1) rotate(0) translate(4 468)">
<title>category</title>
<polygon fill="#ffffff" stroke="transparent" points="-4,4 -4,-468 581,-468 581,4 -4,4"/>
<!-- category -->
<g id="node1" class="node">
<title>category</title>
<polygon fill="#efefef" stroke="transparent" points="46,-135.5 46,-170.5 258,-170.5 258,-135.5 46,-135.5"/>
<polygon fill="none" stroke="#000000" points="46,-135.5 46,-170.5 258,-170.5 258,-135.5 46,-135.5"/>
<text text-anchor="start" x="68.8635" y="-148.3" font-family="Arial Bold" font-size="18.00" fill="#000000">category</text>
<text text-anchor="start" x="137.8827" y="-148.3" font-family="Arial" font-size="14.00" fill="#000000"> </text>
<text text-anchor="start" x="141.7733" y="-148.3" font-family="Arial" font-size="14.00" fill="#666666">[BASE TABLE]</text>
<polygon fill="none" stroke="#000000" points="46,-105.5 46,-135.5 258,-135.5 258,-105.5 46,-105.5"/>
<text text-anchor="start" x="52.8093" y="-116.9" font-family="Arial" font-size="14.00" fill="#000000">category_id </text>
<text text-anchor="start" x="129.0533" y="-116.9" font-family="Arial" font-size="14.00" fill="#666666">[tinyint(3) unsigned]</text>
<polygon fill="none" stroke="#000000" points="46,-75.5 46,-105.5 258,-105.5 258,-75.5 46,-75.5"/>
<text text-anchor="start" x="53" y="-86.9" font-family="Arial" font-size="14.00" fill="#000000">name </text>
<text text-anchor="start" x="91.899" y="-86.9" font-family="Arial" font-size="14.00" fill="#666666">[varchar(25)]</text>
<polygon fill="none" stroke="#000000" points="46,-45.5 46,-75.5 258,-75.5 258,-45.5 46,-45.5"/>
<text text-anchor="start" x="53" y="-56.9" font-family="Arial" font-size="14.00" fill="#000000">last_update </text>
<text text-anchor="start" x="129.2566" y="-56.9" font-family="Arial" font-size="14.00" fill="#666666">[timestamp]</text>
<polygon fill="none" stroke="#000000" stroke-width="3" points="44.5,-44.5 44.5,-172.5 259.5,-172.5 259.5,-44.5 44.5,-44.5"/>
</g>
<!-- film_category -->
<g id="node2" class="node">
<title>film_category</title>
<polygon fill="#efefef" stroke="transparent" points="43,-385.5 43,-420.5 261,-420.5 261,-385.5 43,-385.5"/>
<polygon fill="none" stroke="#000000" points="43,-385.5 43,-420.5 261,-420.5 261,-385.5 43,-385.5"/>
<text text-anchor="start" x="49.869" y="-398.3" font-family="Arial Bold" font-size="18.00" fill="#000000">film_category</text>
<text text-anchor="start" x="156.8772" y="-398.3" font-family="Arial" font-size="14.00" fill="#000000"> </text>
<text text-anchor="start" x="160.7678" y="-398.3" font-family="Arial" font-size="14.00" fill="#666666">[BASE TABLE]</text>
<polygon fill="none" stroke="#000000" points="43,-355.5 43,-385.5 261,-385.5 261,-355.5 43,-355.5"/>
<text text-anchor="start" x="50" y="-366.9" font-family="Arial" font-size="14.00" fill="#000000">film_id </text>
<text text-anchor="start" x="94.3268" y="-366.9" font-family="Arial" font-size="14.00" fill="#666666">[smallint(5) unsigned]</text>
<polygon fill="none" stroke="#000000" points="43,-325.5 43,-355.5 261,-355.5 261,-325.5 43,-325.5"/>
<text text-anchor="start" x="50" y="-336.9" font-family="Arial" font-size="14.00" fill="#000000">category_id </text>
<text text-anchor="start" x="126.244" y="-336.9" font-family="Arial" font-size="14.00" fill="#666666">[tinyint(3) unsigned]</text>
<polygon fill="none" stroke="#000000" points="43,-295.5 43,-325.5 261,-325.5 261,-295.5 43,-295.5"/>
<text text-anchor="start" x="50" y="-306.9" font-family="Arial" font-size="14.00" fill="#000000">last_update </text>
<text text-anchor="start" x="126.2566" y="-306.9" font-family="Arial" font-size="14.00" fill="#666666">[timestamp]</text>
</g>
<!-- film_category&#45;&gt;category -->
<g id="edge1" class="edge">
<title>film_category:category_id&#45;&gt;category:category_id</title>
<path fill="none" stroke="#000000" d="M271.2055,-339.6591C358.4463,-324.8888 352.2536,-120.5 258,-120.5"/>
<polygon fill="#000000" stroke="#000000" points="270.9662,-339.6787 260.6304,-336.0152 265.9831,-340.0893 261,-340.5 261,-340.5 261,-340.5 265.9831,-340.0893 261.3696,-344.9848 270.9662,-339.6787 270.9662,-339.6787"/>
<text text-anchor="start" x="267.5965" y="-350.5" font-family="Arial" font-size="10.00" fill="#000000">FOREIGN KEY (category_id) REFERENCES category (category_id)</text>
</g>
</g>
</svg>
