<?xml version="1.0" encoding="UTF-8" standalone="no"?>
<!DOCTYPE svg PUBLIC "-//W3C//DTD SVG 1.1//EN"
 "http://www.w3.org/Graphics/SVG/1.1/DTD/svg11.dtd">
<!-- Generated by graphviz version 2.40.1 (20161225.0304)
 -->
<!-- Title: city Pages: 1 -->
<svg width="569pt" height="929pt"
 viewBox="0.00 0.00 568.50 929.00" xmlns="http://www.w3.org/2000/svg" xmlns:xlink="http://www.w3.org/1999/xlink">
<g id="graph0" class="graph" transform="scale(1 1) rotate(0) translate(4 925)">
<title>city</title>
<polygon fill="#ffffff" stroke="transparent" points="-4,4 -4,-925 564.5,-925 564.5,4 -4,4"/>
<!-- city -->
<g id="node1" class="node">
<title>city</title>
<polygon fill="#efefef" stroke="transparent" points="300,-412.5 300,-447.5 515,-447.5 515,-412.5 300,-412.5"/>
<polygon fill="none" stroke="#000000" points="300,-412.5 300,-447.5 515,-447.5 515,-412.5 300,-412.5"/>
<text text-anchor="start" x="345.3749" y="-425.3" font-family="Arial Bold" font-size="18.00" fill="#000000">city</text>
<text text-anchor="start" x="372.3713" y="-425.3" font-family="Arial" font-size="14.00" fill="#000000"> </text>
<text text-anchor="start" x="376.2619" y="-425.3" font-family="Arial" font-size="14.00" fill="#666666">[BASE TABLE]</text>
<polygon fill="none" stroke="#000000" points="300,-382.5 300,-412.5 515,-412.5 515,-382.5 300,-382.5"/>
<text text-anchor="start" x="307" y="-393.9" font-family="Arial" font-size="14.00" fill="#000000">city_id </text>
<text text-anchor="start" x="350.5596" y="-393.9" font-family="Arial" font-size="14.00" fill="#666666">[smallint(5) unsigned]</text>
<polygon fill="none" stroke="#000000" points="300,-352.5 300,-382.5 515,-382.5 515,-352.5 300,-352.5"/>
<text text-anchor="start" x="307" y="-363.9" font-family="Arial" font-size="14.00" fill="#000000">city </text>
<text text-anchor="start" x="331.8878" y="-363.9" font-family="Arial" font-size="14.00" fill="#666666">[varchar(50)]</text>
<polygon fill="none" stroke="#000000" points="300,-322.5 300,-352.5 515,-352.5 515,-322.5 300,-322.5"/>
<text text-anchor="start" x="306.7623" y="-333.9" font-family="Arial" font-size="14.00" fill="#000000">country_id </text>
<text text-anchor="start" x="375.2237" y="-333.9" font-family="Arial" font-size="14.00" fill="#666666">[smallint(5) unsigned]</text>
<polygon fill="none" stroke="#000000" points="300,-292.5 300,-322.5 515,-322.5 515,-292.5 300,-292.5"/>
<text text-anchor="start" x="307" y="-303.9" font-family="Arial" font-size="14.00" fill="#000000">last_update </text>
<text text-anchor="start" x="383.2566" y="-303.9" font-family="Arial" font-size="14.00" fill="#666666">[timestamp]</text>
<polygon fill="none" stroke="#000000" stroke-width="3" points="298,-291.5 298,-449.5 516,-449.5 516,-291.5 298,-291.5"/>
</g>
<!-- country -->
<g id="node3" class="node">
<title>country</title>
<polygon fill="#efefef" stroke="transparent" points="300,-132.5 300,-167.5 515,-167.5 515,-132.5 300,-132.5"/>
<polygon fill="none" stroke="#000000" points="300,-132.5 300,-167.5 515,-167.5 515,-132.5 300,-132.5"/>
<text text-anchor="start" x="329.3666" y="-145.3" font-family="Arial Bold" font-size="18.00" fill="#000000">country</text>
<text text-anchor="start" x="388.3796" y="-145.3" font-family="Arial" font-size="14.00" fill="#000000"> </text>
<text text-anchor="start" x="392.2702" y="-145.3" font-family="Arial" font-size="14.00" fill="#666666">[BASE TABLE]</text>
<polygon fill="none" stroke="#000000" points="300,-102.5 300,-132.5 515,-132.5 515,-102.5 300,-102.5"/>
<text text-anchor="start" x="306.7623" y="-113.9" font-family="Arial" font-size="14.00" fill="#000000">country_id </text>
<text text-anchor="start" x="375.2237" y="-113.9" font-family="Arial" font-size="14.00" fill="#666666">[smallint(5) unsigned]</text>
<polygon fill="none" stroke="#000000" points="300,-72.5 300,-102.5 515,-102.5 515,-72.5 300,-72.5"/>
<text text-anchor="start" x="307" y="-83.9" font-family="Arial" font-size="14.00" fill="#000000">country </text>
<text text-anchor="start" x="356.7896" y="-83.9" font-family="Arial" font-size="14.00" fill="#666666">[varchar(50)]</text>
<polygon fill="none" stroke="#000000" points="300,-42.5 300,-72.5 515,-72.5 515,-42.5 300,-42.5"/>
<text text-anchor="start" x="307" y="-53.9" font-family="Arial" font-size="14.00" fill="#000000">last_update </text>
<text text-anchor="start" x="383.2566" y="-53.9" font-family="Arial" font-size="14.00" fill="#666666">[timestamp]</text>
</g>
<!-- city&#45;&gt;country -->
<g id="edge2" class="edge">
<title>city:country_id&#45;&gt;country:country_id</title>
<path fill="none" stroke="#000000" d="M289.784,-336.6591C202.3499,-321.8888 205.7552,-117.5 300,-117.5"/>
<polygon fill="#000000" stroke="#000000" points="290.0337,-336.6795 299.6308,-341.9848 295.0169,-337.0898 300,-337.5 300,-337.5 300,-337.5 295.0169,-337.0898 300.3692,-333.0152 290.0337,-336.6795 290.0337,-336.6795"/>
<text text-anchor="start" x="6.935" y="-347.5" font-family="Arial" font-size="10.00" fill="#000000">FOREIGN KEY (country_id) REFERENCES country (country_id)</text>
</g>
<!-- address -->
<g id="node2" class="node">
<title>address</title>
<polygon fill="#efefef" stroke="transparent" points="298,-842.5 298,-877.5 517,-877.5 517,-842.5 298,-842.5"/>
<polygon fill="none" stroke="#000000" points="298,-842.5 298,-877.5 517,-877.5 517,-842.5 298,-842.5"/>
<text text-anchor="start" x="326.8646" y="-855.3" font-family="Arial Bold" font-size="18.00" fill="#000000">address</text>
<text text-anchor="start" x="390.8816" y="-855.3" font-family="Arial" font-size="14.00" fill="#000000"> </text>
<text text-anchor="start" x="394.7722" y="-855.3" font-family="Arial" font-size="14.00" fill="#666666">[BASE TABLE]</text>
<polygon fill="none" stroke="#000000" points="298,-812.5 298,-842.5 517,-842.5 517,-812.5 298,-812.5"/>
<text text-anchor="start" x="304.8163" y="-823.9" font-family="Arial" font-size="14.00" fill="#000000">address_id </text>
<text text-anchor="start" x="377.1697" y="-823.9" font-family="Arial" font-size="14.00" fill="#666666">[smallint(5) unsigned]</text>
<polygon fill="none" stroke="#000000" points="298,-782.5 298,-812.5 517,-812.5 517,-782.5 298,-782.5"/>
<text text-anchor="start" x="305" y="-793.9" font-family="Arial" font-size="14.00" fill="#000000">address </text>
<text text-anchor="start" x="358.6816" y="-793.9" font-family="Arial" font-size="14.00" fill="#666666">[varchar(50)]</text>
<polygon fill="none" stroke="#000000" points="298,-752.5 298,-782.5 517,-782.5 517,-752.5 298,-752.5"/>
<text text-anchor="start" x="305" y="-763.9" font-family="Arial" font-size="14.00" fill="#000000">address2 </text>
<text text-anchor="start" x="366.4642" y="-763.9" font-family="Arial" font-size="14.00" fill="#666666">[varchar(50)]</text>
<polygon fill="none" stroke="#000000" points="298,-722.5 298,-752.5 517,-752.5 517,-722.5 298,-722.5"/>
<text text-anchor="start" x="305" y="-733.9" font-family="Arial" font-size="14.00" fill="#000000">district </text>
<text text-anchor="start" x="349.3282" y="-733.9" font-family="Arial" font-size="14.00" fill="#666666">[varchar(20)]</text>
<polygon fill="none" stroke="#000000" points="298,-692.5 298,-722.5 517,-722.5 517,-692.5 298,-692.5"/>
<text text-anchor="start" x="305" y="-703.9" font-family="Arial" font-size="14.00" fill="#000000">city_id </text>
<text text-anchor="start" x="348.5596" y="-703.9" font-family="Arial" font-size="14.00" fill="#666666">[smallint(5) unsigned]</text>
<polygon fill="none" stroke="#000000" points="298,-662.5 298,-692.5 517,-692.5 517,-662.5 298,-662.5"/>
<text text-anchor="start" x="305" y="-673.9" font-family="Arial" font-size="14.00" fill="#000000">postal_code </text>
<text text-anchor="start" x="384.366" y="-673.9" font-family="Arial" font-size="14.00" fill="#666666">[varchar(10)]</text>
<polygon fill="none" stroke="#000000" points="298,-632.5 298,-662.5 517,-662.5 517,-632.5 298,-632.5"/>
<text text-anchor="start" x="305" y="-643.9" font-family="Arial" font-size="14.00" fill="#000000">phone </text>
<text text-anchor="start" x="347.8036" y="-643.9" font-family="Arial" font-size="14.00" fill="#666666">[varchar(20)]</text>
<polygon fill="none" stroke="#000000" points="298,-602.5 298,-632.5 517,-632.5 517,-602.5 298,-602.5"/>
<text text-anchor="start" x="305" y="-613.9" font-family="Arial" font-size="14.00" fill="#000000">location </text>
<text text-anchor="start" x="357.1248" y="-613.9" font-family="Arial" font-size="14.00" fill="#666666">[geometry]</text>
<polygon fill="none" stroke="#000000" points="298,-572.5 298,-602.5 517,-602.5 517,-572.5 298,-572.5"/>
<text text-anchor="start" x="305" y="-583.9" font-family="Arial" font-size="14.00" fill="#000000">last_update </text>
<text text-anchor="start" x="381.2566" y="-583.9" font-family="Arial" font-size="14.00" fill="#666666">[timestamp]</text>
</g>
<!-- address&#45;&gt;city -->
<g id="edge1" class="edge">
<title>address:city_id&#45;&gt;city:city_id</title>
<path fill="none" stroke="#000000" d="M288.0529,-705.183C229.4853,-676.815 234.608,-397.5 300,-397.5"/>
<polygon fill="#000000" stroke="#000000" points="288.2607,-705.2313 296.9791,-711.8827 293.1304,-706.3657 298,-707.5 298,-707.5 298,-707.5 293.1304,-706.3657 299.0209,-703.1173 288.2607,-705.2313 288.2607,-705.2313"/>
<text text-anchor="start" x="58.6155" y="-717.5" font-family="Arial" font-size="10.00" fill="#000000">FOREIGN KEY (city_id) REFERENCES city (city_id)</text>
</g>
</g>
</svg>
