<?xml version="1.0" encoding="UTF-8" standalone="no"?>
<!DOCTYPE svg PUBLIC "-//W3C//DTD SVG 1.1//EN"
 "http://www.w3.org/Graphics/SVG/1.1/DTD/svg11.dtd">
<!-- Generated by graphviz version 2.40.1 (20161225.0304)
 -->
<!-- Title: country Pages: 1 -->
<svg width="569pt" height="502pt"
 viewBox="0.00 0.00 568.50 502.00" xmlns="http://www.w3.org/2000/svg" xmlns:xlink="http://www.w3.org/1999/xlink">
<g id="graph0" class="graph" transform="scale(1 1) rotate(0) translate(4 498)">
<title>country</title>
<polygon fill="#ffffff" stroke="transparent" points="-4,4 -4,-498 564.5,-498 564.5,4 -4,4"/>
<!-- country -->
<g id="node1" class="node">
<title>country</title>
<polygon fill="#efefef" stroke="transparent" points="300,-135.5 300,-170.5 515,-170.5 515,-135.5 300,-135.5"/>
<polygon fill="none" stroke="#000000" points="300,-135.5 300,-170.5 515,-170.5 515,-135.5 300,-135.5"/>
<text text-anchor="start" x="329.3666" y="-148.3" font-family="Arial Bold" font-size="18.00" fill="#000000">country</text>
<text text-anchor="start" x="388.3796" y="-148.3" font-family="Arial" font-size="14.00" fill="#000000"> </text>
<text text-anchor="start" x="392.2702" y="-148.3" font-family="Arial" font-size="14.00" fill="#666666">[BASE TABLE]</text>
<polygon fill="none" stroke="#000000" points="300,-105.5 300,-135.5 515,-135.5 515,-105.5 300,-105.5"/>
<text text-anchor="start" x="306.7623" y="-116.9" font-family="Arial" font-size="14.00" fill="#000000">country_id </text>
<text text-anchor="start" x="375.2237" y="-116.9" font-family="Arial" font-size="14.00" fill="#666666">[smallint(5) unsigned]</text>
<polygon fill="none" stroke="#000000" points="300,-75.5 300,-105.5 515,-105.5 515,-75.5 300,-75.5"/>
<text text-anchor="start" x="307" y="-86.9" font-family="Arial" font-size="14.00" fill="#000000">country </text>
<text text-anchor="start" x="356.7896" y="-86.9" font-family="Arial" font-size="14.00" fill="#666666">[varchar(50)]</text>
<polygon fill="none" stroke="#000000" points="300,-45.5 300,-75.5 515,-75.5 515,-45.5 300,-45.5"/>
<text text-anchor="start" x="307" y="-56.9" font-family="Arial" font-size="14.00" fill="#000000">last_update </text>
<text text-anchor="start" x="383.2566" y="-56.9" font-family="Arial" font-size="14.00" fill="#666666">[timestamp]</text>
<polygon fill="none" stroke="#000000" stroke-width="3" points="298,-44.5 298,-172.5 516,-172.5 516,-44.5 298,-44.5"/>
</g>
<!-- city -->
<g id="node2" class="node">
<title>city</title>
<polygon fill="#efefef" stroke="transparent" points="300,-415.5 300,-450.5 515,-450.5 515,-415.5 300,-415.5"/>
<polygon fill="none" stroke="#000000" points="300,-415.5 300,-450.5 515,-450.5 515,-415.5 300,-415.5"/>
<text text-anchor="start" x="345.3749" y="-428.3" font-family="Arial Bold" font-size="18.00" fill="#000000">city</text>
<text text-anchor="start" x="372.3713" y="-428.3" font-family="Arial" font-size="14.00" fill="#000000"> </text>
<text text-anchor="start" x="376.2619" y="-428.3" font-family="Arial" font-size="14.00" fill="#666666">[BASE TABLE]</text>
<polygon fill="none" stroke="#000000" points="300,-385.5 300,-415.5 515,-415.5 515,-385.5 300,-385.5"/>
<text text-anchor="start" x="307" y="-396.9" font-family="Arial" font-size="14.00" fill="#000000">city_id </text>
<text text-anchor="start" x="350.5596" y="-396.9" font-family="Arial" font-size="14.00" fill="#666666">[smallint(5) unsigned]</text>
<polygon fill="none" stroke="#000000" points="300,-355.5 300,-385.5 515,-385.5 515,-355.5 300,-355.5"/>
<text text-anchor="start" x="307" y="-366.9" font-family="Arial" font-size="14.00" fill="#000000">city </text>
<text text-anchor="start" x="331.8878" y="-366.9" font-family="Arial" font-size="14.00" fill="#666666">[varchar(50)]</text>
<polygon fill="none" stroke="#000000" points="300,-325.5 300,-355.5 515,-355.5 515,-325.5 300,-325.5"/>
<text text-anchor="start" x="306.7623" y="-336.9" font-family="Arial" font-size="14.00" fill="#000000">country_id </text>
<text text-anchor="start" x="375.2237" y="-336.9" font-family="Arial" font-size="14.00" fill="#666666">[smallint(5) unsigned]</text>
<polygon fill="none" stroke="#000000" points="300,-295.5 300,-325.5 515,-325.5 515,-295.5 300,-295.5"/>
<text text-anchor="start" x="307" y="-306.9" font-family="Arial" font-size="14.00" fill="#000000">last_update </text>
<text text-anchor="start" x="383.2566" y="-306.9" font-family="Arial" font-size="14.00" fill="#666666">[timestamp]</text>
</g>
<!-- city&#45;&gt;country -->
<g id="edge1" class="edge">
<title>city:country_id&#45;&gt;country:country_id</title>
<path fill="none" stroke="#000000" d="M289.784,-339.6591C202.3499,-324.8888 205.7552,-120.5 300,-120.5"/>
<polygon fill="#000000" stroke="#000000" points="290.0337,-339.6795 299.6308,-344.9848 295.0169,-340.0898 300,-340.5 300,-340.5 300,-340.5 295.0169,-340.0898 300.3692,-336.0152 290.0337,-339.6795 290.0337,-339.6795"/>
<text text-anchor="start" x="6.935" y="-350.5" font-family="Arial" font-size="10.00" fill="#000000">FOREIGN KEY (country_id) REFERENCES country (country_id)</text>
</g>
</g>
</svg>
