<?xml version="1.0" encoding="UTF-8" standalone="no"?>
<!DOCTYPE svg PUBLIC "-//W3C//DTD SVG 1.1//EN"
 "http://www.w3.org/Graphics/SVG/1.1/DTD/svg11.dtd">
<!-- Generated by graphviz version 2.40.1 (20161225.0304)
 -->
<!-- Title: customer Pages: 1 -->
<svg width="811pt" height="1199pt"
 viewBox="0.00 0.00 811.00 1199.00" xmlns="http://www.w3.org/2000/svg" xmlns:xlink="http://www.w3.org/1999/xlink">
<g id="graph0" class="graph" transform="scale(1 1) rotate(0) translate(4 1195)">
<title>customer</title>
<polygon fill="#ffffff" stroke="transparent" points="-4,4 -4,-1195 807,-1195 807,4 -4,4"/>
<!-- customer -->
<g id="node1" class="node">
<title>customer</title>
<polygon fill="#efefef" stroke="transparent" points="268,-742.5 268,-777.5 495,-777.5 495,-742.5 268,-742.5"/>
<polygon fill="none" stroke="#000000" points="268,-742.5 268,-777.5 495,-777.5 495,-742.5 268,-742.5"/>
<text text-anchor="start" x="295.8705" y="-755.3" font-family="Arial Bold" font-size="18.00" fill="#000000">customer</text>
<text text-anchor="start" x="369.8757" y="-755.3" font-family="Arial" font-size="14.00" fill="#000000"> </text>
<text text-anchor="start" x="373.7663" y="-755.3" font-family="Arial" font-size="14.00" fill="#666666">[BASE TABLE]</text>
<polygon fill="none" stroke="#000000" points="268,-712.5 268,-742.5 495,-742.5 495,-712.5 268,-712.5"/>
<text text-anchor="start" x="274.932" y="-723.9" font-family="Arial" font-size="14.00" fill="#000000">customer_id </text>
<text text-anchor="start" x="355.054" y="-723.9" font-family="Arial" font-size="14.00" fill="#666666">[smallint(5) unsigned]</text>
<polygon fill="none" stroke="#000000" points="268,-682.5 268,-712.5 495,-712.5 495,-682.5 268,-682.5"/>
<text text-anchor="start" x="275" y="-693.9" font-family="Arial" font-size="14.00" fill="#000000">store_id </text>
<text text-anchor="start" x="328.6788" y="-693.9" font-family="Arial" font-size="14.00" fill="#666666">[tinyint(3) unsigned]</text>
<polygon fill="none" stroke="#000000" points="268,-652.5 268,-682.5 495,-682.5 495,-652.5 268,-652.5"/>
<text text-anchor="start" x="275" y="-663.9" font-family="Arial" font-size="14.00" fill="#000000">first_name </text>
<text text-anchor="start" x="344.23" y="-663.9" font-family="Arial" font-size="14.00" fill="#666666">[varchar(45)]</text>
<polygon fill="none" stroke="#000000" points="268,-622.5 268,-652.5 495,-652.5 495,-622.5 268,-622.5"/>
<text text-anchor="start" x="275" y="-633.9" font-family="Arial" font-size="14.00" fill="#000000">last_name </text>
<text text-anchor="start" x="343.4614" y="-633.9" font-family="Arial" font-size="14.00" fill="#666666">[varchar(45)]</text>
<polygon fill="none" stroke="#000000" points="268,-592.5 268,-622.5 495,-622.5 495,-592.5 268,-592.5"/>
<text text-anchor="start" x="275" y="-603.9" font-family="Arial" font-size="14.00" fill="#000000">email </text>
<text text-anchor="start" x="312.3296" y="-603.9" font-family="Arial" font-size="14.00" fill="#666666">[varchar(50)]</text>
<polygon fill="none" stroke="#000000" points="268,-562.5 268,-592.5 495,-592.5 495,-562.5 268,-562.5"/>
<text text-anchor="start" x="275" y="-573.9" font-family="Arial" font-size="14.00" fill="#000000">address_id </text>
<text text-anchor="start" x="347.3534" y="-573.9" font-family="Arial" font-size="14.00" fill="#666666">[smallint(5) unsigned]</text>
<polygon fill="none" stroke="#000000" points="268,-532.5 268,-562.5 495,-562.5 495,-532.5 268,-532.5"/>
<text text-anchor="start" x="275" y="-543.9" font-family="Arial" font-size="14.00" fill="#000000">active </text>
<text text-anchor="start" x="315.453" y="-543.9" font-family="Arial" font-size="14.00" fill="#666666">[tinyint(1)]</text>
<polygon fill="none" stroke="#000000" points="268,-502.5 268,-532.5 495,-532.5 495,-502.5 268,-502.5"/>
<text text-anchor="start" x="275" y="-513.9" font-family="Arial" font-size="14.00" fill="#000000">create_date </text>
<text text-anchor="start" x="352.8106" y="-513.9" font-family="Arial" font-size="14.00" fill="#666666">[datetime]</text>
<polygon fill="none" stroke="#000000" points="268,-472.5 268,-502.5 495,-502.5 495,-472.5 268,-472.5"/>
<text text-anchor="start" x="275" y="-483.9" font-family="Arial" font-size="14.00" fill="#000000">last_update </text>
<text text-anchor="start" x="351.2566" y="-483.9" font-family="Arial" font-size="14.00" fill="#666666">[timestamp]</text>
<polygon fill="none" stroke="#000000" stroke-width="3" points="266,-471.5 266,-779.5 496,-779.5 496,-471.5 266,-471.5"/>
</g>
<!-- store -->
<g id="node4" class="node">
<title>store</title>
<polygon fill="#efefef" stroke="transparent" points="89,-237.5 89,-272.5 337,-272.5 337,-237.5 89,-237.5"/>
<polygon fill="none" stroke="#000000" points="89,-237.5 89,-272.5 337,-272.5 337,-237.5 89,-237.5"/>
<text text-anchor="start" x="144.3697" y="-250.3" font-family="Arial Bold" font-size="18.00" fill="#000000">store</text>
<text text-anchor="start" x="184.3765" y="-250.3" font-family="Arial" font-size="14.00" fill="#000000"> </text>
<text text-anchor="start" x="188.2671" y="-250.3" font-family="Arial" font-size="14.00" fill="#666666">[BASE TABLE]</text>
<polygon fill="none" stroke="#000000" points="89,-207.5 89,-237.5 337,-237.5 337,-207.5 89,-207.5"/>
<text text-anchor="start" x="96" y="-218.9" font-family="Arial" font-size="14.00" fill="#000000">store_id </text>
<text text-anchor="start" x="149.6788" y="-218.9" font-family="Arial" font-size="14.00" fill="#666666">[tinyint(3) unsigned]</text>
<polygon fill="none" stroke="#000000" points="89,-177.5 89,-207.5 337,-207.5 337,-177.5 89,-177.5"/>
<text text-anchor="start" x="95.9145" y="-188.9" font-family="Arial" font-size="14.00" fill="#000000">manager_staff_id </text>
<text text-anchor="start" x="207.9481" y="-188.9" font-family="Arial" font-size="14.00" fill="#666666">[tinyint(3) unsigned]</text>
<polygon fill="none" stroke="#000000" points="89,-147.5 89,-177.5 337,-177.5 337,-147.5 89,-147.5"/>
<text text-anchor="start" x="96" y="-158.9" font-family="Arial" font-size="14.00" fill="#000000">address_id </text>
<text text-anchor="start" x="168.3534" y="-158.9" font-family="Arial" font-size="14.00" fill="#666666">[smallint(5) unsigned]</text>
<polygon fill="none" stroke="#000000" points="89,-117.5 89,-147.5 337,-147.5 337,-117.5 89,-117.5"/>
<text text-anchor="start" x="96" y="-128.9" font-family="Arial" font-size="14.00" fill="#000000">last_update </text>
<text text-anchor="start" x="172.2566" y="-128.9" font-family="Arial" font-size="14.00" fill="#666666">[timestamp]</text>
</g>
<!-- customer&#45;&gt;store -->
<g id="edge3" class="edge">
<title>customer:store_id&#45;&gt;store:store_id</title>
<path fill="none" stroke="#000000" d="M257.9612,-697.106C152.8418,-688.4578 235.9643,-539.2169 268,-427 283.9459,-371.1435 321.0541,-371.8565 337,-316 348.4075,-276.0409 378.5556,-222.5 337,-222.5"/>
<polygon fill="#000000" stroke="#000000" points="258.0077,-697.1078 267.8235,-701.9965 263.0038,-697.3039 268,-697.5 268,-697.5 268,-697.5 263.0038,-697.3039 268.1765,-693.0035 258.0077,-697.1078 258.0077,-697.1078"/>
<text text-anchor="start" x="6.7735" y="-707.5" font-family="Arial" font-size="10.00" fill="#000000">FOREIGN KEY (store_id) REFERENCES store (store_id)</text>
</g>
<!-- address -->
<g id="node5" class="node">
<title>address</title>
<polygon fill="#efefef" stroke="transparent" points="442,-312.5 442,-347.5 661,-347.5 661,-312.5 442,-312.5"/>
<polygon fill="none" stroke="#000000" points="442,-312.5 442,-347.5 661,-347.5 661,-312.5 442,-312.5"/>
<text text-anchor="start" x="470.8646" y="-325.3" font-family="Arial Bold" font-size="18.00" fill="#000000">address</text>
<text text-anchor="start" x="534.8816" y="-325.3" font-family="Arial" font-size="14.00" fill="#000000"> </text>
<text text-anchor="start" x="538.7722" y="-325.3" font-family="Arial" font-size="14.00" fill="#666666">[BASE TABLE]</text>
<polygon fill="none" stroke="#000000" points="442,-282.5 442,-312.5 661,-312.5 661,-282.5 442,-282.5"/>
<text text-anchor="start" x="448.8163" y="-293.9" font-family="Arial" font-size="14.00" fill="#000000">address_id </text>
<text text-anchor="start" x="521.1697" y="-293.9" font-family="Arial" font-size="14.00" fill="#666666">[smallint(5) unsigned]</text>
<polygon fill="none" stroke="#000000" points="442,-252.5 442,-282.5 661,-282.5 661,-252.5 442,-252.5"/>
<text text-anchor="start" x="449" y="-263.9" font-family="Arial" font-size="14.00" fill="#000000">address </text>
<text text-anchor="start" x="502.6816" y="-263.9" font-family="Arial" font-size="14.00" fill="#666666">[varchar(50)]</text>
<polygon fill="none" stroke="#000000" points="442,-222.5 442,-252.5 661,-252.5 661,-222.5 442,-222.5"/>
<text text-anchor="start" x="449" y="-233.9" font-family="Arial" font-size="14.00" fill="#000000">address2 </text>
<text text-anchor="start" x="510.4642" y="-233.9" font-family="Arial" font-size="14.00" fill="#666666">[varchar(50)]</text>
<polygon fill="none" stroke="#000000" points="442,-192.5 442,-222.5 661,-222.5 661,-192.5 442,-192.5"/>
<text text-anchor="start" x="449" y="-203.9" font-family="Arial" font-size="14.00" fill="#000000">district </text>
<text text-anchor="start" x="493.3282" y="-203.9" font-family="Arial" font-size="14.00" fill="#666666">[varchar(20)]</text>
<polygon fill="none" stroke="#000000" points="442,-162.5 442,-192.5 661,-192.5 661,-162.5 442,-162.5"/>
<text text-anchor="start" x="449" y="-173.9" font-family="Arial" font-size="14.00" fill="#000000">city_id </text>
<text text-anchor="start" x="492.5596" y="-173.9" font-family="Arial" font-size="14.00" fill="#666666">[smallint(5) unsigned]</text>
<polygon fill="none" stroke="#000000" points="442,-132.5 442,-162.5 661,-162.5 661,-132.5 442,-132.5"/>
<text text-anchor="start" x="449" y="-143.9" font-family="Arial" font-size="14.00" fill="#000000">postal_code </text>
<text text-anchor="start" x="528.366" y="-143.9" font-family="Arial" font-size="14.00" fill="#666666">[varchar(10)]</text>
<polygon fill="none" stroke="#000000" points="442,-102.5 442,-132.5 661,-132.5 661,-102.5 442,-102.5"/>
<text text-anchor="start" x="449" y="-113.9" font-family="Arial" font-size="14.00" fill="#000000">phone </text>
<text text-anchor="start" x="491.8036" y="-113.9" font-family="Arial" font-size="14.00" fill="#666666">[varchar(20)]</text>
<polygon fill="none" stroke="#000000" points="442,-72.5 442,-102.5 661,-102.5 661,-72.5 442,-72.5"/>
<text text-anchor="start" x="449" y="-83.9" font-family="Arial" font-size="14.00" fill="#000000">location </text>
<text text-anchor="start" x="501.1248" y="-83.9" font-family="Arial" font-size="14.00" fill="#666666">[geometry]</text>
<polygon fill="none" stroke="#000000" points="442,-42.5 442,-72.5 661,-72.5 661,-42.5 442,-42.5"/>
<text text-anchor="start" x="449" y="-53.9" font-family="Arial" font-size="14.00" fill="#000000">last_update </text>
<text text-anchor="start" x="525.2566" y="-53.9" font-family="Arial" font-size="14.00" fill="#666666">[timestamp]</text>
</g>
<!-- customer&#45;&gt;address -->
<g id="edge4" class="edge">
<title>customer:address_id&#45;&gt;address:address_id</title>
<path fill="none" stroke="#000000" d="M505.2217,-577.4344C797.8685,-573.6003 448.2663,-402.8315 442,-391 422.5505,-354.277 400.4444,-297.5 442,-297.5"/>
<polygon fill="#000000" stroke="#000000" points="504.9998,-577.4358 494.9711,-573.0001 499.9999,-577.4679 495,-577.5 495,-577.5 495,-577.5 499.9999,-577.4679 495.0289,-581.9999 504.9998,-577.4358 504.9998,-577.4358"/>
<text text-anchor="start" x="501.765" y="-587.5" font-family="Arial" font-size="10.00" fill="#000000">FOREIGN KEY (address_id) REFERENCES address (address_id)</text>
</g>
<!-- payment -->
<g id="node2" class="node">
<title>payment</title>
<polygon fill="#efefef" stroke="transparent" points="99,-1112.5 99,-1147.5 326,-1147.5 326,-1112.5 99,-1112.5"/>
<polygon fill="none" stroke="#000000" points="99,-1112.5 99,-1147.5 326,-1147.5 326,-1112.5 99,-1112.5"/>
<text text-anchor="start" x="129.3635" y="-1125.3" font-family="Arial Bold" font-size="18.00" fill="#000000">payment</text>
<text text-anchor="start" x="198.3827" y="-1125.3" font-family="Arial" font-size="14.00" fill="#000000"> </text>
<text text-anchor="start" x="202.2733" y="-1125.3" font-family="Arial" font-size="14.00" fill="#666666">[BASE TABLE]</text>
<polygon fill="none" stroke="#000000" points="99,-1082.5 99,-1112.5 326,-1112.5 326,-1082.5 99,-1082.5"/>
<text text-anchor="start" x="106" y="-1093.9" font-family="Arial" font-size="14.00" fill="#000000">payment_id </text>
<text text-anchor="start" x="182.244" y="-1093.9" font-family="Arial" font-size="14.00" fill="#666666">[smallint(5) unsigned]</text>
<polygon fill="none" stroke="#000000" points="99,-1052.5 99,-1082.5 326,-1082.5 326,-1052.5 99,-1052.5"/>
<text text-anchor="start" x="105.932" y="-1063.9" font-family="Arial" font-size="14.00" fill="#000000">customer_id </text>
<text text-anchor="start" x="186.054" y="-1063.9" font-family="Arial" font-size="14.00" fill="#666666">[smallint(5) unsigned]</text>
<polygon fill="none" stroke="#000000" points="99,-1022.5 99,-1052.5 326,-1052.5 326,-1022.5 99,-1022.5"/>
<text text-anchor="start" x="106" y="-1033.9" font-family="Arial" font-size="14.00" fill="#000000">staff_id </text>
<text text-anchor="start" x="155.0168" y="-1033.9" font-family="Arial" font-size="14.00" fill="#666666">[tinyint(3) unsigned]</text>
<polygon fill="none" stroke="#000000" points="99,-992.5 99,-1022.5 326,-1022.5 326,-992.5 99,-992.5"/>
<text text-anchor="start" x="106" y="-1003.9" font-family="Arial" font-size="14.00" fill="#000000">rental_id </text>
<text text-anchor="start" x="163.568" y="-1003.9" font-family="Arial" font-size="14.00" fill="#666666">[int(11)]</text>
<polygon fill="none" stroke="#000000" points="99,-962.5 99,-992.5 326,-992.5 326,-962.5 99,-962.5"/>
<text text-anchor="start" x="106" y="-973.9" font-family="Arial" font-size="14.00" fill="#000000">amount </text>
<text text-anchor="start" x="156.5722" y="-973.9" font-family="Arial" font-size="14.00" fill="#666666">[decimal(5,2)]</text>
<polygon fill="none" stroke="#000000" points="99,-932.5 99,-962.5 326,-962.5 326,-932.5 99,-932.5"/>
<text text-anchor="start" x="106" y="-943.9" font-family="Arial" font-size="14.00" fill="#000000">payment_date </text>
<text text-anchor="start" x="198.5932" y="-943.9" font-family="Arial" font-size="14.00" fill="#666666">[datetime]</text>
<polygon fill="none" stroke="#000000" points="99,-902.5 99,-932.5 326,-932.5 326,-902.5 99,-902.5"/>
<text text-anchor="start" x="106" y="-913.9" font-family="Arial" font-size="14.00" fill="#000000">last_update </text>
<text text-anchor="start" x="182.2566" y="-913.9" font-family="Arial" font-size="14.00" fill="#666666">[timestamp]</text>
</g>
<!-- payment&#45;&gt;customer -->
<g id="edge1" class="edge">
<title>payment:customer_id&#45;&gt;customer:customer_id</title>
<path fill="none" stroke="#000000" d="M335.9777,-1064.2869C368.2322,-1040.9221 346.577,-896.9904 326,-860 311.2511,-833.4865 282.7489,-850.5135 268,-824 247.1506,-786.5199 225.1111,-727.5 268,-727.5"/>
<polygon fill="#000000" stroke="#000000" points="335.5186,-1064.4347 324.6206,-1063.2166 330.7593,-1065.9673 326,-1067.5 326,-1067.5 326,-1067.5 330.7593,-1065.9673 327.3794,-1071.7834 335.5186,-1064.4347 335.5186,-1064.4347"/>
<text text-anchor="start" x="8.4415" y="-1077.5" font-family="Arial" font-size="10.00" fill="#000000">FOREIGN KEY (customer_id) REFERENCES customer (customer_id)</text>
</g>
<!-- rental -->
<g id="node3" class="node">
<title>rental</title>
<polygon fill="#efefef" stroke="transparent" points="430,-1112.5 430,-1147.5 673,-1147.5 673,-1112.5 430,-1112.5"/>
<polygon fill="none" stroke="#000000" points="430,-1112.5 430,-1147.5 673,-1147.5 673,-1112.5 430,-1112.5"/>
<text text-anchor="start" x="480.3695" y="-1125.3" font-family="Arial Bold" font-size="18.00" fill="#000000">rental</text>
<text text-anchor="start" x="525.3767" y="-1125.3" font-family="Arial" font-size="14.00" fill="#000000"> </text>
<text text-anchor="start" x="529.2673" y="-1125.3" font-family="Arial" font-size="14.00" fill="#666666">[BASE TABLE]</text>
<polygon fill="none" stroke="#000000" points="430,-1082.5 430,-1112.5 673,-1112.5 673,-1082.5 430,-1082.5"/>
<text text-anchor="start" x="437" y="-1093.9" font-family="Arial" font-size="14.00" fill="#000000">rental_id </text>
<text text-anchor="start" x="494.568" y="-1093.9" font-family="Arial" font-size="14.00" fill="#666666">[int(11)]</text>
<polygon fill="none" stroke="#000000" points="430,-1052.5 430,-1082.5 673,-1082.5 673,-1052.5 430,-1052.5"/>
<text text-anchor="start" x="437" y="-1063.9" font-family="Arial" font-size="14.00" fill="#000000">rental_date </text>
<text text-anchor="start" x="510.9172" y="-1063.9" font-family="Arial" font-size="14.00" fill="#666666">[datetime]</text>
<polygon fill="none" stroke="#000000" points="430,-1022.5 430,-1052.5 673,-1052.5 673,-1022.5 430,-1022.5"/>
<text text-anchor="start" x="436.7581" y="-1033.9" font-family="Arial" font-size="14.00" fill="#000000">inventory_id </text>
<text text-anchor="start" x="516.1087" y="-1033.9" font-family="Arial" font-size="14.00" fill="#666666">[mediumint(8) unsigned]</text>
<polygon fill="none" stroke="#000000" points="430,-992.5 430,-1022.5 673,-1022.5 673,-992.5 430,-992.5"/>
<text text-anchor="start" x="437" y="-1003.9" font-family="Arial" font-size="14.00" fill="#000000">customer_id </text>
<text text-anchor="start" x="517.122" y="-1003.9" font-family="Arial" font-size="14.00" fill="#666666">[smallint(5) unsigned]</text>
<polygon fill="none" stroke="#000000" points="430,-962.5 430,-992.5 673,-992.5 673,-962.5 430,-962.5"/>
<text text-anchor="start" x="437" y="-973.9" font-family="Arial" font-size="14.00" fill="#000000">return_date </text>
<text text-anchor="start" x="512.4712" y="-973.9" font-family="Arial" font-size="14.00" fill="#666666">[datetime]</text>
<polygon fill="none" stroke="#000000" points="430,-932.5 430,-962.5 673,-962.5 673,-932.5 430,-932.5"/>
<text text-anchor="start" x="437" y="-943.9" font-family="Arial" font-size="14.00" fill="#000000">staff_id </text>
<text text-anchor="start" x="486.0168" y="-943.9" font-family="Arial" font-size="14.00" fill="#666666">[tinyint(3) unsigned]</text>
<polygon fill="none" stroke="#000000" points="430,-902.5 430,-932.5 673,-932.5 673,-902.5 430,-902.5"/>
<text text-anchor="start" x="437" y="-913.9" font-family="Arial" font-size="14.00" fill="#000000">last_update </text>
<text text-anchor="start" x="513.2566" y="-913.9" font-family="Arial" font-size="14.00" fill="#666666">[timestamp]</text>
</g>
<!-- rental&#45;&gt;customer -->
<g id="edge2" class="edge">
<title>rental:customer_id&#45;&gt;customer:customer_id</title>
<path fill="none" stroke="#000000" d="M419.7846,-1006.6468C368.1037,-997.2998 398.6031,-913.2797 430,-860 446.7659,-831.5487 478.2341,-852.4513 495,-824 516.7743,-787.0495 537.8889,-727.5 495,-727.5"/>
<polygon fill="#000000" stroke="#000000" points="420.0347,-1006.6676 429.6254,-1011.9844 425.0173,-1007.0838 430,-1007.5 430,-1007.5 430,-1007.5 425.0173,-1007.0838 430.3746,-1003.0156 420.0347,-1006.6676 420.0347,-1006.6676"/>
<text text-anchor="start" x="437.4415" y="-1017.5" font-family="Arial" font-size="10.00" fill="#000000">FOREIGN KEY (customer_id) REFERENCES customer (customer_id)</text>
</g>
</g>
</svg>
