<?xml version="1.0" encoding="UTF-8" standalone="no"?>
<!DOCTYPE svg PUBLIC "-//W3C//DTD SVG 1.1//EN"
 "http://www.w3.org/Graphics/SVG/1.1/DTD/svg11.dtd">
<!-- Generated by graphviz version 2.40.1 (20161225.0304)
 -->
<!-- Title: film_list Pages: 1 -->
<svg width="373pt" height="375pt"
 viewBox="0.00 0.00 373.00 375.00" xmlns="http://www.w3.org/2000/svg" xmlns:xlink="http://www.w3.org/1999/xlink">
<g id="graph0" class="graph" transform="scale(1 1) rotate(0) translate(4 371)">
<title>film_list</title>
<polygon fill="#ffffff" stroke="transparent" points="-4,4 -4,-371 369,-371 369,4 -4,4"/>
<!-- film_list -->
<g id="node1" class="node">
<title>film_list</title>
<polygon fill="#efefef" stroke="transparent" points="46.5,-285.5 46.5,-320.5 319.5,-320.5 319.5,-285.5 46.5,-285.5"/>
<polygon fill="none" stroke="#000000" points="46.5,-285.5 46.5,-320.5 319.5,-320.5 319.5,-285.5 46.5,-285.5"/>
<text text-anchor="start" x="129.2851" y="-298.3" font-family="Arial Bold" font-size="18.00" fill="#000000">film_list</text>
<text text-anchor="start" x="189.2647" y="-298.3" font-family="Arial" font-size="14.00" fill="#000000"> </text>
<text text-anchor="start" x="193.1553" y="-298.3" font-family="Arial" font-size="14.00" fill="#666666">[VIEW]</text>
<polygon fill="none" stroke="#000000" points="46.5,-255.5 46.5,-285.5 319.5,-285.5 319.5,-255.5 46.5,-255.5"/>
<text text-anchor="start" x="53.5" y="-266.9" font-family="Arial" font-size="14.00" fill="#000000">FID </text>
<text text-anchor="start" x="79.9404" y="-266.9" font-family="Arial" font-size="14.00" fill="#666666">[smallint(5) unsigned]</text>
<polygon fill="none" stroke="#000000" points="46.5,-225.5 46.5,-255.5 319.5,-255.5 319.5,-225.5 46.5,-225.5"/>
<text text-anchor="start" x="53.5" y="-236.9" font-family="Arial" font-size="14.00" fill="#000000">title </text>
<text text-anchor="start" x="79.1676" y="-236.9" font-family="Arial" font-size="14.00" fill="#666666">[varchar(128)]</text>
<polygon fill="none" stroke="#000000" points="46.5,-195.5 46.5,-225.5 319.5,-225.5 319.5,-195.5 46.5,-195.5"/>
<text text-anchor="start" x="53.5" y="-206.9" font-family="Arial" font-size="14.00" fill="#000000">description </text>
<text text-anchor="start" x="125.068" y="-206.9" font-family="Arial" font-size="14.00" fill="#666666">[text]</text>
<polygon fill="none" stroke="#000000" points="46.5,-165.5 46.5,-195.5 319.5,-195.5 319.5,-165.5 46.5,-165.5"/>
<text text-anchor="start" x="53.5" y="-176.9" font-family="Arial" font-size="14.00" fill="#000000">category </text>
<text text-anchor="start" x="111.0722" y="-176.9" font-family="Arial" font-size="14.00" fill="#666666">[varchar(25)]</text>
<polygon fill="none" stroke="#000000" points="46.5,-135.5 46.5,-165.5 319.5,-165.5 319.5,-135.5 46.5,-135.5"/>
<text text-anchor="start" x="53.5" y="-146.9" font-family="Arial" font-size="14.00" fill="#000000">price </text>
<text text-anchor="start" x="87.723" y="-146.9" font-family="Arial" font-size="14.00" fill="#666666">[decimal(4,2)]</text>
<polygon fill="none" stroke="#000000" points="46.5,-105.5 46.5,-135.5 319.5,-135.5 319.5,-105.5 46.5,-105.5"/>
<text text-anchor="start" x="53.5" y="-116.9" font-family="Arial" font-size="14.00" fill="#000000">length </text>
<text text-anchor="start" x="95.5182" y="-116.9" font-family="Arial" font-size="14.00" fill="#666666">[smallint(5) unsigned]</text>
<polygon fill="none" stroke="#000000" points="46.5,-75.5 46.5,-105.5 319.5,-105.5 319.5,-75.5 46.5,-75.5"/>
<text text-anchor="start" x="53.1941" y="-86.9" font-family="Arial" font-size="14.00" fill="#000000">rating </text>
<text text-anchor="start" x="92.0903" y="-86.9" font-family="Arial" font-size="14.00" fill="#666666">[enum(&#39;G&#39;,&#39;PG&#39;,&#39;PG&#45;13&#39;,&#39;R&#39;,&#39;NC&#45;17&#39;)]</text>
<polygon fill="none" stroke="#000000" points="46.5,-45.5 46.5,-75.5 319.5,-75.5 319.5,-45.5 46.5,-45.5"/>
<text text-anchor="start" x="53.5" y="-56.9" font-family="Arial" font-size="14.00" fill="#000000">actors </text>
<text text-anchor="start" x="95.507" y="-56.9" font-family="Arial" font-size="14.00" fill="#666666">[text]</text>
<polygon fill="none" stroke="#000000" stroke-width="3" points="44.5,-44.5 44.5,-322.5 320.5,-322.5 320.5,-44.5 44.5,-44.5"/>
</g>
</g>
</svg>
