<?xml version="1.0" encoding="UTF-8" standalone="no"?>
<!DOCTYPE svg PUBLIC "-//W3C//DTD SVG 1.1//EN"
 "http://www.w3.org/Graphics/SVG/1.1/DTD/svg11.dtd">
<!-- Generated by graphviz version 2.40.1 (20161225.0304)
 -->
<!-- Title: film_category Pages: 1 -->
<svg width="991pt" height="772pt"
 viewBox="0.00 0.00 990.50 772.00" xmlns="http://www.w3.org/2000/svg" xmlns:xlink="http://www.w3.org/1999/xlink">
<g id="graph0" class="graph" transform="scale(1 1) rotate(0) translate(4 768)">
<title>film_category</title>
<polygon fill="#ffffff" stroke="transparent" points="-4,4 -4,-768 986.5,-768 986.5,4 -4,4"/>
<!-- film_category -->
<g id="node1" class="node">
<title>film_category</title>
<polygon fill="#efefef" stroke="transparent" points="448.5,-682.5 448.5,-717.5 666.5,-717.5 666.5,-682.5 448.5,-682.5"/>
<polygon fill="none" stroke="#000000" points="448.5,-682.5 448.5,-717.5 666.5,-717.5 666.5,-682.5 448.5,-682.5"/>
<text text-anchor="start" x="455.369" y="-695.3" font-family="Arial Bold" font-size="18.00" fill="#000000">film_category</text>
<text text-anchor="start" x="562.3772" y="-695.3" font-family="Arial" font-size="14.00" fill="#000000"> </text>
<text text-anchor="start" x="566.2678" y="-695.3" font-family="Arial" font-size="14.00" fill="#666666">[BASE TABLE]</text>
<polygon fill="none" stroke="#000000" points="448.5,-652.5 448.5,-682.5 666.5,-682.5 666.5,-652.5 448.5,-652.5"/>
<text text-anchor="start" x="455.5" y="-663.9" font-family="Arial" font-size="14.00" fill="#000000">film_id </text>
<text text-anchor="start" x="499.8268" y="-663.9" font-family="Arial" font-size="14.00" fill="#666666">[smallint(5) unsigned]</text>
<polygon fill="none" stroke="#000000" points="448.5,-622.5 448.5,-652.5 666.5,-652.5 666.5,-622.5 448.5,-622.5"/>
<text text-anchor="start" x="455.5" y="-633.9" font-family="Arial" font-size="14.00" fill="#000000">category_id </text>
<text text-anchor="start" x="531.744" y="-633.9" font-family="Arial" font-size="14.00" fill="#666666">[tinyint(3) unsigned]</text>
<polygon fill="none" stroke="#000000" points="448.5,-592.5 448.5,-622.5 666.5,-622.5 666.5,-592.5 448.5,-592.5"/>
<text text-anchor="start" x="455.5" y="-603.9" font-family="Arial" font-size="14.00" fill="#000000">last_update </text>
<text text-anchor="start" x="531.7566" y="-603.9" font-family="Arial" font-size="14.00" fill="#666666">[timestamp]</text>
<polygon fill="none" stroke="#000000" stroke-width="3" points="447,-591.5 447,-719.5 668,-719.5 668,-591.5 447,-591.5"/>
</g>
<!-- film -->
<g id="node2" class="node">
<title>film</title>
<polygon fill="#efefef" stroke="transparent" points="43.5,-432.5 43.5,-467.5 588.5,-467.5 588.5,-432.5 43.5,-432.5"/>
<polygon fill="none" stroke="#000000" points="43.5,-432.5 43.5,-467.5 588.5,-467.5 588.5,-432.5 43.5,-432.5"/>
<text text-anchor="start" x="253.3817" y="-445.3" font-family="Arial Bold" font-size="18.00" fill="#000000">film</text>
<text text-anchor="start" x="281.3645" y="-445.3" font-family="Arial" font-size="14.00" fill="#000000"> </text>
<text text-anchor="start" x="285.2551" y="-445.3" font-family="Arial" font-size="14.00" fill="#666666">[BASE TABLE]</text>
<polygon fill="none" stroke="#000000" points="43.5,-402.5 43.5,-432.5 588.5,-432.5 588.5,-402.5 43.5,-402.5"/>
<text text-anchor="start" x="50.5" y="-413.9" font-family="Arial" font-size="14.00" fill="#000000">film_id </text>
<text text-anchor="start" x="94.8268" y="-413.9" font-family="Arial" font-size="14.00" fill="#666666">[smallint(5) unsigned]</text>
<polygon fill="none" stroke="#000000" points="43.5,-372.5 43.5,-402.5 588.5,-402.5 588.5,-372.5 43.5,-372.5"/>
<text text-anchor="start" x="50.5" y="-383.9" font-family="Arial" font-size="14.00" fill="#000000">title </text>
<text text-anchor="start" x="76.1676" y="-383.9" font-family="Arial" font-size="14.00" fill="#666666">[varchar(128)]</text>
<polygon fill="none" stroke="#000000" points="43.5,-342.5 43.5,-372.5 588.5,-372.5 588.5,-342.5 43.5,-342.5"/>
<text text-anchor="start" x="50.5" y="-353.9" font-family="Arial" font-size="14.00" fill="#000000">description </text>
<text text-anchor="start" x="122.068" y="-353.9" font-family="Arial" font-size="14.00" fill="#666666">[text]</text>
<polygon fill="none" stroke="#000000" points="43.5,-312.5 43.5,-342.5 588.5,-342.5 588.5,-312.5 43.5,-312.5"/>
<text text-anchor="start" x="50.5" y="-323.9" font-family="Arial" font-size="14.00" fill="#000000">release_year </text>
<text text-anchor="start" x="135.2966" y="-323.9" font-family="Arial" font-size="14.00" fill="#666666">[year(4)]</text>
<polygon fill="none" stroke="#000000" points="43.5,-282.5 43.5,-312.5 588.5,-312.5 588.5,-282.5 43.5,-282.5"/>
<text text-anchor="start" x="50.5" y="-293.9" font-family="Arial" font-size="14.00" fill="#000000">language_id </text>
<text text-anchor="start" x="130.6472" y="-293.9" font-family="Arial" font-size="14.00" fill="#666666">[tinyint(3) unsigned]</text>
<polygon fill="none" stroke="#000000" points="43.5,-252.5 43.5,-282.5 588.5,-282.5 588.5,-252.5 43.5,-252.5"/>
<text text-anchor="start" x="50.5" y="-263.9" font-family="Arial" font-size="14.00" fill="#000000">original_language_id </text>
<text text-anchor="start" x="183.5406" y="-263.9" font-family="Arial" font-size="14.00" fill="#666666">[tinyint(3) unsigned]</text>
<polygon fill="none" stroke="#000000" points="43.5,-222.5 43.5,-252.5 588.5,-252.5 588.5,-222.5 43.5,-222.5"/>
<text text-anchor="start" x="50.5" y="-233.9" font-family="Arial" font-size="14.00" fill="#000000">rental_duration </text>
<text text-anchor="start" x="147.7496" y="-233.9" font-family="Arial" font-size="14.00" fill="#666666">[tinyint(3) unsigned]</text>
<polygon fill="none" stroke="#000000" points="43.5,-192.5 43.5,-222.5 588.5,-222.5 588.5,-192.5 43.5,-192.5"/>
<text text-anchor="start" x="50.5" y="-203.9" font-family="Arial" font-size="14.00" fill="#000000">rental_rate </text>
<text text-anchor="start" x="121.2952" y="-203.9" font-family="Arial" font-size="14.00" fill="#666666">[decimal(4,2)]</text>
<polygon fill="none" stroke="#000000" points="43.5,-162.5 43.5,-192.5 588.5,-192.5 588.5,-162.5 43.5,-162.5"/>
<text text-anchor="start" x="50.5" y="-173.9" font-family="Arial" font-size="14.00" fill="#000000">length </text>
<text text-anchor="start" x="92.5182" y="-173.9" font-family="Arial" font-size="14.00" fill="#666666">[smallint(5) unsigned]</text>
<polygon fill="none" stroke="#000000" points="43.5,-132.5 43.5,-162.5 588.5,-162.5 588.5,-132.5 43.5,-132.5"/>
<text text-anchor="start" x="50.5" y="-143.9" font-family="Arial" font-size="14.00" fill="#000000">replacement_cost </text>
<text text-anchor="start" x="164.8604" y="-143.9" font-family="Arial" font-size="14.00" fill="#666666">[decimal(5,2)]</text>
<polygon fill="none" stroke="#000000" points="43.5,-102.5 43.5,-132.5 588.5,-132.5 588.5,-102.5 43.5,-102.5"/>
<text text-anchor="start" x="50.5" y="-113.9" font-family="Arial" font-size="14.00" fill="#000000">rating </text>
<text text-anchor="start" x="89.3962" y="-113.9" font-family="Arial" font-size="14.00" fill="#666666">[enum(&#39;G&#39;,&#39;PG&#39;,&#39;PG&#45;13&#39;,&#39;R&#39;,&#39;NC&#45;17&#39;)]</text>
<polygon fill="none" stroke="#000000" points="43.5,-72.5 43.5,-102.5 588.5,-102.5 588.5,-72.5 43.5,-72.5"/>
<text text-anchor="start" x="50.0252" y="-83.9" font-family="Arial" font-size="14.00" fill="#000000">special_features </text>
<text text-anchor="start" x="155.8316" y="-83.9" font-family="Arial" font-size="14.00" fill="#666666">[set(&#39;Trailers&#39;,&#39;Commentaries&#39;,&#39;Deleted Scenes&#39;,&#39;Behind the Scenes&#39;)]</text>
<polygon fill="none" stroke="#000000" points="43.5,-42.5 43.5,-72.5 588.5,-72.5 588.5,-42.5 43.5,-42.5"/>
<text text-anchor="start" x="50.5" y="-53.9" font-family="Arial" font-size="14.00" fill="#000000">last_update </text>
<text text-anchor="start" x="126.7566" y="-53.9" font-family="Arial" font-size="14.00" fill="#666666">[timestamp]</text>
</g>
<!-- film_category&#45;&gt;film -->
<g id="edge1" class="edge">
<title>film_category:film_id&#45;&gt;film:film_id</title>
<path fill="none" stroke="#000000" d="M438.5386,-666.4405C397.8362,-656.9793 417.9264,-586.43 448.5,-547 487.8679,-496.2282 549.1321,-561.7718 588.5,-511 613.9637,-478.1601 630.0556,-417.5 588.5,-417.5"/>
<polygon fill="#000000" stroke="#000000" points="438.5561,-666.4422 448.024,-671.9748 443.528,-666.9711 448.5,-667.5 448.5,-667.5 448.5,-667.5 443.528,-666.9711 448.976,-663.0252 438.5561,-666.4422 438.5561,-666.4422"/>
<text text-anchor="start" x="207.2935" y="-677.5" font-family="Arial" font-size="10.00" fill="#000000">FOREIGN KEY (film_id) REFERENCES film (film_id)</text>
</g>
<!-- category -->
<g id="node3" class="node">
<title>category</title>
<polygon fill="#efefef" stroke="transparent" points="692.5,-282.5 692.5,-317.5 904.5,-317.5 904.5,-282.5 692.5,-282.5"/>
<polygon fill="none" stroke="#000000" points="692.5,-282.5 692.5,-317.5 904.5,-317.5 904.5,-282.5 692.5,-282.5"/>
<text text-anchor="start" x="715.3635" y="-295.3" font-family="Arial Bold" font-size="18.00" fill="#000000">category</text>
<text text-anchor="start" x="784.3827" y="-295.3" font-family="Arial" font-size="14.00" fill="#000000"> </text>
<text text-anchor="start" x="788.2733" y="-295.3" font-family="Arial" font-size="14.00" fill="#666666">[BASE TABLE]</text>
<polygon fill="none" stroke="#000000" points="692.5,-252.5 692.5,-282.5 904.5,-282.5 904.5,-252.5 692.5,-252.5"/>
<text text-anchor="start" x="699.3093" y="-263.9" font-family="Arial" font-size="14.00" fill="#000000">category_id </text>
<text text-anchor="start" x="775.5533" y="-263.9" font-family="Arial" font-size="14.00" fill="#666666">[tinyint(3) unsigned]</text>
<polygon fill="none" stroke="#000000" points="692.5,-222.5 692.5,-252.5 904.5,-252.5 904.5,-222.5 692.5,-222.5"/>
<text text-anchor="start" x="699.5" y="-233.9" font-family="Arial" font-size="14.00" fill="#000000">name </text>
<text text-anchor="start" x="738.399" y="-233.9" font-family="Arial" font-size="14.00" fill="#666666">[varchar(25)]</text>
<polygon fill="none" stroke="#000000" points="692.5,-192.5 692.5,-222.5 904.5,-222.5 904.5,-192.5 692.5,-192.5"/>
<text text-anchor="start" x="699.5" y="-203.9" font-family="Arial" font-size="14.00" fill="#000000">last_update </text>
<text text-anchor="start" x="775.7566" y="-203.9" font-family="Arial" font-size="14.00" fill="#666666">[timestamp]</text>
</g>
<!-- film_category&#45;&gt;category -->
<g id="edge2" class="edge">
<title>film_category:category_id&#45;&gt;category:category_id</title>
<path fill="none" stroke="#000000" d="M676.9095,-636.9484C817.9436,-621.0656 531.3527,-267.5 692.5,-267.5"/>
<polygon fill="#000000" stroke="#000000" points="676.486,-636.9707 666.2618,-633.0063 671.493,-637.2354 666.5,-637.5 666.5,-637.5 666.5,-637.5 671.493,-637.2354 666.7382,-641.9937 676.486,-636.9707 676.486,-636.9707"/>
<text text-anchor="start" x="673.0965" y="-647.5" font-family="Arial" font-size="10.00" fill="#000000">FOREIGN KEY (category_id) REFERENCES category (category_id)</text>
</g>
</g>
</svg>
