<?xml version="1.0" encoding="UTF-8" standalone="no"?>
<!DOCTYPE svg PUBLIC "-//W3C//DTD SVG 1.1//EN"
 "http://www.w3.org/Graphics/SVG/1.1/DTD/svg11.dtd">
<!-- Generated by graphviz version 2.40.1 (20161225.0304)
 -->
<!-- Title: film_actor Pages: 1 -->
<svg width="944pt" height="772pt"
 viewBox="0.00 0.00 943.50 772.00" xmlns="http://www.w3.org/2000/svg" xmlns:xlink="http://www.w3.org/1999/xlink">
<g id="graph0" class="graph" transform="scale(1 1) rotate(0) translate(4 768)">
<title>film_actor</title>
<polygon fill="#ffffff" stroke="transparent" points="-4,4 -4,-768 939.5,-768 939.5,4 -4,4"/>
<!-- film_actor -->
<g id="node1" class="node">
<title>film_actor</title>
<polygon fill="#efefef" stroke="transparent" points="282,-682.5 282,-717.5 482,-717.5 482,-682.5 282,-682.5"/>
<polygon fill="none" stroke="#000000" points="282,-682.5 282,-717.5 482,-717.5 482,-682.5 282,-682.5"/>
<text text-anchor="start" x="294.3752" y="-695.3" font-family="Arial Bold" font-size="18.00" fill="#000000">film_actor</text>
<text text-anchor="start" x="372.371" y="-695.3" font-family="Arial" font-size="14.00" fill="#000000"> </text>
<text text-anchor="start" x="376.2616" y="-695.3" font-family="Arial" font-size="14.00" fill="#666666">[BASE TABLE]</text>
<polygon fill="none" stroke="#000000" points="282,-652.5 282,-682.5 482,-682.5 482,-652.5 282,-652.5"/>
<text text-anchor="start" x="288.6536" y="-663.9" font-family="Arial" font-size="14.00" fill="#000000">actor_id </text>
<text text-anchor="start" x="342.3324" y="-663.9" font-family="Arial" font-size="14.00" fill="#666666">[smallint(5) unsigned]</text>
<polygon fill="none" stroke="#000000" points="282,-622.5 282,-652.5 482,-652.5 482,-622.5 282,-622.5"/>
<text text-anchor="start" x="289" y="-633.9" font-family="Arial" font-size="14.00" fill="#000000">film_id </text>
<text text-anchor="start" x="333.3268" y="-633.9" font-family="Arial" font-size="14.00" fill="#666666">[smallint(5) unsigned]</text>
<polygon fill="none" stroke="#000000" points="282,-592.5 282,-622.5 482,-622.5 482,-592.5 282,-592.5"/>
<text text-anchor="start" x="289" y="-603.9" font-family="Arial" font-size="14.00" fill="#000000">last_update </text>
<text text-anchor="start" x="365.2566" y="-603.9" font-family="Arial" font-size="14.00" fill="#666666">[timestamp]</text>
<polygon fill="none" stroke="#000000" stroke-width="3" points="280.5,-591.5 280.5,-719.5 483.5,-719.5 483.5,-591.5 280.5,-591.5"/>
</g>
<!-- actor -->
<g id="node2" class="node">
<title>actor</title>
<polygon fill="#efefef" stroke="transparent" points="43,-297.5 43,-332.5 243,-332.5 243,-297.5 43,-297.5"/>
<polygon fill="none" stroke="#000000" points="43,-297.5 43,-332.5 243,-332.5 243,-297.5 43,-297.5"/>
<text text-anchor="start" x="74.3697" y="-310.3" font-family="Arial Bold" font-size="18.00" fill="#000000">actor</text>
<text text-anchor="start" x="114.3765" y="-310.3" font-family="Arial" font-size="14.00" fill="#000000"> </text>
<text text-anchor="start" x="118.2671" y="-310.3" font-family="Arial" font-size="14.00" fill="#666666">[BASE TABLE]</text>
<polygon fill="none" stroke="#000000" points="43,-267.5 43,-297.5 243,-297.5 243,-267.5 43,-267.5"/>
<text text-anchor="start" x="49.6536" y="-278.9" font-family="Arial" font-size="14.00" fill="#000000">actor_id </text>
<text text-anchor="start" x="103.3324" y="-278.9" font-family="Arial" font-size="14.00" fill="#666666">[smallint(5) unsigned]</text>
<polygon fill="none" stroke="#000000" points="43,-237.5 43,-267.5 243,-267.5 243,-237.5 43,-237.5"/>
<text text-anchor="start" x="50" y="-248.9" font-family="Arial" font-size="14.00" fill="#000000">first_name </text>
<text text-anchor="start" x="119.23" y="-248.9" font-family="Arial" font-size="14.00" fill="#666666">[varchar(45)]</text>
<polygon fill="none" stroke="#000000" points="43,-207.5 43,-237.5 243,-237.5 243,-207.5 43,-207.5"/>
<text text-anchor="start" x="50" y="-218.9" font-family="Arial" font-size="14.00" fill="#000000">last_name </text>
<text text-anchor="start" x="118.4614" y="-218.9" font-family="Arial" font-size="14.00" fill="#666666">[varchar(45)]</text>
<polygon fill="none" stroke="#000000" points="43,-177.5 43,-207.5 243,-207.5 243,-177.5 43,-177.5"/>
<text text-anchor="start" x="50" y="-188.9" font-family="Arial" font-size="14.00" fill="#000000">last_update </text>
<text text-anchor="start" x="126.2566" y="-188.9" font-family="Arial" font-size="14.00" fill="#666666">[timestamp]</text>
</g>
<!-- film_actor&#45;&gt;actor -->
<g id="edge1" class="edge">
<title>film_actor:actor_id&#45;&gt;actor:actor_id</title>
<path fill="none" stroke="#000000" d="M272.0931,-665.4286C207.0309,-635.1249 325.2984,-282.5 243,-282.5"/>
<polygon fill="#000000" stroke="#000000" points="272.2117,-665.4533 281.079,-671.9047 277.1058,-666.4767 282,-667.5 282,-667.5 282,-667.5 277.1058,-666.4767 282.921,-663.0953 272.2117,-665.4533 272.2117,-665.4533"/>
<text text-anchor="start" x="20.7735" y="-677.5" font-family="Arial" font-size="10.00" fill="#000000">FOREIGN KEY (actor_id) REFERENCES actor (actor_id)</text>
</g>
<!-- film -->
<g id="node3" class="node">
<title>film</title>
<polygon fill="#efefef" stroke="transparent" points="348,-432.5 348,-467.5 893,-467.5 893,-432.5 348,-432.5"/>
<polygon fill="none" stroke="#000000" points="348,-432.5 348,-467.5 893,-467.5 893,-432.5 348,-432.5"/>
<text text-anchor="start" x="557.8817" y="-445.3" font-family="Arial Bold" font-size="18.00" fill="#000000">film</text>
<text text-anchor="start" x="585.8645" y="-445.3" font-family="Arial" font-size="14.00" fill="#000000"> </text>
<text text-anchor="start" x="589.7551" y="-445.3" font-family="Arial" font-size="14.00" fill="#666666">[BASE TABLE]</text>
<polygon fill="none" stroke="#000000" points="348,-402.5 348,-432.5 893,-432.5 893,-402.5 348,-402.5"/>
<text text-anchor="start" x="355" y="-413.9" font-family="Arial" font-size="14.00" fill="#000000">film_id </text>
<text text-anchor="start" x="399.3268" y="-413.9" font-family="Arial" font-size="14.00" fill="#666666">[smallint(5) unsigned]</text>
<polygon fill="none" stroke="#000000" points="348,-372.5 348,-402.5 893,-402.5 893,-372.5 348,-372.5"/>
<text text-anchor="start" x="355" y="-383.9" font-family="Arial" font-size="14.00" fill="#000000">title </text>
<text text-anchor="start" x="380.6676" y="-383.9" font-family="Arial" font-size="14.00" fill="#666666">[varchar(128)]</text>
<polygon fill="none" stroke="#000000" points="348,-342.5 348,-372.5 893,-372.5 893,-342.5 348,-342.5"/>
<text text-anchor="start" x="355" y="-353.9" font-family="Arial" font-size="14.00" fill="#000000">description </text>
<text text-anchor="start" x="426.568" y="-353.9" font-family="Arial" font-size="14.00" fill="#666666">[text]</text>
<polygon fill="none" stroke="#000000" points="348,-312.5 348,-342.5 893,-342.5 893,-312.5 348,-312.5"/>
<text text-anchor="start" x="355" y="-323.9" font-family="Arial" font-size="14.00" fill="#000000">release_year </text>
<text text-anchor="start" x="439.7966" y="-323.9" font-family="Arial" font-size="14.00" fill="#666666">[year(4)]</text>
<polygon fill="none" stroke="#000000" points="348,-282.5 348,-312.5 893,-312.5 893,-282.5 348,-282.5"/>
<text text-anchor="start" x="355" y="-293.9" font-family="Arial" font-size="14.00" fill="#000000">language_id </text>
<text text-anchor="start" x="435.1472" y="-293.9" font-family="Arial" font-size="14.00" fill="#666666">[tinyint(3) unsigned]</text>
<polygon fill="none" stroke="#000000" points="348,-252.5 348,-282.5 893,-282.5 893,-252.5 348,-252.5"/>
<text text-anchor="start" x="355" y="-263.9" font-family="Arial" font-size="14.00" fill="#000000">original_language_id </text>
<text text-anchor="start" x="488.0406" y="-263.9" font-family="Arial" font-size="14.00" fill="#666666">[tinyint(3) unsigned]</text>
<polygon fill="none" stroke="#000000" points="348,-222.5 348,-252.5 893,-252.5 893,-222.5 348,-222.5"/>
<text text-anchor="start" x="355" y="-233.9" font-family="Arial" font-size="14.00" fill="#000000">rental_duration </text>
<text text-anchor="start" x="452.2496" y="-233.9" font-family="Arial" font-size="14.00" fill="#666666">[tinyint(3) unsigned]</text>
<polygon fill="none" stroke="#000000" points="348,-192.5 348,-222.5 893,-222.5 893,-192.5 348,-192.5"/>
<text text-anchor="start" x="355" y="-203.9" font-family="Arial" font-size="14.00" fill="#000000">rental_rate </text>
<text text-anchor="start" x="425.7952" y="-203.9" font-family="Arial" font-size="14.00" fill="#666666">[decimal(4,2)]</text>
<polygon fill="none" stroke="#000000" points="348,-162.5 348,-192.5 893,-192.5 893,-162.5 348,-162.5"/>
<text text-anchor="start" x="355" y="-173.9" font-family="Arial" font-size="14.00" fill="#000000">length </text>
<text text-anchor="start" x="397.0182" y="-173.9" font-family="Arial" font-size="14.00" fill="#666666">[smallint(5) unsigned]</text>
<polygon fill="none" stroke="#000000" points="348,-132.5 348,-162.5 893,-162.5 893,-132.5 348,-132.5"/>
<text text-anchor="start" x="355" y="-143.9" font-family="Arial" font-size="14.00" fill="#000000">replacement_cost </text>
<text text-anchor="start" x="469.3604" y="-143.9" font-family="Arial" font-size="14.00" fill="#666666">[decimal(5,2)]</text>
<polygon fill="none" stroke="#000000" points="348,-102.5 348,-132.5 893,-132.5 893,-102.5 348,-102.5"/>
<text text-anchor="start" x="355" y="-113.9" font-family="Arial" font-size="14.00" fill="#000000">rating </text>
<text text-anchor="start" x="393.8962" y="-113.9" font-family="Arial" font-size="14.00" fill="#666666">[enum(&#39;G&#39;,&#39;PG&#39;,&#39;PG&#45;13&#39;,&#39;R&#39;,&#39;NC&#45;17&#39;)]</text>
<polygon fill="none" stroke="#000000" points="348,-72.5 348,-102.5 893,-102.5 893,-72.5 348,-72.5"/>
<text text-anchor="start" x="354.5252" y="-83.9" font-family="Arial" font-size="14.00" fill="#000000">special_features </text>
<text text-anchor="start" x="460.3316" y="-83.9" font-family="Arial" font-size="14.00" fill="#666666">[set(&#39;Trailers&#39;,&#39;Commentaries&#39;,&#39;Deleted Scenes&#39;,&#39;Behind the Scenes&#39;)]</text>
<polygon fill="none" stroke="#000000" points="348,-42.5 348,-72.5 893,-72.5 893,-42.5 348,-42.5"/>
<text text-anchor="start" x="355" y="-53.9" font-family="Arial" font-size="14.00" fill="#000000">last_update </text>
<text text-anchor="start" x="431.2566" y="-53.9" font-family="Arial" font-size="14.00" fill="#666666">[timestamp]</text>
</g>
<!-- film_actor&#45;&gt;film -->
<g id="edge2" class="edge">
<title>film_actor:film_id&#45;&gt;film:film_id</title>
<path fill="none" stroke="#000000" d="M492.2266,-635.9034C519.0634,-626.3126 504.085,-575.8015 482,-547 444.4754,-498.0636 385.5246,-559.9364 348,-511 322.7135,-478.0234 306.4444,-417.5 348,-417.5"/>
<polygon fill="#000000" stroke="#000000" points="491.8803,-635.9573 481.3058,-633.0539 486.9402,-636.7287 482,-637.5 482,-637.5 482,-637.5 486.9402,-636.7287 482.6942,-641.9461 491.8803,-635.9573 491.8803,-635.9573"/>
<text text-anchor="start" x="488.7935" y="-647.5" font-family="Arial" font-size="10.00" fill="#000000">FOREIGN KEY (film_id) REFERENCES film (film_id)</text>
</g>
</g>
</svg>
