<?xml version="1.0" encoding="UTF-8" standalone="no"?>
<!DOCTYPE svg PUBLIC "-//W3C//DTD SVG 1.1//EN"
 "http://www.w3.org/Graphics/SVG/1.1/DTD/svg11.dtd">
<!-- Generated by graphviz version 2.40.1 (20161225.0304)
 -->
<!-- Title: film Pages: 1 -->
<svg width="1098pt" height="1049pt"
 viewBox="0.00 0.00 1098.00 1049.00" xmlns="http://www.w3.org/2000/svg" xmlns:xlink="http://www.w3.org/1999/xlink">
<g id="graph0" class="graph" transform="scale(1 1) rotate(0) translate(4 1045)">
<title>film</title>
<polygon fill="#ffffff" stroke="transparent" points="-4,4 -4,-1045 1094,-1045 1094,4 -4,4"/>
<!-- film -->
<g id="node1" class="node">
<title>film</title>
<polygon fill="#efefef" stroke="transparent" points="183,-682.5 183,-717.5 728,-717.5 728,-682.5 183,-682.5"/>
<polygon fill="none" stroke="#000000" points="183,-682.5 183,-717.5 728,-717.5 728,-682.5 183,-682.5"/>
<text text-anchor="start" x="392.8817" y="-695.3" font-family="Arial Bold" font-size="18.00" fill="#000000">film</text>
<text text-anchor="start" x="420.8645" y="-695.3" font-family="Arial" font-size="14.00" fill="#000000"> </text>
<text text-anchor="start" x="424.7551" y="-695.3" font-family="Arial" font-size="14.00" fill="#666666">[BASE TABLE]</text>
<polygon fill="none" stroke="#000000" points="183,-652.5 183,-682.5 728,-682.5 728,-652.5 183,-652.5"/>
<text text-anchor="start" x="190" y="-663.9" font-family="Arial" font-size="14.00" fill="#000000">film_id </text>
<text text-anchor="start" x="234.3268" y="-663.9" font-family="Arial" font-size="14.00" fill="#666666">[smallint(5) unsigned]</text>
<polygon fill="none" stroke="#000000" points="183,-622.5 183,-652.5 728,-652.5 728,-622.5 183,-622.5"/>
<text text-anchor="start" x="190" y="-633.9" font-family="Arial" font-size="14.00" fill="#000000">title </text>
<text text-anchor="start" x="215.6676" y="-633.9" font-family="Arial" font-size="14.00" fill="#666666">[varchar(128)]</text>
<polygon fill="none" stroke="#000000" points="183,-592.5 183,-622.5 728,-622.5 728,-592.5 183,-592.5"/>
<text text-anchor="start" x="190" y="-603.9" font-family="Arial" font-size="14.00" fill="#000000">description </text>
<text text-anchor="start" x="261.568" y="-603.9" font-family="Arial" font-size="14.00" fill="#666666">[text]</text>
<polygon fill="none" stroke="#000000" points="183,-562.5 183,-592.5 728,-592.5 728,-562.5 183,-562.5"/>
<text text-anchor="start" x="190" y="-573.9" font-family="Arial" font-size="14.00" fill="#000000">release_year </text>
<text text-anchor="start" x="274.7966" y="-573.9" font-family="Arial" font-size="14.00" fill="#666666">[year(4)]</text>
<polygon fill="none" stroke="#000000" points="183,-532.5 183,-562.5 728,-562.5 728,-532.5 183,-532.5"/>
<text text-anchor="start" x="190" y="-543.9" font-family="Arial" font-size="14.00" fill="#000000">language_id </text>
<text text-anchor="start" x="270.1472" y="-543.9" font-family="Arial" font-size="14.00" fill="#666666">[tinyint(3) unsigned]</text>
<polygon fill="none" stroke="#000000" points="183,-502.5 183,-532.5 728,-532.5 728,-502.5 183,-502.5"/>
<text text-anchor="start" x="190" y="-513.9" font-family="Arial" font-size="14.00" fill="#000000">original_language_id </text>
<text text-anchor="start" x="323.0406" y="-513.9" font-family="Arial" font-size="14.00" fill="#666666">[tinyint(3) unsigned]</text>
<polygon fill="none" stroke="#000000" points="183,-472.5 183,-502.5 728,-502.5 728,-472.5 183,-472.5"/>
<text text-anchor="start" x="190" y="-483.9" font-family="Arial" font-size="14.00" fill="#000000">rental_duration </text>
<text text-anchor="start" x="287.2496" y="-483.9" font-family="Arial" font-size="14.00" fill="#666666">[tinyint(3) unsigned]</text>
<polygon fill="none" stroke="#000000" points="183,-442.5 183,-472.5 728,-472.5 728,-442.5 183,-442.5"/>
<text text-anchor="start" x="190" y="-453.9" font-family="Arial" font-size="14.00" fill="#000000">rental_rate </text>
<text text-anchor="start" x="260.7952" y="-453.9" font-family="Arial" font-size="14.00" fill="#666666">[decimal(4,2)]</text>
<polygon fill="none" stroke="#000000" points="183,-412.5 183,-442.5 728,-442.5 728,-412.5 183,-412.5"/>
<text text-anchor="start" x="190" y="-423.9" font-family="Arial" font-size="14.00" fill="#000000">length </text>
<text text-anchor="start" x="232.0182" y="-423.9" font-family="Arial" font-size="14.00" fill="#666666">[smallint(5) unsigned]</text>
<polygon fill="none" stroke="#000000" points="183,-382.5 183,-412.5 728,-412.5 728,-382.5 183,-382.5"/>
<text text-anchor="start" x="190" y="-393.9" font-family="Arial" font-size="14.00" fill="#000000">replacement_cost </text>
<text text-anchor="start" x="304.3604" y="-393.9" font-family="Arial" font-size="14.00" fill="#666666">[decimal(5,2)]</text>
<polygon fill="none" stroke="#000000" points="183,-352.5 183,-382.5 728,-382.5 728,-352.5 183,-352.5"/>
<text text-anchor="start" x="190" y="-363.9" font-family="Arial" font-size="14.00" fill="#000000">rating </text>
<text text-anchor="start" x="228.8962" y="-363.9" font-family="Arial" font-size="14.00" fill="#666666">[enum(&#39;G&#39;,&#39;PG&#39;,&#39;PG&#45;13&#39;,&#39;R&#39;,&#39;NC&#45;17&#39;)]</text>
<polygon fill="none" stroke="#000000" points="183,-322.5 183,-352.5 728,-352.5 728,-322.5 183,-322.5"/>
<text text-anchor="start" x="189.5252" y="-333.9" font-family="Arial" font-size="14.00" fill="#000000">special_features </text>
<text text-anchor="start" x="295.3316" y="-333.9" font-family="Arial" font-size="14.00" fill="#666666">[set(&#39;Trailers&#39;,&#39;Commentaries&#39;,&#39;Deleted Scenes&#39;,&#39;Behind the Scenes&#39;)]</text>
<polygon fill="none" stroke="#000000" points="183,-292.5 183,-322.5 728,-322.5 728,-292.5 183,-292.5"/>
<text text-anchor="start" x="190" y="-303.9" font-family="Arial" font-size="14.00" fill="#000000">last_update </text>
<text text-anchor="start" x="266.2566" y="-303.9" font-family="Arial" font-size="14.00" fill="#666666">[timestamp]</text>
<polygon fill="none" stroke="#000000" stroke-width="3" points="181,-291.5 181,-719.5 729,-719.5 729,-291.5 181,-291.5"/>
</g>
<!-- language -->
<g id="node5" class="node">
<title>language</title>
<polygon fill="#efefef" stroke="transparent" points="348,-132.5 348,-167.5 564,-167.5 564,-132.5 348,-132.5"/>
<polygon fill="none" stroke="#000000" points="348,-132.5 348,-167.5 564,-167.5 564,-132.5 348,-132.5"/>
<text text-anchor="start" x="370.3543" y="-145.3" font-family="Arial Bold" font-size="18.00" fill="#000000">language</text>
<text text-anchor="start" x="444.3919" y="-145.3" font-family="Arial" font-size="14.00" fill="#000000"> </text>
<text text-anchor="start" x="448.2825" y="-145.3" font-family="Arial" font-size="14.00" fill="#666666">[BASE TABLE]</text>
<polygon fill="none" stroke="#000000" points="348,-102.5 348,-132.5 564,-132.5 564,-102.5 348,-102.5"/>
<text text-anchor="start" x="354.8577" y="-113.9" font-family="Arial" font-size="14.00" fill="#000000">language_id </text>
<text text-anchor="start" x="435.0049" y="-113.9" font-family="Arial" font-size="14.00" fill="#666666">[tinyint(3) unsigned]</text>
<polygon fill="none" stroke="#000000" points="348,-72.5 348,-102.5 564,-102.5 564,-72.5 348,-72.5"/>
<text text-anchor="start" x="355" y="-83.9" font-family="Arial" font-size="14.00" fill="#000000">name </text>
<text text-anchor="start" x="393.899" y="-83.9" font-family="Arial" font-size="14.00" fill="#666666">[char(20)]</text>
<polygon fill="none" stroke="#000000" points="348,-42.5 348,-72.5 564,-72.5 564,-42.5 348,-42.5"/>
<text text-anchor="start" x="355" y="-53.9" font-family="Arial" font-size="14.00" fill="#000000">last_update </text>
<text text-anchor="start" x="431.2566" y="-53.9" font-family="Arial" font-size="14.00" fill="#666666">[timestamp]</text>
</g>
<!-- film&#45;&gt;language -->
<g id="edge4" class="edge">
<title>film:language_id&#45;&gt;language:language_id</title>
<path fill="none" stroke="#000000" d="M738.1972,-547.0849C859.2199,-536.9346 815.5046,-343.1863 728,-247 670.9199,-184.2567 405.0801,-273.7433 348,-211 320.0358,-180.2613 306.4444,-117.5 348,-117.5"/>
<polygon fill="#000000" stroke="#000000" points="737.9917,-547.0932 727.8169,-543.0037 732.9959,-547.2966 728,-547.5 728,-547.5 728,-547.5 732.9959,-547.2966 728.1831,-551.9963 737.9917,-547.0932 737.9917,-547.0932"/>
<text text-anchor="start" x="735.4145" y="-557.5" font-family="Arial" font-size="10.00" fill="#000000">FOREIGN KEY (language_id) REFERENCES language (language_id)</text>
</g>
<!-- film&#45;&gt;language -->
<g id="edge5" class="edge">
<title>film:original_language_id&#45;&gt;language:language_id</title>
<path fill="none" stroke="#000000" d="M738.1586,-517.0394C845.8826,-506.9406 806.5317,-333.3231 728,-247 670.9199,-184.2567 405.0801,-273.7433 348,-211 320.0358,-180.2613 306.4444,-117.5 348,-117.5"/>
<polygon fill="#000000" stroke="#000000" points="737.9897,-517.0469 727.7961,-513.0046 732.9949,-517.2735 728,-517.5 728,-517.5 728,-517.5 732.9949,-517.2735 728.2039,-521.9954 737.9897,-517.0469 737.9897,-517.0469"/>
<text text-anchor="start" x="734.524" y="-527.5" font-family="Arial" font-size="10.00" fill="#000000">FOREIGN KEY (original_language_id) REFERENCES language (language_id)</text>
</g>
<!-- film_actor -->
<g id="node2" class="node">
<title>film_actor</title>
<polygon fill="#efefef" stroke="transparent" points="43,-947.5 43,-982.5 243,-982.5 243,-947.5 43,-947.5"/>
<polygon fill="none" stroke="#000000" points="43,-947.5 43,-982.5 243,-982.5 243,-947.5 43,-947.5"/>
<text text-anchor="start" x="55.3752" y="-960.3" font-family="Arial Bold" font-size="18.00" fill="#000000">film_actor</text>
<text text-anchor="start" x="133.371" y="-960.3" font-family="Arial" font-size="14.00" fill="#000000"> </text>
<text text-anchor="start" x="137.2616" y="-960.3" font-family="Arial" font-size="14.00" fill="#666666">[BASE TABLE]</text>
<polygon fill="none" stroke="#000000" points="43,-917.5 43,-947.5 243,-947.5 243,-917.5 43,-917.5"/>
<text text-anchor="start" x="49.6536" y="-928.9" font-family="Arial" font-size="14.00" fill="#000000">actor_id </text>
<text text-anchor="start" x="103.3324" y="-928.9" font-family="Arial" font-size="14.00" fill="#666666">[smallint(5) unsigned]</text>
<polygon fill="none" stroke="#000000" points="43,-887.5 43,-917.5 243,-917.5 243,-887.5 43,-887.5"/>
<text text-anchor="start" x="50" y="-898.9" font-family="Arial" font-size="14.00" fill="#000000">film_id </text>
<text text-anchor="start" x="94.3268" y="-898.9" font-family="Arial" font-size="14.00" fill="#666666">[smallint(5) unsigned]</text>
<polygon fill="none" stroke="#000000" points="43,-857.5 43,-887.5 243,-887.5 243,-857.5 43,-857.5"/>
<text text-anchor="start" x="50" y="-868.9" font-family="Arial" font-size="14.00" fill="#000000">last_update </text>
<text text-anchor="start" x="126.2566" y="-868.9" font-family="Arial" font-size="14.00" fill="#666666">[timestamp]</text>
</g>
<!-- film_actor&#45;&gt;film -->
<g id="edge1" class="edge">
<title>film_actor:film_id&#45;&gt;film:film_id</title>
<path fill="none" stroke="#000000" d="M253.0182,-900.957C277.3696,-892.0707 257.6652,-846.7125 243,-815 228.31,-783.2338 197.69,-795.7662 183,-764 164.9981,-725.072 140.1111,-667.5 183,-667.5"/>
<polygon fill="#000000" stroke="#000000" points="252.8835,-900.9777 242.3149,-898.0524 247.9417,-901.7388 243,-902.5 243,-902.5 243,-902.5 247.9417,-901.7388 243.6851,-906.9476 252.8835,-900.9777 252.8835,-900.9777"/>
<text text-anchor="start" x="249.7935" y="-912.5" font-family="Arial" font-size="10.00" fill="#000000">FOREIGN KEY (film_id) REFERENCES film (film_id)</text>
</g>
<!-- film_category -->
<g id="node3" class="node">
<title>film_category</title>
<polygon fill="#efefef" stroke="transparent" points="347,-947.5 347,-982.5 565,-982.5 565,-947.5 347,-947.5"/>
<polygon fill="none" stroke="#000000" points="347,-947.5 347,-982.5 565,-982.5 565,-947.5 347,-947.5"/>
<text text-anchor="start" x="353.869" y="-960.3" font-family="Arial Bold" font-size="18.00" fill="#000000">film_category</text>
<text text-anchor="start" x="460.8772" y="-960.3" font-family="Arial" font-size="14.00" fill="#000000"> </text>
<text text-anchor="start" x="464.7678" y="-960.3" font-family="Arial" font-size="14.00" fill="#666666">[BASE TABLE]</text>
<polygon fill="none" stroke="#000000" points="347,-917.5 347,-947.5 565,-947.5 565,-917.5 347,-917.5"/>
<text text-anchor="start" x="354" y="-928.9" font-family="Arial" font-size="14.00" fill="#000000">film_id </text>
<text text-anchor="start" x="398.3268" y="-928.9" font-family="Arial" font-size="14.00" fill="#666666">[smallint(5) unsigned]</text>
<polygon fill="none" stroke="#000000" points="347,-887.5 347,-917.5 565,-917.5 565,-887.5 347,-887.5"/>
<text text-anchor="start" x="354" y="-898.9" font-family="Arial" font-size="14.00" fill="#000000">category_id </text>
<text text-anchor="start" x="430.244" y="-898.9" font-family="Arial" font-size="14.00" fill="#666666">[tinyint(3) unsigned]</text>
<polygon fill="none" stroke="#000000" points="347,-857.5 347,-887.5 565,-887.5 565,-857.5 347,-857.5"/>
<text text-anchor="start" x="354" y="-868.9" font-family="Arial" font-size="14.00" fill="#000000">last_update </text>
<text text-anchor="start" x="430.2566" y="-868.9" font-family="Arial" font-size="14.00" fill="#666666">[timestamp]</text>
</g>
<!-- film_category&#45;&gt;film -->
<g id="edge2" class="edge">
<title>film_category:film_id&#45;&gt;film:film_id</title>
<path fill="none" stroke="#000000" d="M337.0048,-931.3809C297.3673,-921.6954 315.0281,-851.5368 347,-815 403.2529,-750.7155 671.7471,-828.2845 728,-764 756.2436,-731.7238 770.8889,-667.5 728,-667.5"/>
<polygon fill="#000000" stroke="#000000" points="337.0621,-931.3872 346.4992,-936.9721 342.031,-931.9436 347,-932.5 347,-932.5 347,-932.5 342.031,-931.9436 347.5008,-928.0279 337.0621,-931.3872 337.0621,-931.3872"/>
<text text-anchor="start" x="353.7935" y="-942.5" font-family="Arial" font-size="10.00" fill="#000000">FOREIGN KEY (film_id) REFERENCES film (film_id)</text>
</g>
<!-- inventory -->
<g id="node4" class="node">
<title>inventory</title>
<polygon fill="#efefef" stroke="transparent" points="670,-962.5 670,-997.5 913,-997.5 913,-962.5 670,-962.5"/>
<polygon fill="none" stroke="#000000" points="670,-962.5 670,-997.5 913,-997.5 913,-962.5 670,-962.5"/>
<text text-anchor="start" x="706.3664" y="-975.3" font-family="Arial Bold" font-size="18.00" fill="#000000">inventory</text>
<text text-anchor="start" x="779.3798" y="-975.3" font-family="Arial" font-size="14.00" fill="#000000"> </text>
<text text-anchor="start" x="783.2704" y="-975.3" font-family="Arial" font-size="14.00" fill="#666666">[BASE TABLE]</text>
<polygon fill="none" stroke="#000000" points="670,-932.5 670,-962.5 913,-962.5 913,-932.5 670,-932.5"/>
<text text-anchor="start" x="676.7581" y="-943.9" font-family="Arial" font-size="14.00" fill="#000000">inventory_id </text>
<text text-anchor="start" x="756.1087" y="-943.9" font-family="Arial" font-size="14.00" fill="#666666">[mediumint(8) unsigned]</text>
<polygon fill="none" stroke="#000000" points="670,-902.5 670,-932.5 913,-932.5 913,-902.5 670,-902.5"/>
<text text-anchor="start" x="677" y="-913.9" font-family="Arial" font-size="14.00" fill="#000000">film_id </text>
<text text-anchor="start" x="721.3268" y="-913.9" font-family="Arial" font-size="14.00" fill="#666666">[smallint(5) unsigned]</text>
<polygon fill="none" stroke="#000000" points="670,-872.5 670,-902.5 913,-902.5 913,-872.5 670,-872.5"/>
<text text-anchor="start" x="677" y="-883.9" font-family="Arial" font-size="14.00" fill="#000000">store_id </text>
<text text-anchor="start" x="730.6788" y="-883.9" font-family="Arial" font-size="14.00" fill="#666666">[tinyint(3) unsigned]</text>
<polygon fill="none" stroke="#000000" points="670,-842.5 670,-872.5 913,-872.5 913,-842.5 670,-842.5"/>
<text text-anchor="start" x="677" y="-853.9" font-family="Arial" font-size="14.00" fill="#000000">last_update </text>
<text text-anchor="start" x="753.2566" y="-853.9" font-family="Arial" font-size="14.00" fill="#666666">[timestamp]</text>
</g>
<!-- inventory&#45;&gt;film -->
<g id="edge3" class="edge">
<title>inventory:film_id&#45;&gt;film:film_id</title>
<path fill="none" stroke="#000000" d="M659.6459,-916.3525C621.7532,-906.9772 646.4976,-842.2493 670,-800 684.7489,-773.4865 713.2511,-790.5135 728,-764 748.8494,-726.5199 770.8889,-667.5 728,-667.5"/>
<polygon fill="#000000" stroke="#000000" points="660.0608,-916.3984 669.5043,-921.9726 665.0304,-916.9492 670,-917.5 670,-917.5 670,-917.5 665.0304,-916.9492 670.4957,-913.0274 660.0608,-916.3984 660.0608,-916.3984"/>
<text text-anchor="start" x="614.7935" y="-901.5" font-family="Arial" font-size="10.00" fill="#000000">FOREIGN KEY (film_id) REFERENCES film (film_id)</text>
</g>
</g>
</svg>
