<?xml version="1.0" encoding="UTF-8" standalone="no"?>
<!DOCTYPE svg PUBLIC "-//W3C//DTD SVG 1.1//EN"
 "http://www.w3.org/Graphics/SVG/1.1/DTD/svg11.dtd">
<!-- Generated by graphviz version 2.40.1 (20161225.0304)
 -->
<!-- Title: inventory Pages: 1 -->
<svg width="992pt" height="1169pt"
 viewBox="0.00 0.00 991.50 1169.00" xmlns="http://www.w3.org/2000/svg" xmlns:xlink="http://www.w3.org/1999/xlink">
<g id="graph0" class="graph" transform="scale(1 1) rotate(0) translate(4 1165)">
<title>inventory</title>
<polygon fill="#ffffff" stroke="transparent" points="-4,4 -4,-1165 987.5,-1165 987.5,4 -4,4"/>
<!-- inventory -->
<g id="node1" class="node">
<title>inventory</title>
<polygon fill="#efefef" stroke="transparent" points="444.5,-712.5 444.5,-747.5 687.5,-747.5 687.5,-712.5 444.5,-712.5"/>
<polygon fill="none" stroke="#000000" points="444.5,-712.5 444.5,-747.5 687.5,-747.5 687.5,-712.5 444.5,-712.5"/>
<text text-anchor="start" x="480.8664" y="-725.3" font-family="Arial Bold" font-size="18.00" fill="#000000">inventory</text>
<text text-anchor="start" x="553.8798" y="-725.3" font-family="Arial" font-size="14.00" fill="#000000"> </text>
<text text-anchor="start" x="557.7704" y="-725.3" font-family="Arial" font-size="14.00" fill="#666666">[BASE TABLE]</text>
<polygon fill="none" stroke="#000000" points="444.5,-682.5 444.5,-712.5 687.5,-712.5 687.5,-682.5 444.5,-682.5"/>
<text text-anchor="start" x="451.2581" y="-693.9" font-family="Arial" font-size="14.00" fill="#000000">inventory_id </text>
<text text-anchor="start" x="530.6087" y="-693.9" font-family="Arial" font-size="14.00" fill="#666666">[mediumint(8) unsigned]</text>
<polygon fill="none" stroke="#000000" points="444.5,-652.5 444.5,-682.5 687.5,-682.5 687.5,-652.5 444.5,-652.5"/>
<text text-anchor="start" x="451.5" y="-663.9" font-family="Arial" font-size="14.00" fill="#000000">film_id </text>
<text text-anchor="start" x="495.8268" y="-663.9" font-family="Arial" font-size="14.00" fill="#666666">[smallint(5) unsigned]</text>
<polygon fill="none" stroke="#000000" points="444.5,-622.5 444.5,-652.5 687.5,-652.5 687.5,-622.5 444.5,-622.5"/>
<text text-anchor="start" x="451.5" y="-633.9" font-family="Arial" font-size="14.00" fill="#000000">store_id </text>
<text text-anchor="start" x="505.1788" y="-633.9" font-family="Arial" font-size="14.00" fill="#666666">[tinyint(3) unsigned]</text>
<polygon fill="none" stroke="#000000" points="444.5,-592.5 444.5,-622.5 687.5,-622.5 687.5,-592.5 444.5,-592.5"/>
<text text-anchor="start" x="451.5" y="-603.9" font-family="Arial" font-size="14.00" fill="#000000">last_update </text>
<text text-anchor="start" x="527.7566" y="-603.9" font-family="Arial" font-size="14.00" fill="#666666">[timestamp]</text>
<polygon fill="none" stroke="#000000" stroke-width="3" points="442.5,-591.5 442.5,-749.5 688.5,-749.5 688.5,-591.5 442.5,-591.5"/>
</g>
<!-- film -->
<g id="node3" class="node">
<title>film</title>
<polygon fill="#efefef" stroke="transparent" points="43.5,-432.5 43.5,-467.5 588.5,-467.5 588.5,-432.5 43.5,-432.5"/>
<polygon fill="none" stroke="#000000" points="43.5,-432.5 43.5,-467.5 588.5,-467.5 588.5,-432.5 43.5,-432.5"/>
<text text-anchor="start" x="253.3817" y="-445.3" font-family="Arial Bold" font-size="18.00" fill="#000000">film</text>
<text text-anchor="start" x="281.3645" y="-445.3" font-family="Arial" font-size="14.00" fill="#000000"> </text>
<text text-anchor="start" x="285.2551" y="-445.3" font-family="Arial" font-size="14.00" fill="#666666">[BASE TABLE]</text>
<polygon fill="none" stroke="#000000" points="43.5,-402.5 43.5,-432.5 588.5,-432.5 588.5,-402.5 43.5,-402.5"/>
<text text-anchor="start" x="50.5" y="-413.9" font-family="Arial" font-size="14.00" fill="#000000">film_id </text>
<text text-anchor="start" x="94.8268" y="-413.9" font-family="Arial" font-size="14.00" fill="#666666">[smallint(5) unsigned]</text>
<polygon fill="none" stroke="#000000" points="43.5,-372.5 43.5,-402.5 588.5,-402.5 588.5,-372.5 43.5,-372.5"/>
<text text-anchor="start" x="50.5" y="-383.9" font-family="Arial" font-size="14.00" fill="#000000">title </text>
<text text-anchor="start" x="76.1676" y="-383.9" font-family="Arial" font-size="14.00" fill="#666666">[varchar(128)]</text>
<polygon fill="none" stroke="#000000" points="43.5,-342.5 43.5,-372.5 588.5,-372.5 588.5,-342.5 43.5,-342.5"/>
<text text-anchor="start" x="50.5" y="-353.9" font-family="Arial" font-size="14.00" fill="#000000">description </text>
<text text-anchor="start" x="122.068" y="-353.9" font-family="Arial" font-size="14.00" fill="#666666">[text]</text>
<polygon fill="none" stroke="#000000" points="43.5,-312.5 43.5,-342.5 588.5,-342.5 588.5,-312.5 43.5,-312.5"/>
<text text-anchor="start" x="50.5" y="-323.9" font-family="Arial" font-size="14.00" fill="#000000">release_year </text>
<text text-anchor="start" x="135.2966" y="-323.9" font-family="Arial" font-size="14.00" fill="#666666">[year(4)]</text>
<polygon fill="none" stroke="#000000" points="43.5,-282.5 43.5,-312.5 588.5,-312.5 588.5,-282.5 43.5,-282.5"/>
<text text-anchor="start" x="50.5" y="-293.9" font-family="Arial" font-size="14.00" fill="#000000">language_id </text>
<text text-anchor="start" x="130.6472" y="-293.9" font-family="Arial" font-size="14.00" fill="#666666">[tinyint(3) unsigned]</text>
<polygon fill="none" stroke="#000000" points="43.5,-252.5 43.5,-282.5 588.5,-282.5 588.5,-252.5 43.5,-252.5"/>
<text text-anchor="start" x="50.5" y="-263.9" font-family="Arial" font-size="14.00" fill="#000000">original_language_id </text>
<text text-anchor="start" x="183.5406" y="-263.9" font-family="Arial" font-size="14.00" fill="#666666">[tinyint(3) unsigned]</text>
<polygon fill="none" stroke="#000000" points="43.5,-222.5 43.5,-252.5 588.5,-252.5 588.5,-222.5 43.5,-222.5"/>
<text text-anchor="start" x="50.5" y="-233.9" font-family="Arial" font-size="14.00" fill="#000000">rental_duration </text>
<text text-anchor="start" x="147.7496" y="-233.9" font-family="Arial" font-size="14.00" fill="#666666">[tinyint(3) unsigned]</text>
<polygon fill="none" stroke="#000000" points="43.5,-192.5 43.5,-222.5 588.5,-222.5 588.5,-192.5 43.5,-192.5"/>
<text text-anchor="start" x="50.5" y="-203.9" font-family="Arial" font-size="14.00" fill="#000000">rental_rate </text>
<text text-anchor="start" x="121.2952" y="-203.9" font-family="Arial" font-size="14.00" fill="#666666">[decimal(4,2)]</text>
<polygon fill="none" stroke="#000000" points="43.5,-162.5 43.5,-192.5 588.5,-192.5 588.5,-162.5 43.5,-162.5"/>
<text text-anchor="start" x="50.5" y="-173.9" font-family="Arial" font-size="14.00" fill="#000000">length </text>
<text text-anchor="start" x="92.5182" y="-173.9" font-family="Arial" font-size="14.00" fill="#666666">[smallint(5) unsigned]</text>
<polygon fill="none" stroke="#000000" points="43.5,-132.5 43.5,-162.5 588.5,-162.5 588.5,-132.5 43.5,-132.5"/>
<text text-anchor="start" x="50.5" y="-143.9" font-family="Arial" font-size="14.00" fill="#000000">replacement_cost </text>
<text text-anchor="start" x="164.8604" y="-143.9" font-family="Arial" font-size="14.00" fill="#666666">[decimal(5,2)]</text>
<polygon fill="none" stroke="#000000" points="43.5,-102.5 43.5,-132.5 588.5,-132.5 588.5,-102.5 43.5,-102.5"/>
<text text-anchor="start" x="50.5" y="-113.9" font-family="Arial" font-size="14.00" fill="#000000">rating </text>
<text text-anchor="start" x="89.3962" y="-113.9" font-family="Arial" font-size="14.00" fill="#666666">[enum(&#39;G&#39;,&#39;PG&#39;,&#39;PG&#45;13&#39;,&#39;R&#39;,&#39;NC&#45;17&#39;)]</text>
<polygon fill="none" stroke="#000000" points="43.5,-72.5 43.5,-102.5 588.5,-102.5 588.5,-72.5 43.5,-72.5"/>
<text text-anchor="start" x="50.0252" y="-83.9" font-family="Arial" font-size="14.00" fill="#000000">special_features </text>
<text text-anchor="start" x="155.8316" y="-83.9" font-family="Arial" font-size="14.00" fill="#666666">[set(&#39;Trailers&#39;,&#39;Commentaries&#39;,&#39;Deleted Scenes&#39;,&#39;Behind the Scenes&#39;)]</text>
<polygon fill="none" stroke="#000000" points="43.5,-42.5 43.5,-72.5 588.5,-72.5 588.5,-42.5 43.5,-42.5"/>
<text text-anchor="start" x="50.5" y="-53.9" font-family="Arial" font-size="14.00" fill="#000000">last_update </text>
<text text-anchor="start" x="126.7566" y="-53.9" font-family="Arial" font-size="14.00" fill="#666666">[timestamp]</text>
</g>
<!-- inventory&#45;&gt;film -->
<g id="edge2" class="edge">
<title>inventory:film_id&#45;&gt;film:film_id</title>
<path fill="none" stroke="#000000" d="M434.5367,-666.439C393.8182,-656.9652 413.7943,-586.3271 444.5,-547 485.0986,-495.0023 547.9014,-562.9977 588.5,-511 614.0738,-478.2457 630.0556,-417.5 588.5,-417.5"/>
<polygon fill="#000000" stroke="#000000" points="434.5562,-666.441 444.0235,-671.9747 439.5281,-666.9705 444.5,-667.5 444.5,-667.5 444.5,-667.5 439.5281,-666.9705 444.9765,-663.0253 434.5562,-666.441 434.5562,-666.441"/>
<text text-anchor="start" x="203.2935" y="-677.5" font-family="Arial" font-size="10.00" fill="#000000">FOREIGN KEY (film_id) REFERENCES film (film_id)</text>
</g>
<!-- store -->
<g id="node4" class="node">
<title>store</title>
<polygon fill="#efefef" stroke="transparent" points="692.5,-297.5 692.5,-332.5 940.5,-332.5 940.5,-297.5 692.5,-297.5"/>
<polygon fill="none" stroke="#000000" points="692.5,-297.5 692.5,-332.5 940.5,-332.5 940.5,-297.5 692.5,-297.5"/>
<text text-anchor="start" x="747.8697" y="-310.3" font-family="Arial Bold" font-size="18.00" fill="#000000">store</text>
<text text-anchor="start" x="787.8765" y="-310.3" font-family="Arial" font-size="14.00" fill="#000000"> </text>
<text text-anchor="start" x="791.7671" y="-310.3" font-family="Arial" font-size="14.00" fill="#666666">[BASE TABLE]</text>
<polygon fill="none" stroke="#000000" points="692.5,-267.5 692.5,-297.5 940.5,-297.5 940.5,-267.5 692.5,-267.5"/>
<text text-anchor="start" x="699.5" y="-278.9" font-family="Arial" font-size="14.00" fill="#000000">store_id </text>
<text text-anchor="start" x="753.1788" y="-278.9" font-family="Arial" font-size="14.00" fill="#666666">[tinyint(3) unsigned]</text>
<polygon fill="none" stroke="#000000" points="692.5,-237.5 692.5,-267.5 940.5,-267.5 940.5,-237.5 692.5,-237.5"/>
<text text-anchor="start" x="699.4145" y="-248.9" font-family="Arial" font-size="14.00" fill="#000000">manager_staff_id </text>
<text text-anchor="start" x="811.4481" y="-248.9" font-family="Arial" font-size="14.00" fill="#666666">[tinyint(3) unsigned]</text>
<polygon fill="none" stroke="#000000" points="692.5,-207.5 692.5,-237.5 940.5,-237.5 940.5,-207.5 692.5,-207.5"/>
<text text-anchor="start" x="699.5" y="-218.9" font-family="Arial" font-size="14.00" fill="#000000">address_id </text>
<text text-anchor="start" x="771.8534" y="-218.9" font-family="Arial" font-size="14.00" fill="#666666">[smallint(5) unsigned]</text>
<polygon fill="none" stroke="#000000" points="692.5,-177.5 692.5,-207.5 940.5,-207.5 940.5,-177.5 692.5,-177.5"/>
<text text-anchor="start" x="699.5" y="-188.9" font-family="Arial" font-size="14.00" fill="#000000">last_update </text>
<text text-anchor="start" x="775.7566" y="-188.9" font-family="Arial" font-size="14.00" fill="#666666">[timestamp]</text>
</g>
<!-- inventory&#45;&gt;store -->
<g id="edge3" class="edge">
<title>inventory:store_id&#45;&gt;store:store_id</title>
<path fill="none" stroke="#000000" d="M697.835,-636.9241C830.992,-621.0544 538.4049,-282.5 692.5,-282.5"/>
<polygon fill="#000000" stroke="#000000" points="697.4845,-636.9436 687.2496,-633.007 692.4923,-637.2218 687.5,-637.5 687.5,-637.5 687.5,-637.5 692.4923,-637.2218 687.7504,-641.993 697.4845,-636.9436 697.4845,-636.9436"/>
<text text-anchor="start" x="694.2735" y="-647.5" font-family="Arial" font-size="10.00" fill="#000000">FOREIGN KEY (store_id) REFERENCES store (store_id)</text>
</g>
<!-- rental -->
<g id="node2" class="node">
<title>rental</title>
<polygon fill="#efefef" stroke="transparent" points="444.5,-1082.5 444.5,-1117.5 687.5,-1117.5 687.5,-1082.5 444.5,-1082.5"/>
<polygon fill="none" stroke="#000000" points="444.5,-1082.5 444.5,-1117.5 687.5,-1117.5 687.5,-1082.5 444.5,-1082.5"/>
<text text-anchor="start" x="494.8695" y="-1095.3" font-family="Arial Bold" font-size="18.00" fill="#000000">rental</text>
<text text-anchor="start" x="539.8767" y="-1095.3" font-family="Arial" font-size="14.00" fill="#000000"> </text>
<text text-anchor="start" x="543.7673" y="-1095.3" font-family="Arial" font-size="14.00" fill="#666666">[BASE TABLE]</text>
<polygon fill="none" stroke="#000000" points="444.5,-1052.5 444.5,-1082.5 687.5,-1082.5 687.5,-1052.5 444.5,-1052.5"/>
<text text-anchor="start" x="451.5" y="-1063.9" font-family="Arial" font-size="14.00" fill="#000000">rental_id </text>
<text text-anchor="start" x="509.068" y="-1063.9" font-family="Arial" font-size="14.00" fill="#666666">[int(11)]</text>
<polygon fill="none" stroke="#000000" points="444.5,-1022.5 444.5,-1052.5 687.5,-1052.5 687.5,-1022.5 444.5,-1022.5"/>
<text text-anchor="start" x="451.5" y="-1033.9" font-family="Arial" font-size="14.00" fill="#000000">rental_date </text>
<text text-anchor="start" x="525.4172" y="-1033.9" font-family="Arial" font-size="14.00" fill="#666666">[datetime]</text>
<polygon fill="none" stroke="#000000" points="444.5,-992.5 444.5,-1022.5 687.5,-1022.5 687.5,-992.5 444.5,-992.5"/>
<text text-anchor="start" x="451.2581" y="-1003.9" font-family="Arial" font-size="14.00" fill="#000000">inventory_id </text>
<text text-anchor="start" x="530.6087" y="-1003.9" font-family="Arial" font-size="14.00" fill="#666666">[mediumint(8) unsigned]</text>
<polygon fill="none" stroke="#000000" points="444.5,-962.5 444.5,-992.5 687.5,-992.5 687.5,-962.5 444.5,-962.5"/>
<text text-anchor="start" x="451.5" y="-973.9" font-family="Arial" font-size="14.00" fill="#000000">customer_id </text>
<text text-anchor="start" x="531.622" y="-973.9" font-family="Arial" font-size="14.00" fill="#666666">[smallint(5) unsigned]</text>
<polygon fill="none" stroke="#000000" points="444.5,-932.5 444.5,-962.5 687.5,-962.5 687.5,-932.5 444.5,-932.5"/>
<text text-anchor="start" x="451.5" y="-943.9" font-family="Arial" font-size="14.00" fill="#000000">return_date </text>
<text text-anchor="start" x="526.9712" y="-943.9" font-family="Arial" font-size="14.00" fill="#666666">[datetime]</text>
<polygon fill="none" stroke="#000000" points="444.5,-902.5 444.5,-932.5 687.5,-932.5 687.5,-902.5 444.5,-902.5"/>
<text text-anchor="start" x="451.5" y="-913.9" font-family="Arial" font-size="14.00" fill="#000000">staff_id </text>
<text text-anchor="start" x="500.5168" y="-913.9" font-family="Arial" font-size="14.00" fill="#666666">[tinyint(3) unsigned]</text>
<polygon fill="none" stroke="#000000" points="444.5,-872.5 444.5,-902.5 687.5,-902.5 687.5,-872.5 444.5,-872.5"/>
<text text-anchor="start" x="451.5" y="-883.9" font-family="Arial" font-size="14.00" fill="#000000">last_update </text>
<text text-anchor="start" x="527.7566" y="-883.9" font-family="Arial" font-size="14.00" fill="#666666">[timestamp]</text>
</g>
<!-- rental&#45;&gt;inventory -->
<g id="edge1" class="edge">
<title>rental:inventory_id&#45;&gt;inventory:inventory_id</title>
<path fill="none" stroke="#000000" d="M434.2717,-1006.9106C306.811,-991.9577 310.2205,-697.5 444.5,-697.5"/>
<polygon fill="#000000" stroke="#000000" points="434.5166,-1006.9246 444.2411,-1011.9925 439.5083,-1007.2123 444.5,-1007.5 444.5,-1007.5 444.5,-1007.5 439.5083,-1007.2123 444.7589,-1003.0075 434.5166,-1006.9246 434.5166,-1006.9246"/>
<text text-anchor="start" x="128.768" y="-1017.5" font-family="Arial" font-size="10.00" fill="#000000">FOREIGN KEY (inventory_id) REFERENCES inventory (inventory_id)</text>
</g>
</g>
</svg>
