<?xml version="1.0" encoding="UTF-8" standalone="no"?>
<!DOCTYPE svg PUBLIC "-//W3C//DTD SVG 1.1//EN"
 "http://www.w3.org/Graphics/SVG/1.1/DTD/svg11.dtd">
<!-- Generated by graphviz version 2.40.1 (20161225.0304)
 -->
<!-- Title: language Pages: 1 -->
<svg width="959pt" height="772pt"
 viewBox="0.00 0.00 958.50 772.00" xmlns="http://www.w3.org/2000/svg" xmlns:xlink="http://www.w3.org/1999/xlink">
<g id="graph0" class="graph" transform="scale(1 1) rotate(0) translate(4 768)">
<title>language</title>
<polygon fill="#ffffff" stroke="transparent" points="-4,4 -4,-768 954.5,-768 954.5,4 -4,4"/>
<!-- language -->
<g id="node1" class="node">
<title>language</title>
<polygon fill="#efefef" stroke="transparent" points="208.5,-135.5 208.5,-170.5 424.5,-170.5 424.5,-135.5 208.5,-135.5"/>
<polygon fill="none" stroke="#000000" points="208.5,-135.5 208.5,-170.5 424.5,-170.5 424.5,-135.5 208.5,-135.5"/>
<text text-anchor="start" x="230.8543" y="-148.3" font-family="Arial Bold" font-size="18.00" fill="#000000">language</text>
<text text-anchor="start" x="304.8919" y="-148.3" font-family="Arial" font-size="14.00" fill="#000000"> </text>
<text text-anchor="start" x="308.7825" y="-148.3" font-family="Arial" font-size="14.00" fill="#666666">[BASE TABLE]</text>
<polygon fill="none" stroke="#000000" points="208.5,-105.5 208.5,-135.5 424.5,-135.5 424.5,-105.5 208.5,-105.5"/>
<text text-anchor="start" x="215.3577" y="-116.9" font-family="Arial" font-size="14.00" fill="#000000">language_id </text>
<text text-anchor="start" x="295.5049" y="-116.9" font-family="Arial" font-size="14.00" fill="#666666">[tinyint(3) unsigned]</text>
<polygon fill="none" stroke="#000000" points="208.5,-75.5 208.5,-105.5 424.5,-105.5 424.5,-75.5 208.5,-75.5"/>
<text text-anchor="start" x="215.5" y="-86.9" font-family="Arial" font-size="14.00" fill="#000000">name </text>
<text text-anchor="start" x="254.399" y="-86.9" font-family="Arial" font-size="14.00" fill="#666666">[char(20)]</text>
<polygon fill="none" stroke="#000000" points="208.5,-45.5 208.5,-75.5 424.5,-75.5 424.5,-45.5 208.5,-45.5"/>
<text text-anchor="start" x="215.5" y="-56.9" font-family="Arial" font-size="14.00" fill="#000000">last_update </text>
<text text-anchor="start" x="291.7566" y="-56.9" font-family="Arial" font-size="14.00" fill="#666666">[timestamp]</text>
<polygon fill="none" stroke="#000000" stroke-width="3" points="207,-44.5 207,-172.5 426,-172.5 426,-44.5 207,-44.5"/>
</g>
<!-- film -->
<g id="node2" class="node">
<title>film</title>
<polygon fill="#efefef" stroke="transparent" points="43.5,-685.5 43.5,-720.5 588.5,-720.5 588.5,-685.5 43.5,-685.5"/>
<polygon fill="none" stroke="#000000" points="43.5,-685.5 43.5,-720.5 588.5,-720.5 588.5,-685.5 43.5,-685.5"/>
<text text-anchor="start" x="253.3817" y="-698.3" font-family="Arial Bold" font-size="18.00" fill="#000000">film</text>
<text text-anchor="start" x="281.3645" y="-698.3" font-family="Arial" font-size="14.00" fill="#000000"> </text>
<text text-anchor="start" x="285.2551" y="-698.3" font-family="Arial" font-size="14.00" fill="#666666">[BASE TABLE]</text>
<polygon fill="none" stroke="#000000" points="43.5,-655.5 43.5,-685.5 588.5,-685.5 588.5,-655.5 43.5,-655.5"/>
<text text-anchor="start" x="50.5" y="-666.9" font-family="Arial" font-size="14.00" fill="#000000">film_id </text>
<text text-anchor="start" x="94.8268" y="-666.9" font-family="Arial" font-size="14.00" fill="#666666">[smallint(5) unsigned]</text>
<polygon fill="none" stroke="#000000" points="43.5,-625.5 43.5,-655.5 588.5,-655.5 588.5,-625.5 43.5,-625.5"/>
<text text-anchor="start" x="50.5" y="-636.9" font-family="Arial" font-size="14.00" fill="#000000">title </text>
<text text-anchor="start" x="76.1676" y="-636.9" font-family="Arial" font-size="14.00" fill="#666666">[varchar(128)]</text>
<polygon fill="none" stroke="#000000" points="43.5,-595.5 43.5,-625.5 588.5,-625.5 588.5,-595.5 43.5,-595.5"/>
<text text-anchor="start" x="50.5" y="-606.9" font-family="Arial" font-size="14.00" fill="#000000">description </text>
<text text-anchor="start" x="122.068" y="-606.9" font-family="Arial" font-size="14.00" fill="#666666">[text]</text>
<polygon fill="none" stroke="#000000" points="43.5,-565.5 43.5,-595.5 588.5,-595.5 588.5,-565.5 43.5,-565.5"/>
<text text-anchor="start" x="50.5" y="-576.9" font-family="Arial" font-size="14.00" fill="#000000">release_year </text>
<text text-anchor="start" x="135.2966" y="-576.9" font-family="Arial" font-size="14.00" fill="#666666">[year(4)]</text>
<polygon fill="none" stroke="#000000" points="43.5,-535.5 43.5,-565.5 588.5,-565.5 588.5,-535.5 43.5,-535.5"/>
<text text-anchor="start" x="50.5" y="-546.9" font-family="Arial" font-size="14.00" fill="#000000">language_id </text>
<text text-anchor="start" x="130.6472" y="-546.9" font-family="Arial" font-size="14.00" fill="#666666">[tinyint(3) unsigned]</text>
<polygon fill="none" stroke="#000000" points="43.5,-505.5 43.5,-535.5 588.5,-535.5 588.5,-505.5 43.5,-505.5"/>
<text text-anchor="start" x="50.5" y="-516.9" font-family="Arial" font-size="14.00" fill="#000000">original_language_id </text>
<text text-anchor="start" x="183.5406" y="-516.9" font-family="Arial" font-size="14.00" fill="#666666">[tinyint(3) unsigned]</text>
<polygon fill="none" stroke="#000000" points="43.5,-475.5 43.5,-505.5 588.5,-505.5 588.5,-475.5 43.5,-475.5"/>
<text text-anchor="start" x="50.5" y="-486.9" font-family="Arial" font-size="14.00" fill="#000000">rental_duration </text>
<text text-anchor="start" x="147.7496" y="-486.9" font-family="Arial" font-size="14.00" fill="#666666">[tinyint(3) unsigned]</text>
<polygon fill="none" stroke="#000000" points="43.5,-445.5 43.5,-475.5 588.5,-475.5 588.5,-445.5 43.5,-445.5"/>
<text text-anchor="start" x="50.5" y="-456.9" font-family="Arial" font-size="14.00" fill="#000000">rental_rate </text>
<text text-anchor="start" x="121.2952" y="-456.9" font-family="Arial" font-size="14.00" fill="#666666">[decimal(4,2)]</text>
<polygon fill="none" stroke="#000000" points="43.5,-415.5 43.5,-445.5 588.5,-445.5 588.5,-415.5 43.5,-415.5"/>
<text text-anchor="start" x="50.5" y="-426.9" font-family="Arial" font-size="14.00" fill="#000000">length </text>
<text text-anchor="start" x="92.5182" y="-426.9" font-family="Arial" font-size="14.00" fill="#666666">[smallint(5) unsigned]</text>
<polygon fill="none" stroke="#000000" points="43.5,-385.5 43.5,-415.5 588.5,-415.5 588.5,-385.5 43.5,-385.5"/>
<text text-anchor="start" x="50.5" y="-396.9" font-family="Arial" font-size="14.00" fill="#000000">replacement_cost </text>
<text text-anchor="start" x="164.8604" y="-396.9" font-family="Arial" font-size="14.00" fill="#666666">[decimal(5,2)]</text>
<polygon fill="none" stroke="#000000" points="43.5,-355.5 43.5,-385.5 588.5,-385.5 588.5,-355.5 43.5,-355.5"/>
<text text-anchor="start" x="50.5" y="-366.9" font-family="Arial" font-size="14.00" fill="#000000">rating </text>
<text text-anchor="start" x="89.3962" y="-366.9" font-family="Arial" font-size="14.00" fill="#666666">[enum(&#39;G&#39;,&#39;PG&#39;,&#39;PG&#45;13&#39;,&#39;R&#39;,&#39;NC&#45;17&#39;)]</text>
<polygon fill="none" stroke="#000000" points="43.5,-325.5 43.5,-355.5 588.5,-355.5 588.5,-325.5 43.5,-325.5"/>
<text text-anchor="start" x="50.0252" y="-336.9" font-family="Arial" font-size="14.00" fill="#000000">special_features </text>
<text text-anchor="start" x="155.8316" y="-336.9" font-family="Arial" font-size="14.00" fill="#666666">[set(&#39;Trailers&#39;,&#39;Commentaries&#39;,&#39;Deleted Scenes&#39;,&#39;Behind the Scenes&#39;)]</text>
<polygon fill="none" stroke="#000000" points="43.5,-295.5 43.5,-325.5 588.5,-325.5 588.5,-295.5 43.5,-295.5"/>
<text text-anchor="start" x="50.5" y="-306.9" font-family="Arial" font-size="14.00" fill="#000000">last_update </text>
<text text-anchor="start" x="126.7566" y="-306.9" font-family="Arial" font-size="14.00" fill="#666666">[timestamp]</text>
</g>
<!-- film&#45;&gt;language -->
<g id="edge1" class="edge">
<title>film:language_id&#45;&gt;language:language_id</title>
<path fill="none" stroke="#000000" d="M598.5698,-548.3429C652.1778,-523.9069 630.5556,-299.2281 588.5,-253 531.4199,-190.2567 265.5801,-279.7433 208.5,-217 179.6385,-185.2751 165.6111,-120.5 208.5,-120.5"/>
<polygon fill="#000000" stroke="#000000" points="598.2782,-548.4053 587.5574,-546.0998 593.3891,-549.4526 588.5,-550.5 588.5,-550.5 588.5,-550.5 593.3891,-549.4526 589.4426,-554.9002 598.2782,-548.4053 598.2782,-548.4053"/>
<text text-anchor="start" x="595.9145" y="-560.5" font-family="Arial" font-size="10.00" fill="#000000">FOREIGN KEY (language_id) REFERENCES language (language_id)</text>
</g>
<!-- film&#45;&gt;language -->
<g id="edge2" class="edge">
<title>film:original_language_id&#45;&gt;language:language_id</title>
<path fill="none" stroke="#000000" d="M598.4429,-518.1311C645.5148,-494.0903 626.0803,-294.3088 588.5,-253 531.4199,-190.2567 265.5801,-279.7433 208.5,-217 179.6385,-185.2751 165.6111,-120.5 208.5,-120.5"/>
<polygon fill="#000000" stroke="#000000" points="598.2277,-518.1823 587.4571,-516.1225 593.3639,-519.3412 588.5,-520.5 588.5,-520.5 588.5,-520.5 593.3639,-519.3412 589.5429,-524.8775 598.2277,-518.1823 598.2277,-518.1823"/>
<text text-anchor="start" x="595.024" y="-530.5" font-family="Arial" font-size="10.00" fill="#000000">FOREIGN KEY (original_language_id) REFERENCES language (language_id)</text>
</g>
</g>
</svg>
