<?xml version="1.0" encoding="UTF-8" standalone="no"?>
<!DOCTYPE svg PUBLIC "-//W3C//DTD SVG 1.1//EN"
 "http://www.w3.org/Graphics/SVG/1.1/DTD/svg11.dtd">
<!-- Generated by graphviz version 2.40.1 (20161225.0304)
 -->
<!-- Title: payment Pages: 1 -->
<svg width="991pt" height="832pt"
 viewBox="0.00 0.00 991.00 832.00" xmlns="http://www.w3.org/2000/svg" xmlns:xlink="http://www.w3.org/1999/xlink">
<g id="graph0" class="graph" transform="scale(1 1) rotate(0) translate(4 828)">
<title>payment</title>
<polygon fill="#ffffff" stroke="transparent" points="-4,4 -4,-828 987,-828 987,4 -4,4"/>
<!-- payment -->
<g id="node1" class="node">
<title>payment</title>
<polygon fill="#efefef" stroke="transparent" points="370.5,-742.5 370.5,-777.5 597.5,-777.5 597.5,-742.5 370.5,-742.5"/>
<polygon fill="none" stroke="#000000" points="370.5,-742.5 370.5,-777.5 597.5,-777.5 597.5,-742.5 370.5,-742.5"/>
<text text-anchor="start" x="400.8635" y="-755.3" font-family="Arial Bold" font-size="18.00" fill="#000000">payment</text>
<text text-anchor="start" x="469.8827" y="-755.3" font-family="Arial" font-size="14.00" fill="#000000"> </text>
<text text-anchor="start" x="473.7733" y="-755.3" font-family="Arial" font-size="14.00" fill="#666666">[BASE TABLE]</text>
<polygon fill="none" stroke="#000000" points="370.5,-712.5 370.5,-742.5 597.5,-742.5 597.5,-712.5 370.5,-712.5"/>
<text text-anchor="start" x="377.5" y="-723.9" font-family="Arial" font-size="14.00" fill="#000000">payment_id </text>
<text text-anchor="start" x="453.744" y="-723.9" font-family="Arial" font-size="14.00" fill="#666666">[smallint(5) unsigned]</text>
<polygon fill="none" stroke="#000000" points="370.5,-682.5 370.5,-712.5 597.5,-712.5 597.5,-682.5 370.5,-682.5"/>
<text text-anchor="start" x="377.432" y="-693.9" font-family="Arial" font-size="14.00" fill="#000000">customer_id </text>
<text text-anchor="start" x="457.554" y="-693.9" font-family="Arial" font-size="14.00" fill="#666666">[smallint(5) unsigned]</text>
<polygon fill="none" stroke="#000000" points="370.5,-652.5 370.5,-682.5 597.5,-682.5 597.5,-652.5 370.5,-652.5"/>
<text text-anchor="start" x="377.5" y="-663.9" font-family="Arial" font-size="14.00" fill="#000000">staff_id </text>
<text text-anchor="start" x="426.5168" y="-663.9" font-family="Arial" font-size="14.00" fill="#666666">[tinyint(3) unsigned]</text>
<polygon fill="none" stroke="#000000" points="370.5,-622.5 370.5,-652.5 597.5,-652.5 597.5,-622.5 370.5,-622.5"/>
<text text-anchor="start" x="377.5" y="-633.9" font-family="Arial" font-size="14.00" fill="#000000">rental_id </text>
<text text-anchor="start" x="435.068" y="-633.9" font-family="Arial" font-size="14.00" fill="#666666">[int(11)]</text>
<polygon fill="none" stroke="#000000" points="370.5,-592.5 370.5,-622.5 597.5,-622.5 597.5,-592.5 370.5,-592.5"/>
<text text-anchor="start" x="377.5" y="-603.9" font-family="Arial" font-size="14.00" fill="#000000">amount </text>
<text text-anchor="start" x="428.0722" y="-603.9" font-family="Arial" font-size="14.00" fill="#666666">[decimal(5,2)]</text>
<polygon fill="none" stroke="#000000" points="370.5,-562.5 370.5,-592.5 597.5,-592.5 597.5,-562.5 370.5,-562.5"/>
<text text-anchor="start" x="377.5" y="-573.9" font-family="Arial" font-size="14.00" fill="#000000">payment_date </text>
<text text-anchor="start" x="470.0932" y="-573.9" font-family="Arial" font-size="14.00" fill="#666666">[datetime]</text>
<polygon fill="none" stroke="#000000" points="370.5,-532.5 370.5,-562.5 597.5,-562.5 597.5,-532.5 370.5,-532.5"/>
<text text-anchor="start" x="377.5" y="-543.9" font-family="Arial" font-size="14.00" fill="#000000">last_update </text>
<text text-anchor="start" x="453.7566" y="-543.9" font-family="Arial" font-size="14.00" fill="#666666">[timestamp]</text>
<polygon fill="none" stroke="#000000" stroke-width="3" points="368.5,-531.5 368.5,-779.5 598.5,-779.5 598.5,-531.5 368.5,-531.5"/>
</g>
<!-- customer -->
<g id="node2" class="node">
<title>customer</title>
<polygon fill="#efefef" stroke="transparent" points="43.5,-342.5 43.5,-377.5 270.5,-377.5 270.5,-342.5 43.5,-342.5"/>
<polygon fill="none" stroke="#000000" points="43.5,-342.5 43.5,-377.5 270.5,-377.5 270.5,-342.5 43.5,-342.5"/>
<text text-anchor="start" x="71.3705" y="-355.3" font-family="Arial Bold" font-size="18.00" fill="#000000">customer</text>
<text text-anchor="start" x="145.3757" y="-355.3" font-family="Arial" font-size="14.00" fill="#000000"> </text>
<text text-anchor="start" x="149.2663" y="-355.3" font-family="Arial" font-size="14.00" fill="#666666">[BASE TABLE]</text>
<polygon fill="none" stroke="#000000" points="43.5,-312.5 43.5,-342.5 270.5,-342.5 270.5,-312.5 43.5,-312.5"/>
<text text-anchor="start" x="50.432" y="-323.9" font-family="Arial" font-size="14.00" fill="#000000">customer_id </text>
<text text-anchor="start" x="130.554" y="-323.9" font-family="Arial" font-size="14.00" fill="#666666">[smallint(5) unsigned]</text>
<polygon fill="none" stroke="#000000" points="43.5,-282.5 43.5,-312.5 270.5,-312.5 270.5,-282.5 43.5,-282.5"/>
<text text-anchor="start" x="50.5" y="-293.9" font-family="Arial" font-size="14.00" fill="#000000">store_id </text>
<text text-anchor="start" x="104.1788" y="-293.9" font-family="Arial" font-size="14.00" fill="#666666">[tinyint(3) unsigned]</text>
<polygon fill="none" stroke="#000000" points="43.5,-252.5 43.5,-282.5 270.5,-282.5 270.5,-252.5 43.5,-252.5"/>
<text text-anchor="start" x="50.5" y="-263.9" font-family="Arial" font-size="14.00" fill="#000000">first_name </text>
<text text-anchor="start" x="119.73" y="-263.9" font-family="Arial" font-size="14.00" fill="#666666">[varchar(45)]</text>
<polygon fill="none" stroke="#000000" points="43.5,-222.5 43.5,-252.5 270.5,-252.5 270.5,-222.5 43.5,-222.5"/>
<text text-anchor="start" x="50.5" y="-233.9" font-family="Arial" font-size="14.00" fill="#000000">last_name </text>
<text text-anchor="start" x="118.9614" y="-233.9" font-family="Arial" font-size="14.00" fill="#666666">[varchar(45)]</text>
<polygon fill="none" stroke="#000000" points="43.5,-192.5 43.5,-222.5 270.5,-222.5 270.5,-192.5 43.5,-192.5"/>
<text text-anchor="start" x="50.5" y="-203.9" font-family="Arial" font-size="14.00" fill="#000000">email </text>
<text text-anchor="start" x="87.8296" y="-203.9" font-family="Arial" font-size="14.00" fill="#666666">[varchar(50)]</text>
<polygon fill="none" stroke="#000000" points="43.5,-162.5 43.5,-192.5 270.5,-192.5 270.5,-162.5 43.5,-162.5"/>
<text text-anchor="start" x="50.5" y="-173.9" font-family="Arial" font-size="14.00" fill="#000000">address_id </text>
<text text-anchor="start" x="122.8534" y="-173.9" font-family="Arial" font-size="14.00" fill="#666666">[smallint(5) unsigned]</text>
<polygon fill="none" stroke="#000000" points="43.5,-132.5 43.5,-162.5 270.5,-162.5 270.5,-132.5 43.5,-132.5"/>
<text text-anchor="start" x="50.5" y="-143.9" font-family="Arial" font-size="14.00" fill="#000000">active </text>
<text text-anchor="start" x="90.953" y="-143.9" font-family="Arial" font-size="14.00" fill="#666666">[tinyint(1)]</text>
<polygon fill="none" stroke="#000000" points="43.5,-102.5 43.5,-132.5 270.5,-132.5 270.5,-102.5 43.5,-102.5"/>
<text text-anchor="start" x="50.5" y="-113.9" font-family="Arial" font-size="14.00" fill="#000000">create_date </text>
<text text-anchor="start" x="128.3106" y="-113.9" font-family="Arial" font-size="14.00" fill="#666666">[datetime]</text>
<polygon fill="none" stroke="#000000" points="43.5,-72.5 43.5,-102.5 270.5,-102.5 270.5,-72.5 43.5,-72.5"/>
<text text-anchor="start" x="50.5" y="-83.9" font-family="Arial" font-size="14.00" fill="#000000">last_update </text>
<text text-anchor="start" x="126.7566" y="-83.9" font-family="Arial" font-size="14.00" fill="#666666">[timestamp]</text>
</g>
<!-- payment&#45;&gt;customer -->
<g id="edge1" class="edge">
<title>payment:customer_id&#45;&gt;customer:customer_id</title>
<path fill="none" stroke="#000000" d="M360.3575,-695.5093C291.0858,-666.3863 352.0126,-327.5 270.5,-327.5"/>
<polygon fill="#000000" stroke="#000000" points="360.6872,-695.5739 369.6333,-701.9158 365.5936,-696.537 370.5,-697.5 370.5,-697.5 370.5,-697.5 365.5936,-696.537 371.3667,-693.0842 360.6872,-695.5739 360.6872,-695.5739"/>
<text text-anchor="start" x="52.9415" y="-707.5" font-family="Arial" font-size="10.00" fill="#000000">FOREIGN KEY (customer_id) REFERENCES customer (customer_id)</text>
</g>
<!-- staff -->
<g id="node3" class="node">
<title>staff</title>
<polygon fill="#efefef" stroke="transparent" points="374.5,-372.5 374.5,-407.5 593.5,-407.5 593.5,-372.5 374.5,-372.5"/>
<polygon fill="none" stroke="#000000" points="374.5,-372.5 374.5,-407.5 593.5,-407.5 593.5,-372.5 374.5,-372.5"/>
<text text-anchor="start" x="418.3667" y="-385.3" font-family="Arial Bold" font-size="18.00" fill="#000000">staff</text>
<text text-anchor="start" x="452.3795" y="-385.3" font-family="Arial" font-size="14.00" fill="#000000"> </text>
<text text-anchor="start" x="456.2701" y="-385.3" font-family="Arial" font-size="14.00" fill="#666666">[BASE TABLE]</text>
<polygon fill="none" stroke="#000000" points="374.5,-342.5 374.5,-372.5 593.5,-372.5 593.5,-342.5 374.5,-342.5"/>
<text text-anchor="start" x="381.5" y="-353.9" font-family="Arial" font-size="14.00" fill="#000000">staff_id </text>
<text text-anchor="start" x="430.5168" y="-353.9" font-family="Arial" font-size="14.00" fill="#666666">[tinyint(3) unsigned]</text>
<polygon fill="none" stroke="#000000" points="374.5,-312.5 374.5,-342.5 593.5,-342.5 593.5,-312.5 374.5,-312.5"/>
<text text-anchor="start" x="381.5" y="-323.9" font-family="Arial" font-size="14.00" fill="#000000">first_name </text>
<text text-anchor="start" x="450.73" y="-323.9" font-family="Arial" font-size="14.00" fill="#666666">[varchar(45)]</text>
<polygon fill="none" stroke="#000000" points="374.5,-282.5 374.5,-312.5 593.5,-312.5 593.5,-282.5 374.5,-282.5"/>
<text text-anchor="start" x="381.5" y="-293.9" font-family="Arial" font-size="14.00" fill="#000000">last_name </text>
<text text-anchor="start" x="449.9614" y="-293.9" font-family="Arial" font-size="14.00" fill="#666666">[varchar(45)]</text>
<polygon fill="none" stroke="#000000" points="374.5,-252.5 374.5,-282.5 593.5,-282.5 593.5,-252.5 374.5,-252.5"/>
<text text-anchor="start" x="381.3163" y="-263.9" font-family="Arial" font-size="14.00" fill="#000000">address_id </text>
<text text-anchor="start" x="453.6697" y="-263.9" font-family="Arial" font-size="14.00" fill="#666666">[smallint(5) unsigned]</text>
<polygon fill="none" stroke="#000000" points="374.5,-222.5 374.5,-252.5 593.5,-252.5 593.5,-222.5 374.5,-222.5"/>
<text text-anchor="start" x="381.5" y="-233.9" font-family="Arial" font-size="14.00" fill="#000000">picture </text>
<text text-anchor="start" x="427.3962" y="-233.9" font-family="Arial" font-size="14.00" fill="#666666">[blob]</text>
<polygon fill="none" stroke="#000000" points="374.5,-192.5 374.5,-222.5 593.5,-222.5 593.5,-192.5 374.5,-192.5"/>
<text text-anchor="start" x="381.5" y="-203.9" font-family="Arial" font-size="14.00" fill="#000000">email </text>
<text text-anchor="start" x="418.8296" y="-203.9" font-family="Arial" font-size="14.00" fill="#666666">[varchar(50)]</text>
<polygon fill="none" stroke="#000000" points="374.5,-162.5 374.5,-192.5 593.5,-192.5 593.5,-162.5 374.5,-162.5"/>
<text text-anchor="start" x="381.5" y="-173.9" font-family="Arial" font-size="14.00" fill="#000000">store_id </text>
<text text-anchor="start" x="435.1788" y="-173.9" font-family="Arial" font-size="14.00" fill="#666666">[tinyint(3) unsigned]</text>
<polygon fill="none" stroke="#000000" points="374.5,-132.5 374.5,-162.5 593.5,-162.5 593.5,-132.5 374.5,-132.5"/>
<text text-anchor="start" x="381.5" y="-143.9" font-family="Arial" font-size="14.00" fill="#000000">active </text>
<text text-anchor="start" x="421.953" y="-143.9" font-family="Arial" font-size="14.00" fill="#666666">[tinyint(1)]</text>
<polygon fill="none" stroke="#000000" points="374.5,-102.5 374.5,-132.5 593.5,-132.5 593.5,-102.5 374.5,-102.5"/>
<text text-anchor="start" x="381.5" y="-113.9" font-family="Arial" font-size="14.00" fill="#000000">username </text>
<text text-anchor="start" x="447.6248" y="-113.9" font-family="Arial" font-size="14.00" fill="#666666">[varchar(16)]</text>
<polygon fill="none" stroke="#000000" points="374.5,-72.5 374.5,-102.5 593.5,-102.5 593.5,-72.5 374.5,-72.5"/>
<text text-anchor="start" x="381.5" y="-83.9" font-family="Arial" font-size="14.00" fill="#000000">password </text>
<text text-anchor="start" x="445.2882" y="-83.9" font-family="Arial" font-size="14.00" fill="#666666">[varchar(40)]</text>
<polygon fill="none" stroke="#000000" points="374.5,-42.5 374.5,-72.5 593.5,-72.5 593.5,-42.5 374.5,-42.5"/>
<text text-anchor="start" x="381.5" y="-53.9" font-family="Arial" font-size="14.00" fill="#000000">last_update </text>
<text text-anchor="start" x="457.7566" y="-53.9" font-family="Arial" font-size="14.00" fill="#666666">[timestamp]</text>
</g>
<!-- payment&#45;&gt;staff -->
<g id="edge2" class="edge">
<title>payment:staff_id&#45;&gt;staff:staff_id</title>
<path fill="none" stroke="#000000" d="M360.5672,-665.183C302.179,-636.815 309.1039,-357.5 374.5,-357.5"/>
<polygon fill="#000000" stroke="#000000" points="360.7615,-665.2282 369.4777,-671.8823 365.6307,-666.3641 370.5,-667.5 370.5,-667.5 370.5,-667.5 365.6307,-666.3641 371.5223,-663.1177 360.7615,-665.2282 360.7615,-665.2282"/>
<text text-anchor="start" x="119.2685" y="-677.5" font-family="Arial" font-size="10.00" fill="#000000">FOREIGN KEY (staff_id) REFERENCES staff (staff_id)</text>
</g>
<!-- rental -->
<g id="node4" class="node">
<title>rental</title>
<polygon fill="#efefef" stroke="transparent" points="697.5,-312.5 697.5,-347.5 940.5,-347.5 940.5,-312.5 697.5,-312.5"/>
<polygon fill="none" stroke="#000000" points="697.5,-312.5 697.5,-347.5 940.5,-347.5 940.5,-312.5 697.5,-312.5"/>
<text text-anchor="start" x="747.8695" y="-325.3" font-family="Arial Bold" font-size="18.00" fill="#000000">rental</text>
<text text-anchor="start" x="792.8767" y="-325.3" font-family="Arial" font-size="14.00" fill="#000000"> </text>
<text text-anchor="start" x="796.7673" y="-325.3" font-family="Arial" font-size="14.00" fill="#666666">[BASE TABLE]</text>
<polygon fill="none" stroke="#000000" points="697.5,-282.5 697.5,-312.5 940.5,-312.5 940.5,-282.5 697.5,-282.5"/>
<text text-anchor="start" x="704.5" y="-293.9" font-family="Arial" font-size="14.00" fill="#000000">rental_id </text>
<text text-anchor="start" x="762.068" y="-293.9" font-family="Arial" font-size="14.00" fill="#666666">[int(11)]</text>
<polygon fill="none" stroke="#000000" points="697.5,-252.5 697.5,-282.5 940.5,-282.5 940.5,-252.5 697.5,-252.5"/>
<text text-anchor="start" x="704.5" y="-263.9" font-family="Arial" font-size="14.00" fill="#000000">rental_date </text>
<text text-anchor="start" x="778.4172" y="-263.9" font-family="Arial" font-size="14.00" fill="#666666">[datetime]</text>
<polygon fill="none" stroke="#000000" points="697.5,-222.5 697.5,-252.5 940.5,-252.5 940.5,-222.5 697.5,-222.5"/>
<text text-anchor="start" x="704.2581" y="-233.9" font-family="Arial" font-size="14.00" fill="#000000">inventory_id </text>
<text text-anchor="start" x="783.6087" y="-233.9" font-family="Arial" font-size="14.00" fill="#666666">[mediumint(8) unsigned]</text>
<polygon fill="none" stroke="#000000" points="697.5,-192.5 697.5,-222.5 940.5,-222.5 940.5,-192.5 697.5,-192.5"/>
<text text-anchor="start" x="704.5" y="-203.9" font-family="Arial" font-size="14.00" fill="#000000">customer_id </text>
<text text-anchor="start" x="784.622" y="-203.9" font-family="Arial" font-size="14.00" fill="#666666">[smallint(5) unsigned]</text>
<polygon fill="none" stroke="#000000" points="697.5,-162.5 697.5,-192.5 940.5,-192.5 940.5,-162.5 697.5,-162.5"/>
<text text-anchor="start" x="704.5" y="-173.9" font-family="Arial" font-size="14.00" fill="#000000">return_date </text>
<text text-anchor="start" x="779.9712" y="-173.9" font-family="Arial" font-size="14.00" fill="#666666">[datetime]</text>
<polygon fill="none" stroke="#000000" points="697.5,-132.5 697.5,-162.5 940.5,-162.5 940.5,-132.5 697.5,-132.5"/>
<text text-anchor="start" x="704.5" y="-143.9" font-family="Arial" font-size="14.00" fill="#000000">staff_id </text>
<text text-anchor="start" x="753.5168" y="-143.9" font-family="Arial" font-size="14.00" fill="#666666">[tinyint(3) unsigned]</text>
<polygon fill="none" stroke="#000000" points="697.5,-102.5 697.5,-132.5 940.5,-132.5 940.5,-102.5 697.5,-102.5"/>
<text text-anchor="start" x="704.5" y="-113.9" font-family="Arial" font-size="14.00" fill="#000000">last_update </text>
<text text-anchor="start" x="780.7566" y="-113.9" font-family="Arial" font-size="14.00" fill="#666666">[timestamp]</text>
</g>
<!-- payment&#45;&gt;rental -->
<g id="edge3" class="edge">
<title>payment:rental_id&#45;&gt;rental:rental_id</title>
<path fill="none" stroke="#000000" d="M607.3133,-635.5033C671.3637,-607.6392 622.2821,-297.5 697.5,-297.5"/>
<polygon fill="#000000" stroke="#000000" points="607.2992,-635.5061 596.6027,-633.0904 602.3996,-636.503 597.5,-637.5 597.5,-637.5 597.5,-637.5 602.3996,-636.503 598.3973,-641.9096 607.2992,-635.5061 607.2992,-635.5061"/>
<text text-anchor="start" x="604.1065" y="-647.5" font-family="Arial" font-size="10.00" fill="#000000">FOREIGN KEY (rental_id) REFERENCES rental (rental_id)</text>
</g>
</g>
</svg>
