<?xml version="1.0" encoding="UTF-8" standalone="no"?>
<!DOCTYPE svg PUBLIC "-//W3C//DTD SVG 1.1//EN"
 "http://www.w3.org/Graphics/SVG/1.1/DTD/svg11.dtd">
<!-- Generated by graphviz version 2.40.1 (20161225.0304)
 -->
<!-- Title: rental Pages: 1 -->
<svg width="991pt" height="1199pt"
 viewBox="0.00 0.00 991.00 1199.00" xmlns="http://www.w3.org/2000/svg" xmlns:xlink="http://www.w3.org/1999/xlink">
<g id="graph0" class="graph" transform="scale(1 1) rotate(0) translate(4 1195)">
<title>rental</title>
<polygon fill="#ffffff" stroke="transparent" points="-4,4 -4,-1195 987,-1195 987,4 -4,4"/>
<!-- rental -->
<g id="node1" class="node">
<title>rental</title>
<polygon fill="#efefef" stroke="transparent" points="382.5,-742.5 382.5,-777.5 625.5,-777.5 625.5,-742.5 382.5,-742.5"/>
<polygon fill="none" stroke="#000000" points="382.5,-742.5 382.5,-777.5 625.5,-777.5 625.5,-742.5 382.5,-742.5"/>
<text text-anchor="start" x="432.8695" y="-755.3" font-family="Arial Bold" font-size="18.00" fill="#000000">rental</text>
<text text-anchor="start" x="477.8767" y="-755.3" font-family="Arial" font-size="14.00" fill="#000000"> </text>
<text text-anchor="start" x="481.7673" y="-755.3" font-family="Arial" font-size="14.00" fill="#666666">[BASE TABLE]</text>
<polygon fill="none" stroke="#000000" points="382.5,-712.5 382.5,-742.5 625.5,-742.5 625.5,-712.5 382.5,-712.5"/>
<text text-anchor="start" x="389.5" y="-723.9" font-family="Arial" font-size="14.00" fill="#000000">rental_id </text>
<text text-anchor="start" x="447.068" y="-723.9" font-family="Arial" font-size="14.00" fill="#666666">[int(11)]</text>
<polygon fill="none" stroke="#000000" points="382.5,-682.5 382.5,-712.5 625.5,-712.5 625.5,-682.5 382.5,-682.5"/>
<text text-anchor="start" x="389.5" y="-693.9" font-family="Arial" font-size="14.00" fill="#000000">rental_date </text>
<text text-anchor="start" x="463.4172" y="-693.9" font-family="Arial" font-size="14.00" fill="#666666">[datetime]</text>
<polygon fill="none" stroke="#000000" points="382.5,-652.5 382.5,-682.5 625.5,-682.5 625.5,-652.5 382.5,-652.5"/>
<text text-anchor="start" x="389.2581" y="-663.9" font-family="Arial" font-size="14.00" fill="#000000">inventory_id </text>
<text text-anchor="start" x="468.6087" y="-663.9" font-family="Arial" font-size="14.00" fill="#666666">[mediumint(8) unsigned]</text>
<polygon fill="none" stroke="#000000" points="382.5,-622.5 382.5,-652.5 625.5,-652.5 625.5,-622.5 382.5,-622.5"/>
<text text-anchor="start" x="389.5" y="-633.9" font-family="Arial" font-size="14.00" fill="#000000">customer_id </text>
<text text-anchor="start" x="469.622" y="-633.9" font-family="Arial" font-size="14.00" fill="#666666">[smallint(5) unsigned]</text>
<polygon fill="none" stroke="#000000" points="382.5,-592.5 382.5,-622.5 625.5,-622.5 625.5,-592.5 382.5,-592.5"/>
<text text-anchor="start" x="389.5" y="-603.9" font-family="Arial" font-size="14.00" fill="#000000">return_date </text>
<text text-anchor="start" x="464.9712" y="-603.9" font-family="Arial" font-size="14.00" fill="#666666">[datetime]</text>
<polygon fill="none" stroke="#000000" points="382.5,-562.5 382.5,-592.5 625.5,-592.5 625.5,-562.5 382.5,-562.5"/>
<text text-anchor="start" x="389.5" y="-573.9" font-family="Arial" font-size="14.00" fill="#000000">staff_id </text>
<text text-anchor="start" x="438.5168" y="-573.9" font-family="Arial" font-size="14.00" fill="#666666">[tinyint(3) unsigned]</text>
<polygon fill="none" stroke="#000000" points="382.5,-532.5 382.5,-562.5 625.5,-562.5 625.5,-532.5 382.5,-532.5"/>
<text text-anchor="start" x="389.5" y="-543.9" font-family="Arial" font-size="14.00" fill="#000000">last_update </text>
<text text-anchor="start" x="465.7566" y="-543.9" font-family="Arial" font-size="14.00" fill="#666666">[timestamp]</text>
<polygon fill="none" stroke="#000000" stroke-width="3" points="380.5,-531.5 380.5,-779.5 626.5,-779.5 626.5,-531.5 380.5,-531.5"/>
</g>
<!-- inventory -->
<g id="node3" class="node">
<title>inventory</title>
<polygon fill="#efefef" stroke="transparent" points="43.5,-267.5 43.5,-302.5 286.5,-302.5 286.5,-267.5 43.5,-267.5"/>
<polygon fill="none" stroke="#000000" points="43.5,-267.5 43.5,-302.5 286.5,-302.5 286.5,-267.5 43.5,-267.5"/>
<text text-anchor="start" x="79.8664" y="-280.3" font-family="Arial Bold" font-size="18.00" fill="#000000">inventory</text>
<text text-anchor="start" x="152.8798" y="-280.3" font-family="Arial" font-size="14.00" fill="#000000"> </text>
<text text-anchor="start" x="156.7704" y="-280.3" font-family="Arial" font-size="14.00" fill="#666666">[BASE TABLE]</text>
<polygon fill="none" stroke="#000000" points="43.5,-237.5 43.5,-267.5 286.5,-267.5 286.5,-237.5 43.5,-237.5"/>
<text text-anchor="start" x="50.2581" y="-248.9" font-family="Arial" font-size="14.00" fill="#000000">inventory_id </text>
<text text-anchor="start" x="129.6087" y="-248.9" font-family="Arial" font-size="14.00" fill="#666666">[mediumint(8) unsigned]</text>
<polygon fill="none" stroke="#000000" points="43.5,-207.5 43.5,-237.5 286.5,-237.5 286.5,-207.5 43.5,-207.5"/>
<text text-anchor="start" x="50.5" y="-218.9" font-family="Arial" font-size="14.00" fill="#000000">film_id </text>
<text text-anchor="start" x="94.8268" y="-218.9" font-family="Arial" font-size="14.00" fill="#666666">[smallint(5) unsigned]</text>
<polygon fill="none" stroke="#000000" points="43.5,-177.5 43.5,-207.5 286.5,-207.5 286.5,-177.5 43.5,-177.5"/>
<text text-anchor="start" x="50.5" y="-188.9" font-family="Arial" font-size="14.00" fill="#000000">store_id </text>
<text text-anchor="start" x="104.1788" y="-188.9" font-family="Arial" font-size="14.00" fill="#666666">[tinyint(3) unsigned]</text>
<polygon fill="none" stroke="#000000" points="43.5,-147.5 43.5,-177.5 286.5,-177.5 286.5,-147.5 43.5,-147.5"/>
<text text-anchor="start" x="50.5" y="-158.9" font-family="Arial" font-size="14.00" fill="#000000">last_update </text>
<text text-anchor="start" x="126.7566" y="-158.9" font-family="Arial" font-size="14.00" fill="#666666">[timestamp]</text>
</g>
<!-- rental&#45;&gt;inventory -->
<g id="edge2" class="edge">
<title>rental:inventory_id&#45;&gt;inventory:inventory_id</title>
<path fill="none" stroke="#000000" d="M372.2454,-665.6498C294.8459,-635.7114 377.46,-252.5 286.5,-252.5"/>
<polygon fill="#000000" stroke="#000000" points="372.6589,-665.7243 381.7009,-671.9285 377.5795,-666.6121 382.5,-667.5 382.5,-667.5 382.5,-667.5 377.5795,-666.6121 383.2991,-663.0715 372.6589,-665.7243 372.6589,-665.7243"/>
<text text-anchor="start" x="66.768" y="-677.5" font-family="Arial" font-size="10.00" fill="#000000">FOREIGN KEY (inventory_id) REFERENCES inventory (inventory_id)</text>
</g>
<!-- customer -->
<g id="node4" class="node">
<title>customer</title>
<polygon fill="#efefef" stroke="transparent" points="390.5,-342.5 390.5,-377.5 617.5,-377.5 617.5,-342.5 390.5,-342.5"/>
<polygon fill="none" stroke="#000000" points="390.5,-342.5 390.5,-377.5 617.5,-377.5 617.5,-342.5 390.5,-342.5"/>
<text text-anchor="start" x="418.3705" y="-355.3" font-family="Arial Bold" font-size="18.00" fill="#000000">customer</text>
<text text-anchor="start" x="492.3757" y="-355.3" font-family="Arial" font-size="14.00" fill="#000000"> </text>
<text text-anchor="start" x="496.2663" y="-355.3" font-family="Arial" font-size="14.00" fill="#666666">[BASE TABLE]</text>
<polygon fill="none" stroke="#000000" points="390.5,-312.5 390.5,-342.5 617.5,-342.5 617.5,-312.5 390.5,-312.5"/>
<text text-anchor="start" x="397.432" y="-323.9" font-family="Arial" font-size="14.00" fill="#000000">customer_id </text>
<text text-anchor="start" x="477.554" y="-323.9" font-family="Arial" font-size="14.00" fill="#666666">[smallint(5) unsigned]</text>
<polygon fill="none" stroke="#000000" points="390.5,-282.5 390.5,-312.5 617.5,-312.5 617.5,-282.5 390.5,-282.5"/>
<text text-anchor="start" x="397.5" y="-293.9" font-family="Arial" font-size="14.00" fill="#000000">store_id </text>
<text text-anchor="start" x="451.1788" y="-293.9" font-family="Arial" font-size="14.00" fill="#666666">[tinyint(3) unsigned]</text>
<polygon fill="none" stroke="#000000" points="390.5,-252.5 390.5,-282.5 617.5,-282.5 617.5,-252.5 390.5,-252.5"/>
<text text-anchor="start" x="397.5" y="-263.9" font-family="Arial" font-size="14.00" fill="#000000">first_name </text>
<text text-anchor="start" x="466.73" y="-263.9" font-family="Arial" font-size="14.00" fill="#666666">[varchar(45)]</text>
<polygon fill="none" stroke="#000000" points="390.5,-222.5 390.5,-252.5 617.5,-252.5 617.5,-222.5 390.5,-222.5"/>
<text text-anchor="start" x="397.5" y="-233.9" font-family="Arial" font-size="14.00" fill="#000000">last_name </text>
<text text-anchor="start" x="465.9614" y="-233.9" font-family="Arial" font-size="14.00" fill="#666666">[varchar(45)]</text>
<polygon fill="none" stroke="#000000" points="390.5,-192.5 390.5,-222.5 617.5,-222.5 617.5,-192.5 390.5,-192.5"/>
<text text-anchor="start" x="397.5" y="-203.9" font-family="Arial" font-size="14.00" fill="#000000">email </text>
<text text-anchor="start" x="434.8296" y="-203.9" font-family="Arial" font-size="14.00" fill="#666666">[varchar(50)]</text>
<polygon fill="none" stroke="#000000" points="390.5,-162.5 390.5,-192.5 617.5,-192.5 617.5,-162.5 390.5,-162.5"/>
<text text-anchor="start" x="397.5" y="-173.9" font-family="Arial" font-size="14.00" fill="#000000">address_id </text>
<text text-anchor="start" x="469.8534" y="-173.9" font-family="Arial" font-size="14.00" fill="#666666">[smallint(5) unsigned]</text>
<polygon fill="none" stroke="#000000" points="390.5,-132.5 390.5,-162.5 617.5,-162.5 617.5,-132.5 390.5,-132.5"/>
<text text-anchor="start" x="397.5" y="-143.9" font-family="Arial" font-size="14.00" fill="#000000">active </text>
<text text-anchor="start" x="437.953" y="-143.9" font-family="Arial" font-size="14.00" fill="#666666">[tinyint(1)]</text>
<polygon fill="none" stroke="#000000" points="390.5,-102.5 390.5,-132.5 617.5,-132.5 617.5,-102.5 390.5,-102.5"/>
<text text-anchor="start" x="397.5" y="-113.9" font-family="Arial" font-size="14.00" fill="#000000">create_date </text>
<text text-anchor="start" x="475.3106" y="-113.9" font-family="Arial" font-size="14.00" fill="#666666">[datetime]</text>
<polygon fill="none" stroke="#000000" points="390.5,-72.5 390.5,-102.5 617.5,-102.5 617.5,-72.5 390.5,-72.5"/>
<text text-anchor="start" x="397.5" y="-83.9" font-family="Arial" font-size="14.00" fill="#000000">last_update </text>
<text text-anchor="start" x="473.7566" y="-83.9" font-family="Arial" font-size="14.00" fill="#666666">[timestamp]</text>
</g>
<!-- rental&#45;&gt;customer -->
<g id="edge3" class="edge">
<title>rental:customer_id&#45;&gt;customer:customer_id</title>
<path fill="none" stroke="#000000" d="M374.5473,-631.0252C349.6145,-586.5082 359.0051,-327.5 390.5,-327.5"/>
<polygon fill="#000000" stroke="#000000" points="374.7452,-631.1863 379.6588,-640.9897 378.6226,-634.3431 382.5,-637.5 382.5,-637.5 382.5,-637.5 378.6226,-634.3431 385.3412,-634.0103 374.7452,-631.1863 374.7452,-631.1863"/>
<text text-anchor="start" x="64.9415" y="-647.5" font-family="Arial" font-size="10.00" fill="#000000">FOREIGN KEY (customer_id) REFERENCES customer (customer_id)</text>
</g>
<!-- staff -->
<g id="node5" class="node">
<title>staff</title>
<polygon fill="#efefef" stroke="transparent" points="721.5,-372.5 721.5,-407.5 940.5,-407.5 940.5,-372.5 721.5,-372.5"/>
<polygon fill="none" stroke="#000000" points="721.5,-372.5 721.5,-407.5 940.5,-407.5 940.5,-372.5 721.5,-372.5"/>
<text text-anchor="start" x="765.3667" y="-385.3" font-family="Arial Bold" font-size="18.00" fill="#000000">staff</text>
<text text-anchor="start" x="799.3795" y="-385.3" font-family="Arial" font-size="14.00" fill="#000000"> </text>
<text text-anchor="start" x="803.2701" y="-385.3" font-family="Arial" font-size="14.00" fill="#666666">[BASE TABLE]</text>
<polygon fill="none" stroke="#000000" points="721.5,-342.5 721.5,-372.5 940.5,-372.5 940.5,-342.5 721.5,-342.5"/>
<text text-anchor="start" x="728.5" y="-353.9" font-family="Arial" font-size="14.00" fill="#000000">staff_id </text>
<text text-anchor="start" x="777.5168" y="-353.9" font-family="Arial" font-size="14.00" fill="#666666">[tinyint(3) unsigned]</text>
<polygon fill="none" stroke="#000000" points="721.5,-312.5 721.5,-342.5 940.5,-342.5 940.5,-312.5 721.5,-312.5"/>
<text text-anchor="start" x="728.5" y="-323.9" font-family="Arial" font-size="14.00" fill="#000000">first_name </text>
<text text-anchor="start" x="797.73" y="-323.9" font-family="Arial" font-size="14.00" fill="#666666">[varchar(45)]</text>
<polygon fill="none" stroke="#000000" points="721.5,-282.5 721.5,-312.5 940.5,-312.5 940.5,-282.5 721.5,-282.5"/>
<text text-anchor="start" x="728.5" y="-293.9" font-family="Arial" font-size="14.00" fill="#000000">last_name </text>
<text text-anchor="start" x="796.9614" y="-293.9" font-family="Arial" font-size="14.00" fill="#666666">[varchar(45)]</text>
<polygon fill="none" stroke="#000000" points="721.5,-252.5 721.5,-282.5 940.5,-282.5 940.5,-252.5 721.5,-252.5"/>
<text text-anchor="start" x="728.3163" y="-263.9" font-family="Arial" font-size="14.00" fill="#000000">address_id </text>
<text text-anchor="start" x="800.6697" y="-263.9" font-family="Arial" font-size="14.00" fill="#666666">[smallint(5) unsigned]</text>
<polygon fill="none" stroke="#000000" points="721.5,-222.5 721.5,-252.5 940.5,-252.5 940.5,-222.5 721.5,-222.5"/>
<text text-anchor="start" x="728.5" y="-233.9" font-family="Arial" font-size="14.00" fill="#000000">picture </text>
<text text-anchor="start" x="774.3962" y="-233.9" font-family="Arial" font-size="14.00" fill="#666666">[blob]</text>
<polygon fill="none" stroke="#000000" points="721.5,-192.5 721.5,-222.5 940.5,-222.5 940.5,-192.5 721.5,-192.5"/>
<text text-anchor="start" x="728.5" y="-203.9" font-family="Arial" font-size="14.00" fill="#000000">email </text>
<text text-anchor="start" x="765.8296" y="-203.9" font-family="Arial" font-size="14.00" fill="#666666">[varchar(50)]</text>
<polygon fill="none" stroke="#000000" points="721.5,-162.5 721.5,-192.5 940.5,-192.5 940.5,-162.5 721.5,-162.5"/>
<text text-anchor="start" x="728.5" y="-173.9" font-family="Arial" font-size="14.00" fill="#000000">store_id </text>
<text text-anchor="start" x="782.1788" y="-173.9" font-family="Arial" font-size="14.00" fill="#666666">[tinyint(3) unsigned]</text>
<polygon fill="none" stroke="#000000" points="721.5,-132.5 721.5,-162.5 940.5,-162.5 940.5,-132.5 721.5,-132.5"/>
<text text-anchor="start" x="728.5" y="-143.9" font-family="Arial" font-size="14.00" fill="#000000">active </text>
<text text-anchor="start" x="768.953" y="-143.9" font-family="Arial" font-size="14.00" fill="#666666">[tinyint(1)]</text>
<polygon fill="none" stroke="#000000" points="721.5,-102.5 721.5,-132.5 940.5,-132.5 940.5,-102.5 721.5,-102.5"/>
<text text-anchor="start" x="728.5" y="-113.9" font-family="Arial" font-size="14.00" fill="#000000">username </text>
<text text-anchor="start" x="794.6248" y="-113.9" font-family="Arial" font-size="14.00" fill="#666666">[varchar(16)]</text>
<polygon fill="none" stroke="#000000" points="721.5,-72.5 721.5,-102.5 940.5,-102.5 940.5,-72.5 721.5,-72.5"/>
<text text-anchor="start" x="728.5" y="-83.9" font-family="Arial" font-size="14.00" fill="#000000">password </text>
<text text-anchor="start" x="792.2882" y="-83.9" font-family="Arial" font-size="14.00" fill="#666666">[varchar(40)]</text>
<polygon fill="none" stroke="#000000" points="721.5,-42.5 721.5,-72.5 940.5,-72.5 940.5,-42.5 721.5,-42.5"/>
<text text-anchor="start" x="728.5" y="-53.9" font-family="Arial" font-size="14.00" fill="#000000">last_update </text>
<text text-anchor="start" x="804.7566" y="-53.9" font-family="Arial" font-size="14.00" fill="#666666">[timestamp]</text>
</g>
<!-- rental&#45;&gt;staff -->
<g id="edge4" class="edge">
<title>rental:staff_id&#45;&gt;staff:staff_id</title>
<path fill="none" stroke="#000000" d="M635.6717,-576.7465C724.4204,-562.718 618.4649,-357.5 721.5,-357.5"/>
<polygon fill="#000000" stroke="#000000" points="635.4727,-576.7612 625.1675,-573.0123 630.4863,-577.1306 625.5,-577.5 625.5,-577.5 625.5,-577.5 630.4863,-577.1306 625.8325,-581.9877 635.4727,-576.7612 635.4727,-576.7612"/>
<text text-anchor="start" x="632.2685" y="-587.5" font-family="Arial" font-size="10.00" fill="#000000">FOREIGN KEY (staff_id) REFERENCES staff (staff_id)</text>
</g>
<!-- payment -->
<g id="node2" class="node">
<title>payment</title>
<polygon fill="#efefef" stroke="transparent" points="390.5,-1112.5 390.5,-1147.5 617.5,-1147.5 617.5,-1112.5 390.5,-1112.5"/>
<polygon fill="none" stroke="#000000" points="390.5,-1112.5 390.5,-1147.5 617.5,-1147.5 617.5,-1112.5 390.5,-1112.5"/>
<text text-anchor="start" x="420.8635" y="-1125.3" font-family="Arial Bold" font-size="18.00" fill="#000000">payment</text>
<text text-anchor="start" x="489.8827" y="-1125.3" font-family="Arial" font-size="14.00" fill="#000000"> </text>
<text text-anchor="start" x="493.7733" y="-1125.3" font-family="Arial" font-size="14.00" fill="#666666">[BASE TABLE]</text>
<polygon fill="none" stroke="#000000" points="390.5,-1082.5 390.5,-1112.5 617.5,-1112.5 617.5,-1082.5 390.5,-1082.5"/>
<text text-anchor="start" x="397.5" y="-1093.9" font-family="Arial" font-size="14.00" fill="#000000">payment_id </text>
<text text-anchor="start" x="473.744" y="-1093.9" font-family="Arial" font-size="14.00" fill="#666666">[smallint(5) unsigned]</text>
<polygon fill="none" stroke="#000000" points="390.5,-1052.5 390.5,-1082.5 617.5,-1082.5 617.5,-1052.5 390.5,-1052.5"/>
<text text-anchor="start" x="397.432" y="-1063.9" font-family="Arial" font-size="14.00" fill="#000000">customer_id </text>
<text text-anchor="start" x="477.554" y="-1063.9" font-family="Arial" font-size="14.00" fill="#666666">[smallint(5) unsigned]</text>
<polygon fill="none" stroke="#000000" points="390.5,-1022.5 390.5,-1052.5 617.5,-1052.5 617.5,-1022.5 390.5,-1022.5"/>
<text text-anchor="start" x="397.5" y="-1033.9" font-family="Arial" font-size="14.00" fill="#000000">staff_id </text>
<text text-anchor="start" x="446.5168" y="-1033.9" font-family="Arial" font-size="14.00" fill="#666666">[tinyint(3) unsigned]</text>
<polygon fill="none" stroke="#000000" points="390.5,-992.5 390.5,-1022.5 617.5,-1022.5 617.5,-992.5 390.5,-992.5"/>
<text text-anchor="start" x="397.5" y="-1003.9" font-family="Arial" font-size="14.00" fill="#000000">rental_id </text>
<text text-anchor="start" x="455.068" y="-1003.9" font-family="Arial" font-size="14.00" fill="#666666">[int(11)]</text>
<polygon fill="none" stroke="#000000" points="390.5,-962.5 390.5,-992.5 617.5,-992.5 617.5,-962.5 390.5,-962.5"/>
<text text-anchor="start" x="397.5" y="-973.9" font-family="Arial" font-size="14.00" fill="#000000">amount </text>
<text text-anchor="start" x="448.0722" y="-973.9" font-family="Arial" font-size="14.00" fill="#666666">[decimal(5,2)]</text>
<polygon fill="none" stroke="#000000" points="390.5,-932.5 390.5,-962.5 617.5,-962.5 617.5,-932.5 390.5,-932.5"/>
<text text-anchor="start" x="397.5" y="-943.9" font-family="Arial" font-size="14.00" fill="#000000">payment_date </text>
<text text-anchor="start" x="490.0932" y="-943.9" font-family="Arial" font-size="14.00" fill="#666666">[datetime]</text>
<polygon fill="none" stroke="#000000" points="390.5,-902.5 390.5,-932.5 617.5,-932.5 617.5,-902.5 390.5,-902.5"/>
<text text-anchor="start" x="397.5" y="-913.9" font-family="Arial" font-size="14.00" fill="#000000">last_update </text>
<text text-anchor="start" x="473.7566" y="-913.9" font-family="Arial" font-size="14.00" fill="#666666">[timestamp]</text>
</g>
<!-- payment&#45;&gt;rental -->
<g id="edge1" class="edge">
<title>payment:rental_id&#45;&gt;rental:rental_id</title>
<path fill="none" stroke="#000000" d="M380.2034,-1006.839C265.6579,-991.8652 261.5305,-727.5 382.5,-727.5"/>
<polygon fill="#000000" stroke="#000000" points="380.5205,-1006.8593 390.2117,-1011.9908 385.5103,-1007.1796 390.5,-1007.5 390.5,-1007.5 390.5,-1007.5 385.5103,-1007.1796 390.7883,-1003.0092 380.5205,-1006.8593 380.5205,-1006.8593"/>
<text text-anchor="start" x="121.1065" y="-1017.5" font-family="Arial" font-size="10.00" fill="#000000">FOREIGN KEY (rental_id) REFERENCES rental (rental_id)</text>
</g>
</g>
</svg>
