<?xml version="1.0" encoding="UTF-8" standalone="no"?>
<!DOCTYPE svg PUBLIC "-//W3C//DTD SVG 1.1//EN"
 "http://www.w3.org/Graphics/SVG/1.1/DTD/svg11.dtd">
<!-- Generated by graphviz version 2.40.1 (20161225.0304)
 -->
<!-- Title: sales_by_film_category Pages: 1 -->
<svg width="349pt" height="195pt"
 viewBox="0.00 0.00 349.00 195.00" xmlns="http://www.w3.org/2000/svg" xmlns:xlink="http://www.w3.org/1999/xlink">
<g id="graph0" class="graph" transform="scale(1 1) rotate(0) translate(4 191)">
<title>sales_by_film_category</title>
<polygon fill="#ffffff" stroke="transparent" points="-4,4 -4,-191 345,-191 345,4 -4,4"/>
<!-- sales_by_film_category -->
<g id="node1" class="node">
<title>sales_by_film_category</title>
<polygon fill="#efefef" stroke="transparent" points="46.5,-105.5 46.5,-140.5 295.5,-140.5 295.5,-105.5 46.5,-105.5"/>
<polygon fill="none" stroke="#000000" points="46.5,-105.5 46.5,-140.5 295.5,-140.5 295.5,-105.5 46.5,-105.5"/>
<text text-anchor="start" x="53.2582" y="-118.3" font-family="Arial Bold" font-size="18.00" fill="#000000">sales_by_film_category</text>
<text text-anchor="start" x="241.2916" y="-118.3" font-family="Arial" font-size="14.00" fill="#000000"> </text>
<text text-anchor="start" x="245.1822" y="-118.3" font-family="Arial" font-size="14.00" fill="#666666">[VIEW]</text>
<polygon fill="none" stroke="#000000" points="46.5,-75.5 46.5,-105.5 295.5,-105.5 295.5,-75.5 46.5,-75.5"/>
<text text-anchor="start" x="53.5" y="-86.9" font-family="Arial" font-size="14.00" fill="#000000">category </text>
<text text-anchor="start" x="111.0722" y="-86.9" font-family="Arial" font-size="14.00" fill="#666666">[varchar(25)]</text>
<polygon fill="none" stroke="#000000" points="46.5,-45.5 46.5,-75.5 295.5,-75.5 295.5,-45.5 46.5,-45.5"/>
<text text-anchor="start" x="53.5" y="-56.9" font-family="Arial" font-size="14.00" fill="#000000">total_sales </text>
<text text-anchor="start" x="124.298" y="-56.9" font-family="Arial" font-size="14.00" fill="#666666">[decimal(27,2)]</text>
<polygon fill="none" stroke="#000000" stroke-width="3" points="44.5,-44.5 44.5,-142.5 296.5,-142.5 296.5,-44.5 44.5,-44.5"/>
</g>
</g>
</svg>
