<?xml version="1.0" encoding="UTF-8" standalone="no"?>
<!DOCTYPE svg PUBLIC "-//W3C//DTD SVG 1.1//EN"
 "http://www.w3.org/Graphics/SVG/1.1/DTD/svg11.dtd">
<!-- Generated by graphviz version 2.40.1 (20161225.0304)
 -->
<!-- Title: sales_by_store Pages: 1 -->
<svg width="282pt" height="225pt"
 viewBox="0.00 0.00 282.00 225.00" xmlns="http://www.w3.org/2000/svg" xmlns:xlink="http://www.w3.org/1999/xlink">
<g id="graph0" class="graph" transform="scale(1 1) rotate(0) translate(4 221)">
<title>sales_by_store</title>
<polygon fill="#ffffff" stroke="transparent" points="-4,4 -4,-221 278,-221 278,4 -4,4"/>
<!-- sales_by_store -->
<g id="node1" class="node">
<title>sales_by_store</title>
<polygon fill="#efefef" stroke="transparent" points="46,-135.5 46,-170.5 228,-170.5 228,-135.5 46,-135.5"/>
<polygon fill="none" stroke="#000000" points="46,-135.5 46,-170.5 228,-170.5 228,-135.5 46,-135.5"/>
<text text-anchor="start" x="52.7589" y="-148.3" font-family="Arial Bold" font-size="18.00" fill="#000000">sales_by_store</text>
<text text-anchor="start" x="173.7909" y="-148.3" font-family="Arial" font-size="14.00" fill="#000000"> </text>
<text text-anchor="start" x="177.6815" y="-148.3" font-family="Arial" font-size="14.00" fill="#666666">[VIEW]</text>
<polygon fill="none" stroke="#000000" points="46,-105.5 46,-135.5 228,-135.5 228,-105.5 46,-105.5"/>
<text text-anchor="start" x="53" y="-116.9" font-family="Arial" font-size="14.00" fill="#000000">store </text>
<text text-anchor="start" x="88.007" y="-116.9" font-family="Arial" font-size="14.00" fill="#666666">[varchar(101)]</text>
<polygon fill="none" stroke="#000000" points="46,-75.5 46,-105.5 228,-105.5 228,-75.5 46,-75.5"/>
<text text-anchor="start" x="53" y="-86.9" font-family="Arial" font-size="14.00" fill="#000000">manager </text>
<text text-anchor="start" x="112.1248" y="-86.9" font-family="Arial" font-size="14.00" fill="#666666">[varchar(91)]</text>
<polygon fill="none" stroke="#000000" points="46,-45.5 46,-75.5 228,-75.5 228,-45.5 46,-45.5"/>
<text text-anchor="start" x="53" y="-56.9" font-family="Arial" font-size="14.00" fill="#000000">total_sales </text>
<text text-anchor="start" x="123.798" y="-56.9" font-family="Arial" font-size="14.00" fill="#666666">[decimal(27,2)]</text>
<polygon fill="none" stroke="#000000" stroke-width="3" points="44.5,-44.5 44.5,-172.5 229.5,-172.5 229.5,-44.5 44.5,-44.5"/>
</g>
</g>
</svg>
