<?xml version="1.0" encoding="UTF-8" standalone="no"?>
<!DOCTYPE svg PUBLIC "-//W3C//DTD SVG 1.1//EN"
 "http://www.w3.org/Graphics/SVG/1.1/DTD/svg11.dtd">
<!-- Generated by graphviz version 2.40.1 (20161225.0304)
 -->
<!-- Title: staff_list Pages: 1 -->
<svg width="263pt" height="375pt"
 viewBox="0.00 0.00 263.00 375.00" xmlns="http://www.w3.org/2000/svg" xmlns:xlink="http://www.w3.org/1999/xlink">
<g id="graph0" class="graph" transform="scale(1 1) rotate(0) translate(4 371)">
<title>staff_list</title>
<polygon fill="#ffffff" stroke="transparent" points="-4,4 -4,-371 259,-371 259,4 -4,4"/>
<!-- staff_list -->
<g id="node1" class="node">
<title>staff_list</title>
<polygon fill="#efefef" stroke="transparent" points="46.5,-285.5 46.5,-320.5 209.5,-320.5 209.5,-285.5 46.5,-285.5"/>
<polygon fill="none" stroke="#000000" points="46.5,-285.5 46.5,-320.5 209.5,-320.5 209.5,-285.5 46.5,-285.5"/>
<text text-anchor="start" x="71.2701" y="-298.3" font-family="Arial Bold" font-size="18.00" fill="#000000">staff_list</text>
<text text-anchor="start" x="137.2797" y="-298.3" font-family="Arial" font-size="14.00" fill="#000000"> </text>
<text text-anchor="start" x="141.1703" y="-298.3" font-family="Arial" font-size="14.00" fill="#666666">[VIEW]</text>
<polygon fill="none" stroke="#000000" points="46.5,-255.5 46.5,-285.5 209.5,-285.5 209.5,-255.5 46.5,-255.5"/>
<text text-anchor="start" x="53.5" y="-266.9" font-family="Arial" font-size="14.00" fill="#000000">ID </text>
<text text-anchor="start" x="71.3878" y="-266.9" font-family="Arial" font-size="14.00" fill="#666666">[tinyint(3) unsigned]</text>
<polygon fill="none" stroke="#000000" points="46.5,-225.5 46.5,-255.5 209.5,-255.5 209.5,-225.5 46.5,-225.5"/>
<text text-anchor="start" x="53.5" y="-236.9" font-family="Arial" font-size="14.00" fill="#000000">name </text>
<text text-anchor="start" x="92.399" y="-236.9" font-family="Arial" font-size="14.00" fill="#666666">[varchar(91)]</text>
<polygon fill="none" stroke="#000000" points="46.5,-195.5 46.5,-225.5 209.5,-225.5 209.5,-195.5 46.5,-195.5"/>
<text text-anchor="start" x="53.5" y="-206.9" font-family="Arial" font-size="14.00" fill="#000000">address </text>
<text text-anchor="start" x="107.1816" y="-206.9" font-family="Arial" font-size="14.00" fill="#666666">[varchar(50)]</text>
<polygon fill="none" stroke="#000000" points="46.5,-165.5 46.5,-195.5 209.5,-195.5 209.5,-165.5 46.5,-165.5"/>
<text text-anchor="start" x="53.5" y="-176.9" font-family="Arial" font-size="14.00" fill="#000000">zip code </text>
<text text-anchor="start" x="109.5182" y="-176.9" font-family="Arial" font-size="14.00" fill="#666666">[varchar(10)]</text>
<polygon fill="none" stroke="#000000" points="46.5,-135.5 46.5,-165.5 209.5,-165.5 209.5,-135.5 46.5,-135.5"/>
<text text-anchor="start" x="53.5" y="-146.9" font-family="Arial" font-size="14.00" fill="#000000">phone </text>
<text text-anchor="start" x="96.3036" y="-146.9" font-family="Arial" font-size="14.00" fill="#666666">[varchar(20)]</text>
<polygon fill="none" stroke="#000000" points="46.5,-105.5 46.5,-135.5 209.5,-135.5 209.5,-105.5 46.5,-105.5"/>
<text text-anchor="start" x="53.5" y="-116.9" font-family="Arial" font-size="14.00" fill="#000000">city </text>
<text text-anchor="start" x="78.3878" y="-116.9" font-family="Arial" font-size="14.00" fill="#666666">[varchar(50)]</text>
<polygon fill="none" stroke="#000000" points="46.5,-75.5 46.5,-105.5 209.5,-105.5 209.5,-75.5 46.5,-75.5"/>
<text text-anchor="start" x="53.5" y="-86.9" font-family="Arial" font-size="14.00" fill="#000000">country </text>
<text text-anchor="start" x="103.2896" y="-86.9" font-family="Arial" font-size="14.00" fill="#666666">[varchar(50)]</text>
<polygon fill="none" stroke="#000000" points="46.5,-45.5 46.5,-75.5 209.5,-75.5 209.5,-45.5 46.5,-45.5"/>
<text text-anchor="start" x="53.3191" y="-56.9" font-family="Arial" font-size="14.00" fill="#000000">SID </text>
<text text-anchor="start" x="80.5435" y="-56.9" font-family="Arial" font-size="14.00" fill="#666666">[tinyint(3) unsigned]</text>
<polygon fill="none" stroke="#000000" stroke-width="3" points="44.5,-44.5 44.5,-322.5 210.5,-322.5 210.5,-44.5 44.5,-44.5"/>
</g>
</g>
</svg>
