<?xml version="1.0" encoding="UTF-8" standalone="no"?>
<!DOCTYPE svg PUBLIC "-//W3C//DTD SVG 1.1//EN"
 "http://www.w3.org/Graphics/SVG/1.1/DTD/svg11.dtd">
<!-- Generated by graphviz version 2.40.1 (20161225.0304)
 -->
<!-- Title: staff Pages: 1 -->
<svg width="926pt" height="1259pt"
 viewBox="0.00 0.00 925.50 1259.00" xmlns="http://www.w3.org/2000/svg" xmlns:xlink="http://www.w3.org/1999/xlink">
<g id="graph0" class="graph" transform="scale(1 1) rotate(0) translate(4 1255)">
<title>staff</title>
<polygon fill="#ffffff" stroke="transparent" points="-4,4 -4,-1255 921.5,-1255 921.5,4 -4,4"/>
<!-- staff -->
<g id="node1" class="node">
<title>staff</title>
<polygon fill="#efefef" stroke="transparent" points="317,-802.5 317,-837.5 536,-837.5 536,-802.5 317,-802.5"/>
<polygon fill="none" stroke="#000000" points="317,-802.5 317,-837.5 536,-837.5 536,-802.5 317,-802.5"/>
<text text-anchor="start" x="360.8667" y="-815.3" font-family="Arial Bold" font-size="18.00" fill="#000000">staff</text>
<text text-anchor="start" x="394.8795" y="-815.3" font-family="Arial" font-size="14.00" fill="#000000"> </text>
<text text-anchor="start" x="398.7701" y="-815.3" font-family="Arial" font-size="14.00" fill="#666666">[BASE TABLE]</text>
<polygon fill="none" stroke="#000000" points="317,-772.5 317,-802.5 536,-802.5 536,-772.5 317,-772.5"/>
<text text-anchor="start" x="324" y="-783.9" font-family="Arial" font-size="14.00" fill="#000000">staff_id </text>
<text text-anchor="start" x="373.0168" y="-783.9" font-family="Arial" font-size="14.00" fill="#666666">[tinyint(3) unsigned]</text>
<polygon fill="none" stroke="#000000" points="317,-742.5 317,-772.5 536,-772.5 536,-742.5 317,-742.5"/>
<text text-anchor="start" x="324" y="-753.9" font-family="Arial" font-size="14.00" fill="#000000">first_name </text>
<text text-anchor="start" x="393.23" y="-753.9" font-family="Arial" font-size="14.00" fill="#666666">[varchar(45)]</text>
<polygon fill="none" stroke="#000000" points="317,-712.5 317,-742.5 536,-742.5 536,-712.5 317,-712.5"/>
<text text-anchor="start" x="324" y="-723.9" font-family="Arial" font-size="14.00" fill="#000000">last_name </text>
<text text-anchor="start" x="392.4614" y="-723.9" font-family="Arial" font-size="14.00" fill="#666666">[varchar(45)]</text>
<polygon fill="none" stroke="#000000" points="317,-682.5 317,-712.5 536,-712.5 536,-682.5 317,-682.5"/>
<text text-anchor="start" x="323.8163" y="-693.9" font-family="Arial" font-size="14.00" fill="#000000">address_id </text>
<text text-anchor="start" x="396.1697" y="-693.9" font-family="Arial" font-size="14.00" fill="#666666">[smallint(5) unsigned]</text>
<polygon fill="none" stroke="#000000" points="317,-652.5 317,-682.5 536,-682.5 536,-652.5 317,-652.5"/>
<text text-anchor="start" x="324" y="-663.9" font-family="Arial" font-size="14.00" fill="#000000">picture </text>
<text text-anchor="start" x="369.8962" y="-663.9" font-family="Arial" font-size="14.00" fill="#666666">[blob]</text>
<polygon fill="none" stroke="#000000" points="317,-622.5 317,-652.5 536,-652.5 536,-622.5 317,-622.5"/>
<text text-anchor="start" x="324" y="-633.9" font-family="Arial" font-size="14.00" fill="#000000">email </text>
<text text-anchor="start" x="361.3296" y="-633.9" font-family="Arial" font-size="14.00" fill="#666666">[varchar(50)]</text>
<polygon fill="none" stroke="#000000" points="317,-592.5 317,-622.5 536,-622.5 536,-592.5 317,-592.5"/>
<text text-anchor="start" x="324" y="-603.9" font-family="Arial" font-size="14.00" fill="#000000">store_id </text>
<text text-anchor="start" x="377.6788" y="-603.9" font-family="Arial" font-size="14.00" fill="#666666">[tinyint(3) unsigned]</text>
<polygon fill="none" stroke="#000000" points="317,-562.5 317,-592.5 536,-592.5 536,-562.5 317,-562.5"/>
<text text-anchor="start" x="324" y="-573.9" font-family="Arial" font-size="14.00" fill="#000000">active </text>
<text text-anchor="start" x="364.453" y="-573.9" font-family="Arial" font-size="14.00" fill="#666666">[tinyint(1)]</text>
<polygon fill="none" stroke="#000000" points="317,-532.5 317,-562.5 536,-562.5 536,-532.5 317,-532.5"/>
<text text-anchor="start" x="324" y="-543.9" font-family="Arial" font-size="14.00" fill="#000000">username </text>
<text text-anchor="start" x="390.1248" y="-543.9" font-family="Arial" font-size="14.00" fill="#666666">[varchar(16)]</text>
<polygon fill="none" stroke="#000000" points="317,-502.5 317,-532.5 536,-532.5 536,-502.5 317,-502.5"/>
<text text-anchor="start" x="324" y="-513.9" font-family="Arial" font-size="14.00" fill="#000000">password </text>
<text text-anchor="start" x="387.7882" y="-513.9" font-family="Arial" font-size="14.00" fill="#666666">[varchar(40)]</text>
<polygon fill="none" stroke="#000000" points="317,-472.5 317,-502.5 536,-502.5 536,-472.5 317,-472.5"/>
<text text-anchor="start" x="324" y="-483.9" font-family="Arial" font-size="14.00" fill="#000000">last_update </text>
<text text-anchor="start" x="400.2566" y="-483.9" font-family="Arial" font-size="14.00" fill="#666666">[timestamp]</text>
<polygon fill="none" stroke="#000000" stroke-width="3" points="315,-471.5 315,-839.5 537,-839.5 537,-471.5 315,-471.5"/>
</g>
<!-- store -->
<g id="node4" class="node">
<title>store</title>
<polygon fill="#efefef" stroke="transparent" points="303,-237.5 303,-272.5 551,-272.5 551,-237.5 303,-237.5"/>
<polygon fill="none" stroke="#000000" points="303,-237.5 303,-272.5 551,-272.5 551,-237.5 303,-237.5"/>
<text text-anchor="start" x="358.3697" y="-250.3" font-family="Arial Bold" font-size="18.00" fill="#000000">store</text>
<text text-anchor="start" x="398.3765" y="-250.3" font-family="Arial" font-size="14.00" fill="#000000"> </text>
<text text-anchor="start" x="402.2671" y="-250.3" font-family="Arial" font-size="14.00" fill="#666666">[BASE TABLE]</text>
<polygon fill="none" stroke="#000000" points="303,-207.5 303,-237.5 551,-237.5 551,-207.5 303,-207.5"/>
<text text-anchor="start" x="310" y="-218.9" font-family="Arial" font-size="14.00" fill="#000000">store_id </text>
<text text-anchor="start" x="363.6788" y="-218.9" font-family="Arial" font-size="14.00" fill="#666666">[tinyint(3) unsigned]</text>
<polygon fill="none" stroke="#000000" points="303,-177.5 303,-207.5 551,-207.5 551,-177.5 303,-177.5"/>
<text text-anchor="start" x="309.9145" y="-188.9" font-family="Arial" font-size="14.00" fill="#000000">manager_staff_id </text>
<text text-anchor="start" x="421.9481" y="-188.9" font-family="Arial" font-size="14.00" fill="#666666">[tinyint(3) unsigned]</text>
<polygon fill="none" stroke="#000000" points="303,-147.5 303,-177.5 551,-177.5 551,-147.5 303,-147.5"/>
<text text-anchor="start" x="310" y="-158.9" font-family="Arial" font-size="14.00" fill="#000000">address_id </text>
<text text-anchor="start" x="382.3534" y="-158.9" font-family="Arial" font-size="14.00" fill="#666666">[smallint(5) unsigned]</text>
<polygon fill="none" stroke="#000000" points="303,-117.5 303,-147.5 551,-147.5 551,-117.5 303,-117.5"/>
<text text-anchor="start" x="310" y="-128.9" font-family="Arial" font-size="14.00" fill="#000000">last_update </text>
<text text-anchor="start" x="386.2566" y="-128.9" font-family="Arial" font-size="14.00" fill="#666666">[timestamp]</text>
</g>
<!-- staff&#45;&gt;store -->
<g id="edge5" class="edge">
<title>staff:store_id&#45;&gt;store:store_id</title>
<path fill="none" stroke="#000000" d="M546.1093,-606.8322C612.8513,-597.4683 576.9001,-491.7887 536,-427 474.7681,-330.0042 364.2319,-412.9958 303,-316 280.817,-280.8606 261.4444,-222.5 303,-222.5"/>
<polygon fill="#000000" stroke="#000000" points="545.9783,-606.8408 535.7034,-603.0098 540.9891,-607.1704 536,-607.5 536,-607.5 536,-607.5 540.9891,-607.1704 536.2966,-611.9902 545.9783,-606.8408 545.9783,-606.8408"/>
<text text-anchor="start" x="542.7735" y="-617.5" font-family="Arial" font-size="10.00" fill="#000000">FOREIGN KEY (store_id) REFERENCES store (store_id)</text>
</g>
<!-- address -->
<g id="node5" class="node">
<title>address</title>
<polygon fill="#efefef" stroke="transparent" points="656,-312.5 656,-347.5 875,-347.5 875,-312.5 656,-312.5"/>
<polygon fill="none" stroke="#000000" points="656,-312.5 656,-347.5 875,-347.5 875,-312.5 656,-312.5"/>
<text text-anchor="start" x="684.8646" y="-325.3" font-family="Arial Bold" font-size="18.00" fill="#000000">address</text>
<text text-anchor="start" x="748.8816" y="-325.3" font-family="Arial" font-size="14.00" fill="#000000"> </text>
<text text-anchor="start" x="752.7722" y="-325.3" font-family="Arial" font-size="14.00" fill="#666666">[BASE TABLE]</text>
<polygon fill="none" stroke="#000000" points="656,-282.5 656,-312.5 875,-312.5 875,-282.5 656,-282.5"/>
<text text-anchor="start" x="662.8163" y="-293.9" font-family="Arial" font-size="14.00" fill="#000000">address_id </text>
<text text-anchor="start" x="735.1697" y="-293.9" font-family="Arial" font-size="14.00" fill="#666666">[smallint(5) unsigned]</text>
<polygon fill="none" stroke="#000000" points="656,-252.5 656,-282.5 875,-282.5 875,-252.5 656,-252.5"/>
<text text-anchor="start" x="663" y="-263.9" font-family="Arial" font-size="14.00" fill="#000000">address </text>
<text text-anchor="start" x="716.6816" y="-263.9" font-family="Arial" font-size="14.00" fill="#666666">[varchar(50)]</text>
<polygon fill="none" stroke="#000000" points="656,-222.5 656,-252.5 875,-252.5 875,-222.5 656,-222.5"/>
<text text-anchor="start" x="663" y="-233.9" font-family="Arial" font-size="14.00" fill="#000000">address2 </text>
<text text-anchor="start" x="724.4642" y="-233.9" font-family="Arial" font-size="14.00" fill="#666666">[varchar(50)]</text>
<polygon fill="none" stroke="#000000" points="656,-192.5 656,-222.5 875,-222.5 875,-192.5 656,-192.5"/>
<text text-anchor="start" x="663" y="-203.9" font-family="Arial" font-size="14.00" fill="#000000">district </text>
<text text-anchor="start" x="707.3282" y="-203.9" font-family="Arial" font-size="14.00" fill="#666666">[varchar(20)]</text>
<polygon fill="none" stroke="#000000" points="656,-162.5 656,-192.5 875,-192.5 875,-162.5 656,-162.5"/>
<text text-anchor="start" x="663" y="-173.9" font-family="Arial" font-size="14.00" fill="#000000">city_id </text>
<text text-anchor="start" x="706.5596" y="-173.9" font-family="Arial" font-size="14.00" fill="#666666">[smallint(5) unsigned]</text>
<polygon fill="none" stroke="#000000" points="656,-132.5 656,-162.5 875,-162.5 875,-132.5 656,-132.5"/>
<text text-anchor="start" x="663" y="-143.9" font-family="Arial" font-size="14.00" fill="#000000">postal_code </text>
<text text-anchor="start" x="742.366" y="-143.9" font-family="Arial" font-size="14.00" fill="#666666">[varchar(10)]</text>
<polygon fill="none" stroke="#000000" points="656,-102.5 656,-132.5 875,-132.5 875,-102.5 656,-102.5"/>
<text text-anchor="start" x="663" y="-113.9" font-family="Arial" font-size="14.00" fill="#000000">phone </text>
<text text-anchor="start" x="705.8036" y="-113.9" font-family="Arial" font-size="14.00" fill="#666666">[varchar(20)]</text>
<polygon fill="none" stroke="#000000" points="656,-72.5 656,-102.5 875,-102.5 875,-72.5 656,-72.5"/>
<text text-anchor="start" x="663" y="-83.9" font-family="Arial" font-size="14.00" fill="#000000">location </text>
<text text-anchor="start" x="715.1248" y="-83.9" font-family="Arial" font-size="14.00" fill="#666666">[geometry]</text>
<polygon fill="none" stroke="#000000" points="656,-42.5 656,-72.5 875,-72.5 875,-42.5 656,-42.5"/>
<text text-anchor="start" x="663" y="-53.9" font-family="Arial" font-size="14.00" fill="#000000">last_update </text>
<text text-anchor="start" x="739.2566" y="-53.9" font-family="Arial" font-size="14.00" fill="#666666">[timestamp]</text>
</g>
<!-- staff&#45;&gt;address -->
<g id="edge4" class="edge">
<title>staff:address_id&#45;&gt;address:address_id</title>
<path fill="none" stroke="#000000" d="M546.1691,-695.7166C623.919,-666.8604 566.8224,-297.5 656,-297.5"/>
<polygon fill="#000000" stroke="#000000" points="545.8497,-695.7726 535.2227,-693.0676 540.9248,-696.6363 536,-697.5 536,-697.5 536,-697.5 540.9248,-696.6363 536.7773,-701.9324 545.8497,-695.7726 545.8497,-695.7726"/>
<text text-anchor="start" x="542.765" y="-707.5" font-family="Arial" font-size="10.00" fill="#000000">FOREIGN KEY (address_id) REFERENCES address (address_id)</text>
</g>
<!-- payment -->
<g id="node2" class="node">
<title>payment</title>
<polygon fill="#efefef" stroke="transparent" points="144,-1172.5 144,-1207.5 371,-1207.5 371,-1172.5 144,-1172.5"/>
<polygon fill="none" stroke="#000000" points="144,-1172.5 144,-1207.5 371,-1207.5 371,-1172.5 144,-1172.5"/>
<text text-anchor="start" x="174.3635" y="-1185.3" font-family="Arial Bold" font-size="18.00" fill="#000000">payment</text>
<text text-anchor="start" x="243.3827" y="-1185.3" font-family="Arial" font-size="14.00" fill="#000000"> </text>
<text text-anchor="start" x="247.2733" y="-1185.3" font-family="Arial" font-size="14.00" fill="#666666">[BASE TABLE]</text>
<polygon fill="none" stroke="#000000" points="144,-1142.5 144,-1172.5 371,-1172.5 371,-1142.5 144,-1142.5"/>
<text text-anchor="start" x="151" y="-1153.9" font-family="Arial" font-size="14.00" fill="#000000">payment_id </text>
<text text-anchor="start" x="227.244" y="-1153.9" font-family="Arial" font-size="14.00" fill="#666666">[smallint(5) unsigned]</text>
<polygon fill="none" stroke="#000000" points="144,-1112.5 144,-1142.5 371,-1142.5 371,-1112.5 144,-1112.5"/>
<text text-anchor="start" x="150.932" y="-1123.9" font-family="Arial" font-size="14.00" fill="#000000">customer_id </text>
<text text-anchor="start" x="231.054" y="-1123.9" font-family="Arial" font-size="14.00" fill="#666666">[smallint(5) unsigned]</text>
<polygon fill="none" stroke="#000000" points="144,-1082.5 144,-1112.5 371,-1112.5 371,-1082.5 144,-1082.5"/>
<text text-anchor="start" x="151" y="-1093.9" font-family="Arial" font-size="14.00" fill="#000000">staff_id </text>
<text text-anchor="start" x="200.0168" y="-1093.9" font-family="Arial" font-size="14.00" fill="#666666">[tinyint(3) unsigned]</text>
<polygon fill="none" stroke="#000000" points="144,-1052.5 144,-1082.5 371,-1082.5 371,-1052.5 144,-1052.5"/>
<text text-anchor="start" x="151" y="-1063.9" font-family="Arial" font-size="14.00" fill="#000000">rental_id </text>
<text text-anchor="start" x="208.568" y="-1063.9" font-family="Arial" font-size="14.00" fill="#666666">[int(11)]</text>
<polygon fill="none" stroke="#000000" points="144,-1022.5 144,-1052.5 371,-1052.5 371,-1022.5 144,-1022.5"/>
<text text-anchor="start" x="151" y="-1033.9" font-family="Arial" font-size="14.00" fill="#000000">amount </text>
<text text-anchor="start" x="201.5722" y="-1033.9" font-family="Arial" font-size="14.00" fill="#666666">[decimal(5,2)]</text>
<polygon fill="none" stroke="#000000" points="144,-992.5 144,-1022.5 371,-1022.5 371,-992.5 144,-992.5"/>
<text text-anchor="start" x="151" y="-1003.9" font-family="Arial" font-size="14.00" fill="#000000">payment_date </text>
<text text-anchor="start" x="243.5932" y="-1003.9" font-family="Arial" font-size="14.00" fill="#666666">[datetime]</text>
<polygon fill="none" stroke="#000000" points="144,-962.5 144,-992.5 371,-992.5 371,-962.5 144,-962.5"/>
<text text-anchor="start" x="151" y="-973.9" font-family="Arial" font-size="14.00" fill="#000000">last_update </text>
<text text-anchor="start" x="227.2566" y="-973.9" font-family="Arial" font-size="14.00" fill="#666666">[timestamp]</text>
</g>
<!-- payment&#45;&gt;staff -->
<g id="edge1" class="edge">
<title>payment:staff_id&#45;&gt;staff:staff_id</title>
<path fill="none" stroke="#000000" d="M381.312,-1096.8035C445.9926,-1087.4644 406.4795,-986.294 371,-920 357.3895,-894.5686 330.6105,-909.4314 317,-884 296.7625,-846.186 274.1111,-787.5 317,-787.5"/>
<polygon fill="#000000" stroke="#000000" points="380.9773,-1096.826 370.6967,-1093.0102 375.9886,-1097.163 371,-1097.5 371,-1097.5 371,-1097.5 375.9886,-1097.163 371.3033,-1101.9898 380.9773,-1096.826 380.9773,-1096.826"/>
<text text-anchor="start" x="377.7685" y="-1107.5" font-family="Arial" font-size="10.00" fill="#000000">FOREIGN KEY (staff_id) REFERENCES staff (staff_id)</text>
</g>
<!-- rental -->
<g id="node3" class="node">
<title>rental</title>
<polygon fill="#efefef" stroke="transparent" points="475,-1172.5 475,-1207.5 718,-1207.5 718,-1172.5 475,-1172.5"/>
<polygon fill="none" stroke="#000000" points="475,-1172.5 475,-1207.5 718,-1207.5 718,-1172.5 475,-1172.5"/>
<text text-anchor="start" x="525.3695" y="-1185.3" font-family="Arial Bold" font-size="18.00" fill="#000000">rental</text>
<text text-anchor="start" x="570.3767" y="-1185.3" font-family="Arial" font-size="14.00" fill="#000000"> </text>
<text text-anchor="start" x="574.2673" y="-1185.3" font-family="Arial" font-size="14.00" fill="#666666">[BASE TABLE]</text>
<polygon fill="none" stroke="#000000" points="475,-1142.5 475,-1172.5 718,-1172.5 718,-1142.5 475,-1142.5"/>
<text text-anchor="start" x="482" y="-1153.9" font-family="Arial" font-size="14.00" fill="#000000">rental_id </text>
<text text-anchor="start" x="539.568" y="-1153.9" font-family="Arial" font-size="14.00" fill="#666666">[int(11)]</text>
<polygon fill="none" stroke="#000000" points="475,-1112.5 475,-1142.5 718,-1142.5 718,-1112.5 475,-1112.5"/>
<text text-anchor="start" x="482" y="-1123.9" font-family="Arial" font-size="14.00" fill="#000000">rental_date </text>
<text text-anchor="start" x="555.9172" y="-1123.9" font-family="Arial" font-size="14.00" fill="#666666">[datetime]</text>
<polygon fill="none" stroke="#000000" points="475,-1082.5 475,-1112.5 718,-1112.5 718,-1082.5 475,-1082.5"/>
<text text-anchor="start" x="481.7581" y="-1093.9" font-family="Arial" font-size="14.00" fill="#000000">inventory_id </text>
<text text-anchor="start" x="561.1087" y="-1093.9" font-family="Arial" font-size="14.00" fill="#666666">[mediumint(8) unsigned]</text>
<polygon fill="none" stroke="#000000" points="475,-1052.5 475,-1082.5 718,-1082.5 718,-1052.5 475,-1052.5"/>
<text text-anchor="start" x="482" y="-1063.9" font-family="Arial" font-size="14.00" fill="#000000">customer_id </text>
<text text-anchor="start" x="562.122" y="-1063.9" font-family="Arial" font-size="14.00" fill="#666666">[smallint(5) unsigned]</text>
<polygon fill="none" stroke="#000000" points="475,-1022.5 475,-1052.5 718,-1052.5 718,-1022.5 475,-1022.5"/>
<text text-anchor="start" x="482" y="-1033.9" font-family="Arial" font-size="14.00" fill="#000000">return_date </text>
<text text-anchor="start" x="557.4712" y="-1033.9" font-family="Arial" font-size="14.00" fill="#666666">[datetime]</text>
<polygon fill="none" stroke="#000000" points="475,-992.5 475,-1022.5 718,-1022.5 718,-992.5 475,-992.5"/>
<text text-anchor="start" x="482" y="-1003.9" font-family="Arial" font-size="14.00" fill="#000000">staff_id </text>
<text text-anchor="start" x="531.0168" y="-1003.9" font-family="Arial" font-size="14.00" fill="#666666">[tinyint(3) unsigned]</text>
<polygon fill="none" stroke="#000000" points="475,-962.5 475,-992.5 718,-992.5 718,-962.5 475,-962.5"/>
<text text-anchor="start" x="482" y="-973.9" font-family="Arial" font-size="14.00" fill="#000000">last_update </text>
<text text-anchor="start" x="558.2566" y="-973.9" font-family="Arial" font-size="14.00" fill="#666666">[timestamp]</text>
</g>
<!-- rental&#45;&gt;staff -->
<g id="edge2" class="edge">
<title>rental:staff_id&#45;&gt;staff:staff_id</title>
<path fill="none" stroke="#000000" d="M464.8995,-1005.9146C440.0902,-996.7922 457.6752,-950.3414 475,-920 490.6097,-892.6623 520.3903,-911.3377 536,-884 557.2667,-846.7551 578.8889,-787.5 536,-787.5"/>
<polygon fill="#000000" stroke="#000000" points="465.121,-1005.9492 474.3022,-1011.9456 470.0605,-1006.7246 475,-1007.5 475,-1007.5 475,-1007.5 470.0605,-1006.7246 475.6978,-1003.0544 465.121,-1005.9492 465.121,-1005.9492"/>
<text text-anchor="start" x="481.7685" y="-1017.5" font-family="Arial" font-size="10.00" fill="#000000">FOREIGN KEY (staff_id) REFERENCES staff (staff_id)</text>
</g>
<!-- store&#45;&gt;staff -->
<g id="edge3" class="edge">
<title>store:manager_staff_id&#45;&gt;staff:staff_id</title>
<path fill="none" stroke="#000000" d="M292.8472,-193.5462C251.6269,-202.8958 275.7025,-272.7587 303,-316 364.2319,-412.9958 474.7681,-330.0042 536,-427 621.529,-562.4842 696.2222,-787.5 536,-787.5"/>
<polygon fill="#000000" stroke="#000000" points="293.0527,-193.5252 303.4613,-196.9763 298.0263,-193.0126 303,-192.5 303,-192.5 303,-192.5 298.0263,-193.0126 302.5387,-188.0237 293.0527,-193.5252 293.0527,-193.5252"/>
<text text-anchor="start" x="7.2625" y="-202.5" font-family="Arial" font-size="10.00" fill="#000000">FOREIGN KEY (manager_staff_id) REFERENCES staff (staff_id)</text>
</g>
</g>
</svg>
