<?xml version="1.0" encoding="UTF-8" standalone="no"?>
<!DOCTYPE svg PUBLIC "-//W3C//DTD SVG 1.1//EN"
 "http://www.w3.org/Graphics/SVG/1.1/DTD/svg11.dtd">
<!-- Generated by graphviz version 2.40.1 (20161225.0304)
 -->
<!-- Title: store Pages: 1 -->
<svg width="910pt" height="1169pt"
 viewBox="0.00 0.00 909.50 1169.00" xmlns="http://www.w3.org/2000/svg" xmlns:xlink="http://www.w3.org/1999/xlink">
<g id="graph0" class="graph" transform="scale(1 1) rotate(0) translate(4 1165)">
<title>store</title>
<polygon fill="#ffffff" stroke="transparent" points="-4,4 -4,-1165 905.5,-1165 905.5,4 -4,4"/>
<!-- store -->
<g id="node1" class="node">
<title>store</title>
<polygon fill="#efefef" stroke="transparent" points="303,-652.5 303,-687.5 551,-687.5 551,-652.5 303,-652.5"/>
<polygon fill="none" stroke="#000000" points="303,-652.5 303,-687.5 551,-687.5 551,-652.5 303,-652.5"/>
<text text-anchor="start" x="358.3697" y="-665.3" font-family="Arial Bold" font-size="18.00" fill="#000000">store</text>
<text text-anchor="start" x="398.3765" y="-665.3" font-family="Arial" font-size="14.00" fill="#000000"> </text>
<text text-anchor="start" x="402.2671" y="-665.3" font-family="Arial" font-size="14.00" fill="#666666">[BASE TABLE]</text>
<polygon fill="none" stroke="#000000" points="303,-622.5 303,-652.5 551,-652.5 551,-622.5 303,-622.5"/>
<text text-anchor="start" x="310" y="-633.9" font-family="Arial" font-size="14.00" fill="#000000">store_id </text>
<text text-anchor="start" x="363.6788" y="-633.9" font-family="Arial" font-size="14.00" fill="#666666">[tinyint(3) unsigned]</text>
<polygon fill="none" stroke="#000000" points="303,-592.5 303,-622.5 551,-622.5 551,-592.5 303,-592.5"/>
<text text-anchor="start" x="309.9145" y="-603.9" font-family="Arial" font-size="14.00" fill="#000000">manager_staff_id </text>
<text text-anchor="start" x="421.9481" y="-603.9" font-family="Arial" font-size="14.00" fill="#666666">[tinyint(3) unsigned]</text>
<polygon fill="none" stroke="#000000" points="303,-562.5 303,-592.5 551,-592.5 551,-562.5 303,-562.5"/>
<text text-anchor="start" x="310" y="-573.9" font-family="Arial" font-size="14.00" fill="#000000">address_id </text>
<text text-anchor="start" x="382.3534" y="-573.9" font-family="Arial" font-size="14.00" fill="#666666">[smallint(5) unsigned]</text>
<polygon fill="none" stroke="#000000" points="303,-532.5 303,-562.5 551,-562.5 551,-532.5 303,-532.5"/>
<text text-anchor="start" x="310" y="-543.9" font-family="Arial" font-size="14.00" fill="#000000">last_update </text>
<text text-anchor="start" x="386.2566" y="-543.9" font-family="Arial" font-size="14.00" fill="#666666">[timestamp]</text>
<polygon fill="none" stroke="#000000" stroke-width="3" points="301.5,-531.5 301.5,-689.5 552.5,-689.5 552.5,-531.5 301.5,-531.5"/>
</g>
<!-- staff -->
<g id="node4" class="node">
<title>staff</title>
<polygon fill="#efefef" stroke="transparent" points="317,-372.5 317,-407.5 536,-407.5 536,-372.5 317,-372.5"/>
<polygon fill="none" stroke="#000000" points="317,-372.5 317,-407.5 536,-407.5 536,-372.5 317,-372.5"/>
<text text-anchor="start" x="360.8667" y="-385.3" font-family="Arial Bold" font-size="18.00" fill="#000000">staff</text>
<text text-anchor="start" x="394.8795" y="-385.3" font-family="Arial" font-size="14.00" fill="#000000"> </text>
<text text-anchor="start" x="398.7701" y="-385.3" font-family="Arial" font-size="14.00" fill="#666666">[BASE TABLE]</text>
<polygon fill="none" stroke="#000000" points="317,-342.5 317,-372.5 536,-372.5 536,-342.5 317,-342.5"/>
<text text-anchor="start" x="324" y="-353.9" font-family="Arial" font-size="14.00" fill="#000000">staff_id </text>
<text text-anchor="start" x="373.0168" y="-353.9" font-family="Arial" font-size="14.00" fill="#666666">[tinyint(3) unsigned]</text>
<polygon fill="none" stroke="#000000" points="317,-312.5 317,-342.5 536,-342.5 536,-312.5 317,-312.5"/>
<text text-anchor="start" x="324" y="-323.9" font-family="Arial" font-size="14.00" fill="#000000">first_name </text>
<text text-anchor="start" x="393.23" y="-323.9" font-family="Arial" font-size="14.00" fill="#666666">[varchar(45)]</text>
<polygon fill="none" stroke="#000000" points="317,-282.5 317,-312.5 536,-312.5 536,-282.5 317,-282.5"/>
<text text-anchor="start" x="324" y="-293.9" font-family="Arial" font-size="14.00" fill="#000000">last_name </text>
<text text-anchor="start" x="392.4614" y="-293.9" font-family="Arial" font-size="14.00" fill="#666666">[varchar(45)]</text>
<polygon fill="none" stroke="#000000" points="317,-252.5 317,-282.5 536,-282.5 536,-252.5 317,-252.5"/>
<text text-anchor="start" x="323.8163" y="-263.9" font-family="Arial" font-size="14.00" fill="#000000">address_id </text>
<text text-anchor="start" x="396.1697" y="-263.9" font-family="Arial" font-size="14.00" fill="#666666">[smallint(5) unsigned]</text>
<polygon fill="none" stroke="#000000" points="317,-222.5 317,-252.5 536,-252.5 536,-222.5 317,-222.5"/>
<text text-anchor="start" x="324" y="-233.9" font-family="Arial" font-size="14.00" fill="#000000">picture </text>
<text text-anchor="start" x="369.8962" y="-233.9" font-family="Arial" font-size="14.00" fill="#666666">[blob]</text>
<polygon fill="none" stroke="#000000" points="317,-192.5 317,-222.5 536,-222.5 536,-192.5 317,-192.5"/>
<text text-anchor="start" x="324" y="-203.9" font-family="Arial" font-size="14.00" fill="#000000">email </text>
<text text-anchor="start" x="361.3296" y="-203.9" font-family="Arial" font-size="14.00" fill="#666666">[varchar(50)]</text>
<polygon fill="none" stroke="#000000" points="317,-162.5 317,-192.5 536,-192.5 536,-162.5 317,-162.5"/>
<text text-anchor="start" x="324" y="-173.9" font-family="Arial" font-size="14.00" fill="#000000">store_id </text>
<text text-anchor="start" x="377.6788" y="-173.9" font-family="Arial" font-size="14.00" fill="#666666">[tinyint(3) unsigned]</text>
<polygon fill="none" stroke="#000000" points="317,-132.5 317,-162.5 536,-162.5 536,-132.5 317,-132.5"/>
<text text-anchor="start" x="324" y="-143.9" font-family="Arial" font-size="14.00" fill="#000000">active </text>
<text text-anchor="start" x="364.453" y="-143.9" font-family="Arial" font-size="14.00" fill="#666666">[tinyint(1)]</text>
<polygon fill="none" stroke="#000000" points="317,-102.5 317,-132.5 536,-132.5 536,-102.5 317,-102.5"/>
<text text-anchor="start" x="324" y="-113.9" font-family="Arial" font-size="14.00" fill="#000000">username </text>
<text text-anchor="start" x="390.1248" y="-113.9" font-family="Arial" font-size="14.00" fill="#666666">[varchar(16)]</text>
<polygon fill="none" stroke="#000000" points="317,-72.5 317,-102.5 536,-102.5 536,-72.5 317,-72.5"/>
<text text-anchor="start" x="324" y="-83.9" font-family="Arial" font-size="14.00" fill="#000000">password </text>
<text text-anchor="start" x="387.7882" y="-83.9" font-family="Arial" font-size="14.00" fill="#666666">[varchar(40)]</text>
<polygon fill="none" stroke="#000000" points="317,-42.5 317,-72.5 536,-72.5 536,-42.5 317,-42.5"/>
<text text-anchor="start" x="324" y="-53.9" font-family="Arial" font-size="14.00" fill="#000000">last_update </text>
<text text-anchor="start" x="400.2566" y="-53.9" font-family="Arial" font-size="14.00" fill="#666666">[timestamp]</text>
</g>
<!-- store&#45;&gt;staff -->
<g id="edge4" class="edge">
<title>store:manager_staff_id&#45;&gt;staff:staff_id</title>
<path fill="none" stroke="#000000" d="M293.0119,-606.4187C252.0762,-596.7672 270.5243,-524.8787 303,-487 371.2027,-407.4503 467.7973,-530.5497 536,-451 563.0479,-419.452 577.5556,-357.5 536,-357.5"/>
<polygon fill="#000000" stroke="#000000" points="293.0581,-606.4236 302.5156,-611.9739 298.029,-606.9618 303,-607.5 303,-607.5 303,-607.5 298.029,-606.9618 303.4844,-603.0261 293.0581,-606.4236 293.0581,-606.4236"/>
<text text-anchor="start" x="7.2625" y="-617.5" font-family="Arial" font-size="10.00" fill="#000000">FOREIGN KEY (manager_staff_id) REFERENCES staff (staff_id)</text>
</g>
<!-- address -->
<g id="node5" class="node">
<title>address</title>
<polygon fill="#efefef" stroke="transparent" points="640,-342.5 640,-377.5 859,-377.5 859,-342.5 640,-342.5"/>
<polygon fill="none" stroke="#000000" points="640,-342.5 640,-377.5 859,-377.5 859,-342.5 640,-342.5"/>
<text text-anchor="start" x="668.8646" y="-355.3" font-family="Arial Bold" font-size="18.00" fill="#000000">address</text>
<text text-anchor="start" x="732.8816" y="-355.3" font-family="Arial" font-size="14.00" fill="#000000"> </text>
<text text-anchor="start" x="736.7722" y="-355.3" font-family="Arial" font-size="14.00" fill="#666666">[BASE TABLE]</text>
<polygon fill="none" stroke="#000000" points="640,-312.5 640,-342.5 859,-342.5 859,-312.5 640,-312.5"/>
<text text-anchor="start" x="646.8163" y="-323.9" font-family="Arial" font-size="14.00" fill="#000000">address_id </text>
<text text-anchor="start" x="719.1697" y="-323.9" font-family="Arial" font-size="14.00" fill="#666666">[smallint(5) unsigned]</text>
<polygon fill="none" stroke="#000000" points="640,-282.5 640,-312.5 859,-312.5 859,-282.5 640,-282.5"/>
<text text-anchor="start" x="647" y="-293.9" font-family="Arial" font-size="14.00" fill="#000000">address </text>
<text text-anchor="start" x="700.6816" y="-293.9" font-family="Arial" font-size="14.00" fill="#666666">[varchar(50)]</text>
<polygon fill="none" stroke="#000000" points="640,-252.5 640,-282.5 859,-282.5 859,-252.5 640,-252.5"/>
<text text-anchor="start" x="647" y="-263.9" font-family="Arial" font-size="14.00" fill="#000000">address2 </text>
<text text-anchor="start" x="708.4642" y="-263.9" font-family="Arial" font-size="14.00" fill="#666666">[varchar(50)]</text>
<polygon fill="none" stroke="#000000" points="640,-222.5 640,-252.5 859,-252.5 859,-222.5 640,-222.5"/>
<text text-anchor="start" x="647" y="-233.9" font-family="Arial" font-size="14.00" fill="#000000">district </text>
<text text-anchor="start" x="691.3282" y="-233.9" font-family="Arial" font-size="14.00" fill="#666666">[varchar(20)]</text>
<polygon fill="none" stroke="#000000" points="640,-192.5 640,-222.5 859,-222.5 859,-192.5 640,-192.5"/>
<text text-anchor="start" x="647" y="-203.9" font-family="Arial" font-size="14.00" fill="#000000">city_id </text>
<text text-anchor="start" x="690.5596" y="-203.9" font-family="Arial" font-size="14.00" fill="#666666">[smallint(5) unsigned]</text>
<polygon fill="none" stroke="#000000" points="640,-162.5 640,-192.5 859,-192.5 859,-162.5 640,-162.5"/>
<text text-anchor="start" x="647" y="-173.9" font-family="Arial" font-size="14.00" fill="#000000">postal_code </text>
<text text-anchor="start" x="726.366" y="-173.9" font-family="Arial" font-size="14.00" fill="#666666">[varchar(10)]</text>
<polygon fill="none" stroke="#000000" points="640,-132.5 640,-162.5 859,-162.5 859,-132.5 640,-132.5"/>
<text text-anchor="start" x="647" y="-143.9" font-family="Arial" font-size="14.00" fill="#000000">phone </text>
<text text-anchor="start" x="689.8036" y="-143.9" font-family="Arial" font-size="14.00" fill="#666666">[varchar(20)]</text>
<polygon fill="none" stroke="#000000" points="640,-102.5 640,-132.5 859,-132.5 859,-102.5 640,-102.5"/>
<text text-anchor="start" x="647" y="-113.9" font-family="Arial" font-size="14.00" fill="#000000">location </text>
<text text-anchor="start" x="699.1248" y="-113.9" font-family="Arial" font-size="14.00" fill="#666666">[geometry]</text>
<polygon fill="none" stroke="#000000" points="640,-72.5 640,-102.5 859,-102.5 859,-72.5 640,-72.5"/>
<text text-anchor="start" x="647" y="-83.9" font-family="Arial" font-size="14.00" fill="#000000">last_update </text>
<text text-anchor="start" x="723.2566" y="-83.9" font-family="Arial" font-size="14.00" fill="#666666">[timestamp]</text>
</g>
<!-- store&#45;&gt;address -->
<g id="edge5" class="edge">
<title>store:address_id&#45;&gt;address:address_id</title>
<path fill="none" stroke="#000000" d="M560.9981,-576.8265C660.2914,-562.5924 525.6285,-327.5 640,-327.5"/>
<polygon fill="#000000" stroke="#000000" points="560.9774,-576.8278 550.6975,-573.0102 555.9887,-577.1639 551,-577.5 551,-577.5 551,-577.5 555.9887,-577.1639 551.3025,-581.9898 560.9774,-576.8278 560.9774,-576.8278"/>
<text text-anchor="start" x="557.765" y="-587.5" font-family="Arial" font-size="10.00" fill="#000000">FOREIGN KEY (address_id) REFERENCES address (address_id)</text>
</g>
<!-- customer -->
<g id="node2" class="node">
<title>customer</title>
<polygon fill="#efefef" stroke="transparent" points="144,-1082.5 144,-1117.5 371,-1117.5 371,-1082.5 144,-1082.5"/>
<polygon fill="none" stroke="#000000" points="144,-1082.5 144,-1117.5 371,-1117.5 371,-1082.5 144,-1082.5"/>
<text text-anchor="start" x="171.8705" y="-1095.3" font-family="Arial Bold" font-size="18.00" fill="#000000">customer</text>
<text text-anchor="start" x="245.8757" y="-1095.3" font-family="Arial" font-size="14.00" fill="#000000"> </text>
<text text-anchor="start" x="249.7663" y="-1095.3" font-family="Arial" font-size="14.00" fill="#666666">[BASE TABLE]</text>
<polygon fill="none" stroke="#000000" points="144,-1052.5 144,-1082.5 371,-1082.5 371,-1052.5 144,-1052.5"/>
<text text-anchor="start" x="150.932" y="-1063.9" font-family="Arial" font-size="14.00" fill="#000000">customer_id </text>
<text text-anchor="start" x="231.054" y="-1063.9" font-family="Arial" font-size="14.00" fill="#666666">[smallint(5) unsigned]</text>
<polygon fill="none" stroke="#000000" points="144,-1022.5 144,-1052.5 371,-1052.5 371,-1022.5 144,-1022.5"/>
<text text-anchor="start" x="151" y="-1033.9" font-family="Arial" font-size="14.00" fill="#000000">store_id </text>
<text text-anchor="start" x="204.6788" y="-1033.9" font-family="Arial" font-size="14.00" fill="#666666">[tinyint(3) unsigned]</text>
<polygon fill="none" stroke="#000000" points="144,-992.5 144,-1022.5 371,-1022.5 371,-992.5 144,-992.5"/>
<text text-anchor="start" x="151" y="-1003.9" font-family="Arial" font-size="14.00" fill="#000000">first_name </text>
<text text-anchor="start" x="220.23" y="-1003.9" font-family="Arial" font-size="14.00" fill="#666666">[varchar(45)]</text>
<polygon fill="none" stroke="#000000" points="144,-962.5 144,-992.5 371,-992.5 371,-962.5 144,-962.5"/>
<text text-anchor="start" x="151" y="-973.9" font-family="Arial" font-size="14.00" fill="#000000">last_name </text>
<text text-anchor="start" x="219.4614" y="-973.9" font-family="Arial" font-size="14.00" fill="#666666">[varchar(45)]</text>
<polygon fill="none" stroke="#000000" points="144,-932.5 144,-962.5 371,-962.5 371,-932.5 144,-932.5"/>
<text text-anchor="start" x="151" y="-943.9" font-family="Arial" font-size="14.00" fill="#000000">email </text>
<text text-anchor="start" x="188.3296" y="-943.9" font-family="Arial" font-size="14.00" fill="#666666">[varchar(50)]</text>
<polygon fill="none" stroke="#000000" points="144,-902.5 144,-932.5 371,-932.5 371,-902.5 144,-902.5"/>
<text text-anchor="start" x="151" y="-913.9" font-family="Arial" font-size="14.00" fill="#000000">address_id </text>
<text text-anchor="start" x="223.3534" y="-913.9" font-family="Arial" font-size="14.00" fill="#666666">[smallint(5) unsigned]</text>
<polygon fill="none" stroke="#000000" points="144,-872.5 144,-902.5 371,-902.5 371,-872.5 144,-872.5"/>
<text text-anchor="start" x="151" y="-883.9" font-family="Arial" font-size="14.00" fill="#000000">active </text>
<text text-anchor="start" x="191.453" y="-883.9" font-family="Arial" font-size="14.00" fill="#666666">[tinyint(1)]</text>
<polygon fill="none" stroke="#000000" points="144,-842.5 144,-872.5 371,-872.5 371,-842.5 144,-842.5"/>
<text text-anchor="start" x="151" y="-853.9" font-family="Arial" font-size="14.00" fill="#000000">create_date </text>
<text text-anchor="start" x="228.8106" y="-853.9" font-family="Arial" font-size="14.00" fill="#666666">[datetime]</text>
<polygon fill="none" stroke="#000000" points="144,-812.5 144,-842.5 371,-842.5 371,-812.5 144,-812.5"/>
<text text-anchor="start" x="151" y="-823.9" font-family="Arial" font-size="14.00" fill="#000000">last_update </text>
<text text-anchor="start" x="227.2566" y="-823.9" font-family="Arial" font-size="14.00" fill="#666666">[timestamp]</text>
</g>
<!-- customer&#45;&gt;store -->
<g id="edge1" class="edge">
<title>customer:store_id&#45;&gt;store:store_id</title>
<path fill="none" stroke="#000000" d="M380.8464,-1035.203C426.9522,-1011.8815 399.8053,-817.8429 371,-770 353.3614,-740.7039 320.6386,-763.2961 303,-734 280.8776,-697.2569 260.1111,-637.5 303,-637.5"/>
<polygon fill="#000000" stroke="#000000" points="380.7385,-1035.2281 369.9776,-1033.1177 375.8693,-1036.364 371,-1037.5 371,-1037.5 371,-1037.5 375.8693,-1036.364 372.0224,-1041.8823 380.7385,-1035.2281 380.7385,-1035.2281"/>
<text text-anchor="start" x="377.7735" y="-1047.5" font-family="Arial" font-size="10.00" fill="#000000">FOREIGN KEY (store_id) REFERENCES store (store_id)</text>
</g>
<!-- inventory -->
<g id="node3" class="node">
<title>inventory</title>
<polygon fill="#efefef" stroke="transparent" points="475,-1007.5 475,-1042.5 718,-1042.5 718,-1007.5 475,-1007.5"/>
<polygon fill="none" stroke="#000000" points="475,-1007.5 475,-1042.5 718,-1042.5 718,-1007.5 475,-1007.5"/>
<text text-anchor="start" x="511.3664" y="-1020.3" font-family="Arial Bold" font-size="18.00" fill="#000000">inventory</text>
<text text-anchor="start" x="584.3798" y="-1020.3" font-family="Arial" font-size="14.00" fill="#000000"> </text>
<text text-anchor="start" x="588.2704" y="-1020.3" font-family="Arial" font-size="14.00" fill="#666666">[BASE TABLE]</text>
<polygon fill="none" stroke="#000000" points="475,-977.5 475,-1007.5 718,-1007.5 718,-977.5 475,-977.5"/>
<text text-anchor="start" x="481.7581" y="-988.9" font-family="Arial" font-size="14.00" fill="#000000">inventory_id </text>
<text text-anchor="start" x="561.1087" y="-988.9" font-family="Arial" font-size="14.00" fill="#666666">[mediumint(8) unsigned]</text>
<polygon fill="none" stroke="#000000" points="475,-947.5 475,-977.5 718,-977.5 718,-947.5 475,-947.5"/>
<text text-anchor="start" x="482" y="-958.9" font-family="Arial" font-size="14.00" fill="#000000">film_id </text>
<text text-anchor="start" x="526.3268" y="-958.9" font-family="Arial" font-size="14.00" fill="#666666">[smallint(5) unsigned]</text>
<polygon fill="none" stroke="#000000" points="475,-917.5 475,-947.5 718,-947.5 718,-917.5 475,-917.5"/>
<text text-anchor="start" x="482" y="-928.9" font-family="Arial" font-size="14.00" fill="#000000">store_id </text>
<text text-anchor="start" x="535.6788" y="-928.9" font-family="Arial" font-size="14.00" fill="#666666">[tinyint(3) unsigned]</text>
<polygon fill="none" stroke="#000000" points="475,-887.5 475,-917.5 718,-917.5 718,-887.5 475,-887.5"/>
<text text-anchor="start" x="482" y="-898.9" font-family="Arial" font-size="14.00" fill="#000000">last_update </text>
<text text-anchor="start" x="558.2566" y="-898.9" font-family="Arial" font-size="14.00" fill="#666666">[timestamp]</text>
</g>
<!-- inventory&#45;&gt;store -->
<g id="edge2" class="edge">
<title>inventory:store_id&#45;&gt;store:store_id</title>
<path fill="none" stroke="#000000" d="M464.8107,-930.8943C441.7118,-922.0261 464.7134,-878.2317 475,-845 492.6795,-787.8848 533.3205,-791.1152 551,-734 563.6822,-693.029 593.8889,-637.5 551,-637.5"/>
<polygon fill="#000000" stroke="#000000" points="465.1219,-930.9433 474.2995,-936.9451 470.0609,-931.7216 475,-932.5 475,-932.5 475,-932.5 470.0609,-931.7216 475.7005,-928.0549 465.1219,-930.9433 465.1219,-930.9433"/>
<text text-anchor="start" x="481.7735" y="-942.5" font-family="Arial" font-size="10.00" fill="#000000">FOREIGN KEY (store_id) REFERENCES store (store_id)</text>
</g>
<!-- staff&#45;&gt;store -->
<g id="edge3" class="edge">
<title>staff:store_id&#45;&gt;store:store_id</title>
<path fill="none" stroke="#000000" d="M545.8519,-179.7595C594.2283,-203.5215 573.2415,-407.5626 536,-451 467.7973,-530.5497 371.2027,-407.4503 303,-487 259.463,-537.7804 236.1111,-637.5 303,-637.5"/>
<polygon fill="#000000" stroke="#000000" points="545.7469,-179.7355 537.006,-173.1139 540.8735,-178.6178 536,-177.5 536,-177.5 536,-177.5 540.8735,-178.6178 534.994,-181.8861 545.7469,-179.7355 545.7469,-179.7355"/>
<text text-anchor="start" x="408.7735" y="-161.5" font-family="Arial" font-size="10.00" fill="#000000">FOREIGN KEY (store_id) REFERENCES store (store_id)</text>
</g>
</g>
</svg>
